<ttFont>
    <TTGlyph name="A" xMin="-75" yMin="-68" xMax="659" yMax="714">
      <contour>
        <pt x="-41" y="-68" on="1"/>
        <pt x="-64" y="-68" on="0"/>
        <pt x="-72" y="-53" on="1"/>
        <pt x="-75" y="-48" on="0"/>
        <pt x="-75" y="-42" on="0"/>
        <pt x="-73" y="-40" on="1"/>
        <pt x="18" y="27" on="0"/>
        <pt x="143" y="170" on="1"/>
        <pt x="81" y="204" on="0"/>
        <pt x="13" y="299" on="0"/>
        <pt x="13" y="380" on="0"/>
        <pt x="63" y="426" on="0"/>
        <pt x="111" y="426" on="1"/>
        <pt x="202" y="426" on="0"/>
        <pt x="266" y="321" on="1"/>
        <pt x="294" y="356" on="0"/>
        <pt x="417" y="514" on="0"/>
        <pt x="473" y="583" on="0"/>
        <pt x="514" y="630" on="1"/>
        <pt x="590" y="714" on="0"/>
        <pt x="629" y="714" on="1"/>
        <pt x="659" y="713" on="0"/>
        <pt x="659" y="682" on="1"/>
        <pt x="659" y="649" on="0"/>
        <pt x="614" y="534" on="0"/>
        <pt x="587" y="467" on="0"/>
        <pt x="534" y="356" on="0"/>
        <pt x="504" y="291" on="0"/>
        <pt x="442" y="164" on="0"/>
        <pt x="430" y="139" on="1"/>
        <pt x="507" y="144" on="0"/>
        <pt x="552" y="166" on="1"/>
        <pt x="560" y="170" on="0"/>
        <pt x="564" y="180" on="0"/>
        <pt x="571" y="180" on="0"/>
        <pt x="578" y="172" on="0"/>
        <pt x="578" y="168" on="1"/>
        <pt x="578" y="134" on="0"/>
        <pt x="422" y="121" on="1"/>
        <pt x="383" y="40" on="0"/>
        <pt x="368" y="4" on="1"/>
        <pt x="364" y="-4" on="0"/>
        <pt x="356" y="-4" on="1"/>
        <pt x="335" y="-4" on="0"/>
        <pt x="335" y="36" on="1"/>
        <pt x="331" y="67" on="0"/>
        <pt x="321" y="121" on="1"/>
        <pt x="242" y="127" on="0"/>
        <pt x="173" y="156" on="1"/>
        <pt x="173" y="155" on="1"/>
        <pt x="130" y="102" on="0"/>
        <pt x="23" y="-9" on="0"/>
        <pt x="-9" y="-38" on="1"/>
      </contour>
      <contour>
        <pt x="393" y="138" on="1"/>
        <pt x="622" y="614" on="0"/>
        <pt x="622" y="669" on="1"/>
        <pt x="622" y="686" on="0"/>
        <pt x="610" y="686" on="1"/>
        <pt x="592" y="686" on="0"/>
        <pt x="527" y="614" on="0"/>
        <pt x="487" y="566" on="0"/>
        <pt x="421" y="481" on="0"/>
        <pt x="378" y="425" on="0"/>
        <pt x="300" y="320" on="0"/>
        <pt x="281" y="295" on="1"/>
        <pt x="312" y="237" on="0"/>
        <pt x="337" y="142" on="1"/>
        <pt x="361" y="138" on="0"/>
      </contour>
      <contour>
        <pt x="255" y="306" on="1"/>
        <pt x="196" y="408" on="0"/>
        <pt x="115" y="408" on="1"/>
        <pt x="79" y="408" on="0"/>
        <pt x="43" y="378" on="0"/>
        <pt x="43" y="319" on="0"/>
        <pt x="110" y="232" on="0"/>
        <pt x="167" y="199" on="1"/>
        <pt x="197" y="234" on="0"/>
      </contour>
      <contour>
        <pt x="269" y="279" on="1"/>
        <pt x="237" y="236" on="0"/>
        <pt x="195" y="183" on="1"/>
        <pt x="254" y="155" on="0"/>
        <pt x="315" y="145" on="1"/>
        <pt x="294" y="229" on="0"/>
      </contour>
      <contour>
        <pt x="384" y="119" on="1"/>
        <pt x="342" y="119" on="1"/>
        <pt x="354" y="56" on="1"/>
        <pt x="366" y="80" on="0"/>
      </contour>
    </TTGlyph>
    <TTGlyph name="AE" xMin="-75" yMin="-68" xMax="1174" yMax="736">
      <contour>
        <pt x="883" y="495" on="1"/>
        <pt x="856" y="495" on="0"/>
        <pt x="856" y="511" on="1"/>
        <pt x="856" y="537" on="0"/>
        <pt x="972" y="630" on="0"/>
        <pt x="1044" y="658" on="1"/>
        <pt x="1044" y="665" on="1"/>
        <pt x="1044" y="711" on="0"/>
        <pt x="921" y="711" on="0"/>
        <pt x="740" y="604" on="0"/>
        <pt x="604" y="459" on="0"/>
        <pt x="604" y="409" on="1"/>
        <pt x="604" y="346" on="0"/>
        <pt x="720" y="346" on="1"/>
        <pt x="788" y="346" on="0"/>
        <pt x="837" y="378" on="1"/>
        <pt x="840" y="382" on="0"/>
        <pt x="844" y="382" on="1"/>
        <pt x="851" y="382" on="0"/>
        <pt x="851" y="361" on="0"/>
        <pt x="844" y="358" on="1"/>
        <pt x="719" y="301" on="0"/>
        <pt x="638" y="228" on="1"/>
        <pt x="602" y="197" on="0"/>
        <pt x="545" y="104" on="0"/>
        <pt x="545" y="25" on="0"/>
        <pt x="586" y="-26" on="0"/>
        <pt x="642" y="-26" on="1"/>
        <pt x="661" y="-25" on="0"/>
        <pt x="709" y="-15" on="0"/>
        <pt x="823" y="43" on="0"/>
        <pt x="875" y="91" on="1"/>
        <pt x="883" y="101" on="0"/>
        <pt x="888" y="101" on="1"/>
        <pt x="894" y="100" on="0"/>
        <pt x="894" y="93" on="1"/>
        <pt x="894" y="76" on="0"/>
        <pt x="800" y="6" on="0"/>
        <pt x="659" y="-54" on="0"/>
        <pt x="606" y="-54" on="1"/>
        <pt x="530" y="-54" on="0"/>
        <pt x="502" y="-2" on="1"/>
        <pt x="491" y="19" on="0"/>
        <pt x="491" y="86" on="0"/>
        <pt x="522" y="136" on="1"/>
        <pt x="481" y="126" on="0"/>
        <pt x="422" y="121" on="1"/>
        <pt x="383" y="40" on="0"/>
        <pt x="368" y="4" on="1"/>
        <pt x="364" y="-4" on="0"/>
        <pt x="356" y="-4" on="1"/>
        <pt x="335" y="-4" on="0"/>
        <pt x="335" y="36" on="1"/>
        <pt x="331" y="69" on="0"/>
        <pt x="321" y="120" on="1"/>
        <pt x="240" y="127" on="0"/>
        <pt x="174" y="156" on="1"/>
        <pt x="173" y="155" on="1"/>
        <pt x="130" y="102" on="0"/>
        <pt x="23" y="-9" on="0"/>
        <pt x="-9" y="-38" on="1"/>
        <pt x="-41" y="-68" on="1"/>
        <pt x="-64" y="-68" on="0"/>
        <pt x="-72" y="-53" on="1"/>
        <pt x="-75" y="-48" on="0"/>
        <pt x="-75" y="-42" on="0"/>
        <pt x="-73" y="-40" on="1"/>
        <pt x="23" y="32" on="0"/>
        <pt x="143" y="171" on="1"/>
        <pt x="81" y="205" on="0"/>
        <pt x="13" y="300" on="0"/>
        <pt x="13" y="380" on="0"/>
        <pt x="63" y="426" on="0"/>
        <pt x="111" y="426" on="1"/>
        <pt x="202" y="426" on="0"/>
        <pt x="266" y="321" on="1"/>
        <pt x="294" y="356" on="0"/>
        <pt x="417" y="514" on="0"/>
        <pt x="473" y="583" on="0"/>
        <pt x="514" y="630" on="1"/>
        <pt x="590" y="714" on="0"/>
        <pt x="629" y="714" on="1"/>
        <pt x="659" y="713" on="0"/>
        <pt x="659" y="682" on="1"/>
        <pt x="659" y="637" on="0"/>
        <pt x="596" y="492" on="1"/>
        <pt x="662" y="581" on="0"/>
        <pt x="905" y="736" on="0"/>
        <pt x="1074" y="736" on="0"/>
        <pt x="1074" y="677" on="1"/>
        <pt x="1074" y="669" on="1"/>
        <pt x="1121" y="683" on="0"/>
        <pt x="1162" y="683" on="0"/>
        <pt x="1174" y="680" on="0"/>
        <pt x="1174" y="658" on="0"/>
        <pt x="1166" y="656" on="1"/>
        <pt x="1120" y="656" on="0"/>
        <pt x="1066" y="639" on="1"/>
        <pt x="1044" y="586" on="0"/>
        <pt x="933" y="495" on="0"/>
      </contour>
      <contour>
        <pt x="393" y="138" on="1"/>
        <pt x="622" y="614" on="0"/>
        <pt x="622" y="669" on="1"/>
        <pt x="622" y="686" on="0"/>
        <pt x="610" y="686" on="1"/>
        <pt x="592" y="686" on="0"/>
        <pt x="527" y="614" on="0"/>
        <pt x="487" y="566" on="0"/>
        <pt x="421" y="481" on="0"/>
        <pt x="378" y="425" on="0"/>
        <pt x="300" y="320" on="0"/>
        <pt x="281" y="295" on="1"/>
        <pt x="312" y="237" on="0"/>
        <pt x="337" y="142" on="1"/>
        <pt x="361" y="138" on="0"/>
      </contour>
      <contour>
        <pt x="430" y="139" on="1"/>
        <pt x="494" y="142" on="0"/>
        <pt x="538" y="160" on="1"/>
        <pt x="616" y="263" on="0"/>
        <pt x="766" y="333" on="1"/>
        <pt x="719" y="323" on="0"/>
        <pt x="679" y="323" on="1"/>
        <pt x="553" y="323" on="0"/>
        <pt x="553" y="397" on="1"/>
        <pt x="508" y="299" on="0"/>
      </contour>
      <contour>
        <pt x="255" y="306" on="1"/>
        <pt x="196" y="408" on="0"/>
        <pt x="43" y="408" on="0"/>
        <pt x="43" y="354" on="1"/>
        <pt x="43" y="319" on="0"/>
        <pt x="110" y="232" on="0"/>
        <pt x="167" y="199" on="1"/>
        <pt x="197" y="234" on="0"/>
      </contour>
      <contour>
        <pt x="269" y="279" on="1"/>
        <pt x="255" y="260" on="0"/>
        <pt x="196" y="183" on="1"/>
        <pt x="254" y="155" on="0"/>
        <pt x="315" y="145" on="1"/>
        <pt x="294" y="229" on="0"/>
      </contour>
      <contour>
        <pt x="905" y="514" on="1"/>
        <pt x="936" y="514" on="0"/>
        <pt x="1017" y="587" on="0"/>
        <pt x="1035" y="628" on="1"/>
        <pt x="977" y="605" on="0"/>
        <pt x="889" y="540" on="0"/>
        <pt x="889" y="523" on="1"/>
        <pt x="889" y="514" on="0"/>
      </contour>
      <contour>
        <pt x="384" y="119" on="1"/>
        <pt x="342" y="119" on="1"/>
        <pt x="354" y="56" on="1"/>
        <pt x="366" y="80" on="0"/>
      </contour>
    </TTGlyph>
    <TTGlyph name="Aacute" xMin="-75" yMin="-68" xMax="764" yMax="827">
      <contour>
        <pt x="-41" y="-68" on="1"/>
        <pt x="76" y="36" on="0"/>
        <pt x="173" y="155" on="1"/>
        <pt x="173" y="156" on="1"/>
        <pt x="242" y="127" on="0"/>
        <pt x="321" y="121" on="1"/>
        <pt x="331" y="67" on="0"/>
        <pt x="335" y="36" on="1"/>
        <pt x="335" y="-4" on="0"/>
        <pt x="356" y="-4" on="1"/>
        <pt x="364" y="-4" on="0"/>
        <pt x="368" y="4" on="1"/>
        <pt x="383" y="40" on="0"/>
        <pt x="422" y="121" on="1"/>
        <pt x="578" y="134" on="0"/>
        <pt x="578" y="168" on="1"/>
        <pt x="578" y="172" on="0"/>
        <pt x="571" y="180" on="0"/>
        <pt x="564" y="180" on="0"/>
        <pt x="563" y="178" on="1"/>
        <pt x="560" y="170" on="0"/>
        <pt x="552" y="166" on="1"/>
        <pt x="507" y="144" on="0"/>
        <pt x="430" y="139" on="1"/>
        <pt x="442" y="164" on="0"/>
        <pt x="504" y="291" on="0"/>
        <pt x="534" y="356" on="0"/>
        <pt x="587" y="467" on="0"/>
        <pt x="614" y="534" on="0"/>
        <pt x="630" y="574" on="1"/>
        <pt x="659" y="649" on="0"/>
        <pt x="659" y="713" on="0"/>
        <pt x="629" y="714" on="1"/>
        <pt x="590" y="714" on="0"/>
        <pt x="514" y="630" on="1"/>
        <pt x="455" y="563" on="0"/>
        <pt x="294" y="356" on="0"/>
        <pt x="266" y="321" on="1"/>
        <pt x="202" y="426" on="0"/>
        <pt x="111" y="426" on="1"/>
        <pt x="63" y="426" on="0"/>
        <pt x="13" y="380" on="0"/>
        <pt x="13" y="299" on="0"/>
        <pt x="81" y="204" on="0"/>
        <pt x="143" y="170" on="1"/>
        <pt x="18" y="27" on="0"/>
        <pt x="-73" y="-40" on="1"/>
        <pt x="-75" y="-42" on="0"/>
        <pt x="-75" y="-48" on="0"/>
        <pt x="-72" y="-53" on="1"/>
        <pt x="-64" y="-68" on="0"/>
      </contour>
      <contour>
        <pt x="393" y="138" on="1"/>
        <pt x="361" y="138" on="0"/>
        <pt x="337" y="142" on="1"/>
        <pt x="312" y="237" on="0"/>
        <pt x="281" y="295" on="1"/>
        <pt x="300" y="320" on="0"/>
        <pt x="378" y="425" on="0"/>
        <pt x="421" y="481" on="0"/>
        <pt x="487" y="566" on="0"/>
        <pt x="527" y="614" on="0"/>
        <pt x="550" y="639" on="1"/>
        <pt x="592" y="686" on="0"/>
        <pt x="610" y="686" on="1"/>
        <pt x="622" y="686" on="0"/>
        <pt x="622" y="669" on="1"/>
        <pt x="622" y="614" on="0"/>
      </contour>
      <contour>
        <pt x="255" y="306" on="1"/>
        <pt x="197" y="234" on="0"/>
        <pt x="167" y="199" on="1"/>
        <pt x="110" y="232" on="0"/>
        <pt x="43" y="319" on="0"/>
        <pt x="43" y="348" on="1"/>
        <pt x="43" y="408" on="0"/>
        <pt x="196" y="408" on="0"/>
      </contour>
      <contour>
        <pt x="269" y="279" on="1"/>
        <pt x="294" y="229" on="0"/>
        <pt x="315" y="145" on="1"/>
        <pt x="254" y="155" on="0"/>
        <pt x="195" y="183" on="1"/>
        <pt x="237" y="236" on="0"/>
      </contour>
      <contour>
        <pt x="657" y="740" on="1"/>
        <pt x="652" y="742" on="0"/>
        <pt x="652" y="746" on="1"/>
        <pt x="653" y="750" on="0"/>
        <pt x="661" y="758" on="1"/>
        <pt x="740" y="823" on="1"/>
        <pt x="744" y="827" on="0"/>
        <pt x="750" y="827" on="1"/>
        <pt x="764" y="827" on="0"/>
        <pt x="764" y="813" on="1"/>
        <pt x="764" y="806" on="0"/>
        <pt x="758" y="800" on="1"/>
        <pt x="673" y="746" on="1"/>
        <pt x="661" y="740" on="0"/>
      </contour>
      <contour>
        <pt x="384" y="119" on="1"/>
        <pt x="354" y="56" on="1"/>
        <pt x="351" y="82" on="0"/>
        <pt x="342" y="119" on="1"/>
      </contour>
    </TTGlyph>
    <TTGlyph name="Acircumflex" xMin="-75" yMin="-68" xMax="725" yMax="824">
      <contour>
        <pt x="-41" y="-68" on="1"/>
        <pt x="-64" y="-68" on="0"/>
        <pt x="-72" y="-53" on="1"/>
        <pt x="-75" y="-48" on="0"/>
        <pt x="-75" y="-42" on="0"/>
        <pt x="-73" y="-40" on="1"/>
        <pt x="18" y="27" on="0"/>
        <pt x="143" y="170" on="1"/>
        <pt x="81" y="204" on="0"/>
        <pt x="13" y="299" on="0"/>
        <pt x="13" y="380" on="0"/>
        <pt x="63" y="426" on="0"/>
        <pt x="111" y="426" on="1"/>
        <pt x="202" y="426" on="0"/>
        <pt x="266" y="321" on="1"/>
        <pt x="294" y="356" on="0"/>
        <pt x="417" y="514" on="0"/>
        <pt x="473" y="583" on="0"/>
        <pt x="514" y="630" on="1"/>
        <pt x="590" y="714" on="0"/>
        <pt x="629" y="714" on="1"/>
        <pt x="659" y="713" on="0"/>
        <pt x="659" y="682" on="1"/>
        <pt x="659" y="649" on="0"/>
        <pt x="614" y="534" on="0"/>
        <pt x="587" y="467" on="0"/>
        <pt x="534" y="356" on="0"/>
        <pt x="504" y="291" on="0"/>
        <pt x="442" y="164" on="0"/>
        <pt x="430" y="139" on="1"/>
        <pt x="507" y="144" on="0"/>
        <pt x="552" y="166" on="1"/>
        <pt x="560" y="170" on="0"/>
        <pt x="564" y="180" on="0"/>
        <pt x="571" y="180" on="0"/>
        <pt x="578" y="172" on="0"/>
        <pt x="578" y="168" on="1"/>
        <pt x="578" y="134" on="0"/>
        <pt x="422" y="121" on="1"/>
        <pt x="383" y="40" on="0"/>
        <pt x="368" y="4" on="1"/>
        <pt x="364" y="-4" on="0"/>
        <pt x="356" y="-4" on="1"/>
        <pt x="335" y="-4" on="0"/>
        <pt x="335" y="36" on="1"/>
        <pt x="331" y="67" on="0"/>
        <pt x="321" y="121" on="1"/>
        <pt x="242" y="127" on="0"/>
        <pt x="173" y="156" on="1"/>
        <pt x="173" y="155" on="1"/>
        <pt x="130" y="102" on="0"/>
        <pt x="23" y="-9" on="0"/>
        <pt x="-9" y="-38" on="1"/>
      </contour>
      <contour>
        <pt x="393" y="138" on="1"/>
        <pt x="622" y="614" on="0"/>
        <pt x="622" y="669" on="1"/>
        <pt x="622" y="686" on="0"/>
        <pt x="610" y="686" on="1"/>
        <pt x="592" y="686" on="0"/>
        <pt x="527" y="614" on="0"/>
        <pt x="487" y="566" on="0"/>
        <pt x="421" y="481" on="0"/>
        <pt x="378" y="425" on="0"/>
        <pt x="300" y="320" on="0"/>
        <pt x="281" y="295" on="1"/>
        <pt x="312" y="237" on="0"/>
        <pt x="337" y="142" on="1"/>
        <pt x="361" y="138" on="0"/>
      </contour>
      <contour>
        <pt x="255" y="306" on="1"/>
        <pt x="196" y="408" on="0"/>
        <pt x="115" y="408" on="1"/>
        <pt x="79" y="408" on="0"/>
        <pt x="43" y="378" on="0"/>
        <pt x="43" y="319" on="0"/>
        <pt x="110" y="232" on="0"/>
        <pt x="167" y="199" on="1"/>
        <pt x="197" y="234" on="0"/>
      </contour>
      <contour>
        <pt x="269" y="279" on="1"/>
        <pt x="237" y="236" on="0"/>
        <pt x="195" y="183" on="1"/>
        <pt x="254" y="155" on="0"/>
        <pt x="315" y="145" on="1"/>
        <pt x="294" y="229" on="0"/>
      </contour>
      <contour>
        <pt x="668" y="790" on="1"/>
        <pt x="556" y="735" on="0"/>
        <pt x="538" y="735" on="0"/>
        <pt x="538" y="744" on="0"/>
        <pt x="672" y="824" on="0"/>
        <pt x="680" y="824" on="1"/>
        <pt x="688" y="824" on="0"/>
        <pt x="721" y="740" on="0"/>
        <pt x="725" y="731" on="1"/>
        <pt x="722" y="725" on="0"/>
        <pt x="717" y="725" on="1"/>
        <pt x="709" y="725" on="0"/>
        <pt x="678" y="774" on="1"/>
      </contour>
      <contour>
        <pt x="384" y="119" on="1"/>
        <pt x="342" y="119" on="1"/>
        <pt x="354" y="56" on="1"/>
        <pt x="366" y="80" on="0"/>
      </contour>
    </TTGlyph>
    <TTGlyph name="Adieresis" xMin="-75" yMin="-68" xMax="731" yMax="821">
      <contour>
        <pt x="-41" y="-68" on="1"/>
        <pt x="-64" y="-68" on="0"/>
        <pt x="-72" y="-53" on="1"/>
        <pt x="-75" y="-48" on="0"/>
        <pt x="-75" y="-42" on="0"/>
        <pt x="-73" y="-40" on="1"/>
        <pt x="18" y="27" on="0"/>
        <pt x="143" y="170" on="1"/>
        <pt x="81" y="204" on="0"/>
        <pt x="13" y="299" on="0"/>
        <pt x="13" y="380" on="0"/>
        <pt x="63" y="426" on="0"/>
        <pt x="111" y="426" on="1"/>
        <pt x="202" y="426" on="0"/>
        <pt x="266" y="321" on="1"/>
        <pt x="294" y="356" on="0"/>
        <pt x="417" y="514" on="0"/>
        <pt x="473" y="583" on="0"/>
        <pt x="514" y="630" on="1"/>
        <pt x="590" y="714" on="0"/>
        <pt x="629" y="714" on="1"/>
        <pt x="659" y="713" on="0"/>
        <pt x="659" y="682" on="1"/>
        <pt x="659" y="649" on="0"/>
        <pt x="614" y="534" on="0"/>
        <pt x="587" y="467" on="0"/>
        <pt x="534" y="356" on="0"/>
        <pt x="504" y="291" on="0"/>
        <pt x="442" y="164" on="0"/>
        <pt x="430" y="139" on="1"/>
        <pt x="507" y="144" on="0"/>
        <pt x="552" y="166" on="1"/>
        <pt x="560" y="170" on="0"/>
        <pt x="564" y="180" on="0"/>
        <pt x="571" y="180" on="0"/>
        <pt x="578" y="172" on="0"/>
        <pt x="578" y="168" on="1"/>
        <pt x="578" y="134" on="0"/>
        <pt x="422" y="121" on="1"/>
        <pt x="383" y="40" on="0"/>
        <pt x="368" y="4" on="1"/>
        <pt x="364" y="-4" on="0"/>
        <pt x="356" y="-4" on="1"/>
        <pt x="335" y="-4" on="0"/>
        <pt x="335" y="36" on="1"/>
        <pt x="331" y="67" on="0"/>
        <pt x="321" y="121" on="1"/>
        <pt x="242" y="127" on="0"/>
        <pt x="173" y="156" on="1"/>
        <pt x="173" y="155" on="1"/>
        <pt x="130" y="102" on="0"/>
        <pt x="23" y="-9" on="0"/>
        <pt x="-9" y="-38" on="1"/>
      </contour>
      <contour>
        <pt x="393" y="138" on="1"/>
        <pt x="622" y="614" on="0"/>
        <pt x="622" y="669" on="1"/>
        <pt x="622" y="686" on="0"/>
        <pt x="610" y="686" on="1"/>
        <pt x="592" y="686" on="0"/>
        <pt x="527" y="614" on="0"/>
        <pt x="487" y="566" on="0"/>
        <pt x="421" y="481" on="0"/>
        <pt x="378" y="425" on="0"/>
        <pt x="300" y="320" on="0"/>
        <pt x="281" y="295" on="1"/>
        <pt x="312" y="237" on="0"/>
        <pt x="337" y="142" on="1"/>
        <pt x="361" y="138" on="0"/>
      </contour>
      <contour>
        <pt x="255" y="306" on="1"/>
        <pt x="196" y="408" on="0"/>
        <pt x="115" y="408" on="1"/>
        <pt x="79" y="408" on="0"/>
        <pt x="43" y="378" on="0"/>
        <pt x="43" y="319" on="0"/>
        <pt x="110" y="232" on="0"/>
        <pt x="167" y="199" on="1"/>
        <pt x="197" y="234" on="0"/>
      </contour>
      <contour>
        <pt x="269" y="279" on="1"/>
        <pt x="237" y="236" on="0"/>
        <pt x="195" y="183" on="1"/>
        <pt x="254" y="155" on="0"/>
        <pt x="315" y="145" on="1"/>
        <pt x="294" y="229" on="0"/>
      </contour>
      <contour>
        <pt x="716" y="811" on="1"/>
        <pt x="731" y="811" on="0"/>
        <pt x="731" y="781" on="0"/>
        <pt x="703" y="750" on="0"/>
        <pt x="686" y="750" on="1"/>
        <pt x="672" y="750" on="0"/>
        <pt x="672" y="789" on="0"/>
        <pt x="704" y="811" on="0"/>
      </contour>
      <contour>
        <pt x="611" y="821" on="1"/>
        <pt x="626" y="821" on="0"/>
        <pt x="626" y="791" on="0"/>
        <pt x="598" y="760" on="0"/>
        <pt x="581" y="760" on="1"/>
        <pt x="567" y="760" on="0"/>
        <pt x="567" y="799" on="0"/>
        <pt x="599" y="821" on="0"/>
      </contour>
      <contour>
        <pt x="384" y="119" on="1"/>
        <pt x="342" y="119" on="1"/>
        <pt x="354" y="56" on="1"/>
        <pt x="366" y="80" on="0"/>
      </contour>
    </TTGlyph>
    <TTGlyph name="Agrave" xMin="-75" yMin="-68" xMax="694" yMax="824">
      <contour>
        <pt x="-41" y="-68" on="1"/>
        <pt x="-64" y="-68" on="0"/>
        <pt x="-72" y="-53" on="1"/>
        <pt x="-75" y="-48" on="0"/>
        <pt x="-75" y="-42" on="0"/>
        <pt x="-73" y="-40" on="1"/>
        <pt x="18" y="27" on="0"/>
        <pt x="143" y="170" on="1"/>
        <pt x="81" y="204" on="0"/>
        <pt x="13" y="299" on="0"/>
        <pt x="13" y="380" on="0"/>
        <pt x="63" y="426" on="0"/>
        <pt x="111" y="426" on="1"/>
        <pt x="202" y="426" on="0"/>
        <pt x="266" y="321" on="1"/>
        <pt x="294" y="356" on="0"/>
        <pt x="417" y="514" on="0"/>
        <pt x="473" y="583" on="0"/>
        <pt x="514" y="630" on="1"/>
        <pt x="590" y="714" on="0"/>
        <pt x="629" y="714" on="1"/>
        <pt x="659" y="713" on="0"/>
        <pt x="659" y="682" on="1"/>
        <pt x="659" y="649" on="0"/>
        <pt x="614" y="534" on="0"/>
        <pt x="587" y="467" on="0"/>
        <pt x="534" y="356" on="0"/>
        <pt x="504" y="291" on="0"/>
        <pt x="442" y="164" on="0"/>
        <pt x="430" y="139" on="1"/>
        <pt x="507" y="144" on="0"/>
        <pt x="552" y="166" on="1"/>
        <pt x="560" y="170" on="0"/>
        <pt x="564" y="180" on="0"/>
        <pt x="571" y="180" on="0"/>
        <pt x="578" y="172" on="0"/>
        <pt x="578" y="168" on="1"/>
        <pt x="578" y="134" on="0"/>
        <pt x="422" y="121" on="1"/>
        <pt x="383" y="40" on="0"/>
        <pt x="368" y="4" on="1"/>
        <pt x="364" y="-4" on="0"/>
        <pt x="356" y="-4" on="1"/>
        <pt x="335" y="-4" on="0"/>
        <pt x="335" y="36" on="1"/>
        <pt x="331" y="67" on="0"/>
        <pt x="321" y="121" on="1"/>
        <pt x="242" y="127" on="0"/>
        <pt x="173" y="156" on="1"/>
        <pt x="173" y="155" on="1"/>
        <pt x="130" y="102" on="0"/>
        <pt x="23" y="-9" on="0"/>
        <pt x="-9" y="-38" on="1"/>
      </contour>
      <contour>
        <pt x="393" y="138" on="1"/>
        <pt x="622" y="614" on="0"/>
        <pt x="622" y="669" on="1"/>
        <pt x="622" y="686" on="0"/>
        <pt x="610" y="686" on="1"/>
        <pt x="592" y="686" on="0"/>
        <pt x="527" y="614" on="0"/>
        <pt x="487" y="566" on="0"/>
        <pt x="421" y="481" on="0"/>
        <pt x="378" y="425" on="0"/>
        <pt x="300" y="320" on="0"/>
        <pt x="281" y="295" on="1"/>
        <pt x="312" y="237" on="0"/>
        <pt x="337" y="142" on="1"/>
        <pt x="361" y="138" on="0"/>
      </contour>
      <contour>
        <pt x="255" y="306" on="1"/>
        <pt x="196" y="408" on="0"/>
        <pt x="115" y="408" on="1"/>
        <pt x="79" y="408" on="0"/>
        <pt x="43" y="378" on="0"/>
        <pt x="43" y="319" on="0"/>
        <pt x="110" y="232" on="0"/>
        <pt x="167" y="199" on="1"/>
        <pt x="197" y="234" on="0"/>
      </contour>
      <contour>
        <pt x="269" y="279" on="1"/>
        <pt x="237" y="236" on="0"/>
        <pt x="195" y="183" on="1"/>
        <pt x="254" y="155" on="0"/>
        <pt x="315" y="145" on="1"/>
        <pt x="294" y="229" on="0"/>
      </contour>
      <contour>
        <pt x="694" y="737" on="1"/>
        <pt x="690" y="737" on="0"/>
        <pt x="678" y="743" on="1"/>
        <pt x="593" y="797" on="1"/>
        <pt x="587" y="803" on="0"/>
        <pt x="587" y="810" on="1"/>
        <pt x="587" y="824" on="0"/>
        <pt x="601" y="824" on="1"/>
        <pt x="607" y="824" on="0"/>
        <pt x="611" y="820" on="1"/>
        <pt x="690" y="755" on="1"/>
        <pt x="704" y="741" on="0"/>
      </contour>
      <contour>
        <pt x="384" y="119" on="1"/>
        <pt x="342" y="119" on="1"/>
        <pt x="354" y="56" on="1"/>
        <pt x="366" y="80" on="0"/>
      </contour>
    </TTGlyph>
    <TTGlyph name="Aring" xMin="-75" yMin="-68" xMax="719" yMax="822">
      <contour>
        <pt x="-41" y="-68" on="1"/>
        <pt x="76" y="36" on="0"/>
        <pt x="173" y="155" on="1"/>
        <pt x="173" y="156" on="1"/>
        <pt x="242" y="127" on="0"/>
        <pt x="321" y="121" on="1"/>
        <pt x="331" y="67" on="0"/>
        <pt x="335" y="36" on="1"/>
        <pt x="335" y="-4" on="0"/>
        <pt x="356" y="-4" on="1"/>
        <pt x="364" y="-4" on="0"/>
        <pt x="368" y="4" on="1"/>
        <pt x="383" y="40" on="0"/>
        <pt x="422" y="121" on="1"/>
        <pt x="578" y="134" on="0"/>
        <pt x="578" y="168" on="1"/>
        <pt x="578" y="172" on="0"/>
        <pt x="571" y="180" on="0"/>
        <pt x="564" y="180" on="0"/>
        <pt x="563" y="178" on="1"/>
        <pt x="560" y="170" on="0"/>
        <pt x="552" y="166" on="1"/>
        <pt x="507" y="144" on="0"/>
        <pt x="430" y="139" on="1"/>
        <pt x="442" y="164" on="0"/>
        <pt x="504" y="291" on="0"/>
        <pt x="534" y="356" on="0"/>
        <pt x="587" y="467" on="0"/>
        <pt x="614" y="534" on="0"/>
        <pt x="630" y="574" on="1"/>
        <pt x="659" y="649" on="0"/>
        <pt x="659" y="713" on="0"/>
        <pt x="629" y="714" on="1"/>
        <pt x="590" y="714" on="0"/>
        <pt x="514" y="630" on="1"/>
        <pt x="455" y="563" on="0"/>
        <pt x="294" y="356" on="0"/>
        <pt x="266" y="321" on="1"/>
        <pt x="202" y="426" on="0"/>
        <pt x="111" y="426" on="1"/>
        <pt x="63" y="426" on="0"/>
        <pt x="13" y="380" on="0"/>
        <pt x="13" y="299" on="0"/>
        <pt x="81" y="204" on="0"/>
        <pt x="143" y="170" on="1"/>
        <pt x="18" y="27" on="0"/>
        <pt x="-73" y="-40" on="1"/>
        <pt x="-75" y="-42" on="0"/>
        <pt x="-75" y="-48" on="0"/>
        <pt x="-72" y="-53" on="1"/>
        <pt x="-64" y="-68" on="0"/>
      </contour>
      <contour>
        <pt x="393" y="138" on="1"/>
        <pt x="361" y="138" on="0"/>
        <pt x="337" y="142" on="1"/>
        <pt x="312" y="237" on="0"/>
        <pt x="281" y="295" on="1"/>
        <pt x="300" y="320" on="0"/>
        <pt x="378" y="425" on="0"/>
        <pt x="421" y="481" on="0"/>
        <pt x="487" y="566" on="0"/>
        <pt x="527" y="614" on="0"/>
        <pt x="550" y="639" on="1"/>
        <pt x="592" y="686" on="0"/>
        <pt x="610" y="686" on="1"/>
        <pt x="622" y="686" on="0"/>
        <pt x="622" y="669" on="1"/>
        <pt x="622" y="614" on="0"/>
      </contour>
      <contour>
        <pt x="255" y="306" on="1"/>
        <pt x="197" y="234" on="0"/>
        <pt x="167" y="199" on="1"/>
        <pt x="110" y="232" on="0"/>
        <pt x="43" y="319" on="0"/>
        <pt x="43" y="348" on="1"/>
        <pt x="43" y="408" on="0"/>
        <pt x="196" y="408" on="0"/>
      </contour>
      <contour>
        <pt x="269" y="279" on="1"/>
        <pt x="294" y="229" on="0"/>
        <pt x="315" y="145" on="1"/>
        <pt x="254" y="155" on="0"/>
        <pt x="195" y="183" on="1"/>
        <pt x="237" y="236" on="0"/>
      </contour>
      <contour>
        <pt x="649" y="733" on="0"/>
        <pt x="632" y="751" on="0"/>
        <pt x="632" y="780" on="0"/>
        <pt x="662" y="822" on="0"/>
        <pt x="682" y="822" on="1"/>
        <pt x="719" y="822" on="0"/>
        <pt x="719" y="788" on="1"/>
        <pt x="719" y="769" on="0"/>
        <pt x="682" y="733" on="0"/>
      </contour>
      <contour>
        <pt x="683" y="803" on="1"/>
        <pt x="669" y="803" on="0"/>
        <pt x="651" y="780" on="0"/>
        <pt x="651" y="762" on="0"/>
        <pt x="661" y="751" on="0"/>
        <pt x="681" y="751" on="0"/>
        <pt x="700" y="772" on="0"/>
        <pt x="700" y="784" on="1"/>
        <pt x="700" y="803" on="0"/>
      </contour>
      <contour>
        <pt x="384" y="119" on="1"/>
        <pt x="354" y="56" on="1"/>
        <pt x="351" y="82" on="0"/>
        <pt x="342" y="119" on="1"/>
      </contour>
    </TTGlyph>
    <TTGlyph name="Atilde" xMin="-75" yMin="-68" xMax="762" yMax="819">
      <contour>
        <pt x="-41" y="-68" on="1"/>
        <pt x="76" y="36" on="0"/>
        <pt x="173" y="155" on="1"/>
        <pt x="173" y="156" on="1"/>
        <pt x="242" y="127" on="0"/>
        <pt x="321" y="121" on="1"/>
        <pt x="331" y="67" on="0"/>
        <pt x="335" y="36" on="1"/>
        <pt x="335" y="-4" on="0"/>
        <pt x="356" y="-4" on="1"/>
        <pt x="364" y="-4" on="0"/>
        <pt x="368" y="4" on="1"/>
        <pt x="383" y="40" on="0"/>
        <pt x="422" y="121" on="1"/>
        <pt x="578" y="134" on="0"/>
        <pt x="578" y="168" on="1"/>
        <pt x="578" y="172" on="0"/>
        <pt x="571" y="180" on="0"/>
        <pt x="564" y="180" on="0"/>
        <pt x="563" y="178" on="1"/>
        <pt x="560" y="170" on="0"/>
        <pt x="552" y="166" on="1"/>
        <pt x="507" y="144" on="0"/>
        <pt x="430" y="139" on="1"/>
        <pt x="442" y="164" on="0"/>
        <pt x="504" y="291" on="0"/>
        <pt x="534" y="356" on="0"/>
        <pt x="587" y="467" on="0"/>
        <pt x="614" y="534" on="0"/>
        <pt x="630" y="574" on="1"/>
        <pt x="659" y="649" on="0"/>
        <pt x="659" y="713" on="0"/>
        <pt x="629" y="714" on="1"/>
        <pt x="590" y="714" on="0"/>
        <pt x="514" y="630" on="1"/>
        <pt x="455" y="563" on="0"/>
        <pt x="294" y="356" on="0"/>
        <pt x="266" y="321" on="1"/>
        <pt x="202" y="426" on="0"/>
        <pt x="111" y="426" on="1"/>
        <pt x="63" y="426" on="0"/>
        <pt x="13" y="380" on="0"/>
        <pt x="13" y="299" on="0"/>
        <pt x="81" y="204" on="0"/>
        <pt x="143" y="170" on="1"/>
        <pt x="18" y="27" on="0"/>
        <pt x="-73" y="-40" on="1"/>
        <pt x="-75" y="-42" on="0"/>
        <pt x="-75" y="-48" on="0"/>
        <pt x="-72" y="-53" on="1"/>
        <pt x="-64" y="-68" on="0"/>
      </contour>
      <contour>
        <pt x="393" y="138" on="1"/>
        <pt x="361" y="138" on="0"/>
        <pt x="337" y="142" on="1"/>
        <pt x="312" y="237" on="0"/>
        <pt x="281" y="295" on="1"/>
        <pt x="300" y="320" on="0"/>
        <pt x="378" y="425" on="0"/>
        <pt x="421" y="481" on="0"/>
        <pt x="487" y="566" on="0"/>
        <pt x="527" y="614" on="0"/>
        <pt x="550" y="639" on="1"/>
        <pt x="592" y="686" on="0"/>
        <pt x="610" y="686" on="1"/>
        <pt x="622" y="686" on="0"/>
        <pt x="622" y="669" on="1"/>
        <pt x="622" y="614" on="0"/>
      </contour>
      <contour>
        <pt x="255" y="306" on="1"/>
        <pt x="197" y="234" on="0"/>
        <pt x="167" y="199" on="1"/>
        <pt x="110" y="232" on="0"/>
        <pt x="43" y="319" on="0"/>
        <pt x="43" y="348" on="1"/>
        <pt x="43" y="408" on="0"/>
        <pt x="196" y="408" on="0"/>
      </contour>
      <contour>
        <pt x="269" y="279" on="1"/>
        <pt x="294" y="229" on="0"/>
        <pt x="315" y="145" on="1"/>
        <pt x="254" y="155" on="0"/>
        <pt x="195" y="183" on="1"/>
        <pt x="237" y="236" on="0"/>
      </contour>
      <contour>
        <pt x="762" y="796" on="1"/>
        <pt x="762" y="781" on="0"/>
        <pt x="731" y="759" on="0"/>
        <pt x="693" y="759" on="0"/>
        <pt x="629" y="796" on="0"/>
        <pt x="604" y="796" on="0"/>
        <pt x="578" y="777" on="0"/>
        <pt x="573" y="777" on="1"/>
        <pt x="571" y="778" on="1"/>
        <pt x="571" y="785" on="0"/>
        <pt x="608" y="819" on="0"/>
        <pt x="646" y="819" on="0"/>
        <pt x="714" y="778" on="0"/>
        <pt x="739" y="778" on="0"/>
        <pt x="759" y="799" on="0"/>
        <pt x="762" y="799" on="0"/>
      </contour>
      <contour>
        <pt x="384" y="119" on="1"/>
        <pt x="354" y="56" on="1"/>
        <pt x="351" y="82" on="0"/>
        <pt x="342" y="119" on="1"/>
      </contour>
    </TTGlyph>
    <TTGlyph name="B" xMin="-57" yMin="-82" xMax="741" yMax="736">
      <contour>
        <pt x="711" y="84" on="1"/>
        <pt x="711" y="45" on="0"/>
        <pt x="658" y="32" on="1"/>
        <pt x="655" y="32" on="0"/>
        <pt x="655" y="40" on="0"/>
        <pt x="662" y="45" on="1"/>
        <pt x="682" y="60" on="0"/>
        <pt x="682" y="78" on="1"/>
        <pt x="682" y="113" on="0"/>
        <pt x="626" y="129" on="1"/>
        <pt x="552" y="38" on="0"/>
        <pt x="289" y="-82" on="0"/>
        <pt x="85" y="-82" on="0"/>
        <pt x="85" y="-40" on="1"/>
        <pt x="85" y="-5" on="0"/>
        <pt x="224" y="92" on="0"/>
        <pt x="443" y="165" on="0"/>
        <pt x="540" y="165" on="1"/>
        <pt x="588" y="165" on="0"/>
        <pt x="622" y="158" on="1"/>
        <pt x="653" y="213" on="0"/>
        <pt x="653" y="273" on="1"/>
        <pt x="653" y="308" on="0"/>
        <pt x="591" y="355" on="0"/>
        <pt x="487" y="355" on="0"/>
        <pt x="440" y="334" on="1"/>
        <pt x="430" y="327" on="0"/>
        <pt x="424" y="327" on="1"/>
        <pt x="413" y="327" on="0"/>
        <pt x="413" y="338" on="0"/>
        <pt x="428" y="346" on="1"/>
        <pt x="450" y="353" on="0"/>
        <pt x="575" y="447" on="0"/>
        <pt x="694" y="582" on="0"/>
        <pt x="694" y="628" on="1"/>
        <pt x="694" y="703" on="0"/>
        <pt x="532" y="703" on="1"/>
        <pt x="418" y="703" on="0"/>
        <pt x="161" y="610" on="0"/>
        <pt x="-15" y="461" on="0"/>
        <pt x="-15" y="390" on="1"/>
        <pt x="-15" y="352" on="0"/>
        <pt x="32" y="352" on="1"/>
        <pt x="99" y="352" on="0"/>
        <pt x="229" y="419" on="0"/>
        <pt x="334" y="507" on="1"/>
        <pt x="347" y="522" on="0"/>
        <pt x="352" y="522" on="1"/>
        <pt x="363" y="522" on="0"/>
        <pt x="363" y="515" on="1"/>
        <pt x="363" y="513" on="0"/>
        <pt x="356" y="501" on="1"/>
        <pt x="330" y="475" on="0"/>
        <pt x="236" y="401" on="0"/>
        <pt x="156" y="351" on="0"/>
        <pt x="55" y="311" on="0"/>
        <pt x="14" y="311" on="1"/>
        <pt x="-57" y="311" on="0"/>
        <pt x="-57" y="374" on="1"/>
        <pt x="-57" y="456" on="0"/>
        <pt x="157" y="629" on="0"/>
        <pt x="446" y="736" on="0"/>
        <pt x="560" y="736" on="1"/>
        <pt x="741" y="736" on="0"/>
        <pt x="741" y="647" on="1"/>
        <pt x="741" y="582" on="0"/>
        <pt x="568" y="405" on="0"/>
        <pt x="499" y="372" on="1"/>
        <pt x="530" y="378" on="0"/>
        <pt x="557" y="378" on="1"/>
        <pt x="620" y="378" on="0"/>
        <pt x="688" y="330" on="0"/>
        <pt x="688" y="289" on="1"/>
        <pt x="688" y="219" on="0"/>
        <pt x="643" y="152" on="1"/>
        <pt x="711" y="132" on="0"/>
      </contour>
      <contour>
        <pt x="529" y="141" on="1"/>
        <pt x="453" y="141" on="0"/>
        <pt x="261" y="77" on="0"/>
        <pt x="132" y="-5" on="0"/>
        <pt x="132" y="-56" on="0"/>
        <pt x="255" y="-56" on="0"/>
        <pt x="402" y="-17" on="0"/>
        <pt x="563" y="74" on="0"/>
        <pt x="606" y="134" on="1"/>
        <pt x="568" y="141" on="0"/>
      </contour>
      <contour>
        <pt x="540" y="639" on="1"/>
        <pt x="540" y="636" on="0"/>
        <pt x="307" y="234" on="0"/>
        <pt x="252" y="142" on="1"/>
        <pt x="246" y="129" on="0"/>
        <pt x="214" y="115" on="0"/>
        <pt x="197" y="115" on="0"/>
        <pt x="197" y="124" on="0"/>
        <pt x="345" y="373" on="0"/>
        <pt x="492" y="619" on="0"/>
        <pt x="490" y="620" on="1"/>
        <pt x="496" y="630" on="0"/>
        <pt x="510" y="635" on="1"/>
        <pt x="535" y="643" on="1"/>
      </contour>
    </TTGlyph>
    <TTGlyph name="C" xMin="0" yMin="-34" xMax="665" yMax="713">
      <contour>
        <pt x="449" y="108" on="1"/>
        <pt x="457" y="108" on="0"/>
        <pt x="457" y="96" on="1"/>
        <pt x="457" y="81" on="0"/>
        <pt x="364" y="19" on="0"/>
        <pt x="217" y="-34" on="0"/>
        <pt x="156" y="-34" on="1"/>
        <pt x="0" y="-34" on="0"/>
        <pt x="0" y="139" on="1"/>
        <pt x="0" y="227" on="0"/>
        <pt x="79" y="405" on="0"/>
        <pt x="204" y="544" on="0"/>
        <pt x="351" y="654" on="0"/>
        <pt x="496" y="713" on="0"/>
        <pt x="551" y="713" on="1"/>
        <pt x="665" y="713" on="0"/>
        <pt x="665" y="625" on="1"/>
        <pt x="665" y="559" on="0"/>
        <pt x="543" y="377" on="0"/>
        <pt x="367" y="243" on="0"/>
        <pt x="297" y="243" on="1"/>
        <pt x="243" y="243" on="0"/>
        <pt x="243" y="294" on="1"/>
        <pt x="243" y="359" on="0"/>
        <pt x="412" y="550" on="0"/>
        <pt x="472" y="550" on="1"/>
        <pt x="480" y="550" on="0"/>
        <pt x="480" y="544" on="1"/>
        <pt x="475" y="531" on="1"/>
        <pt x="439" y="531" on="0"/>
        <pt x="341" y="449" on="0"/>
        <pt x="273" y="341" on="0"/>
        <pt x="273" y="305" on="1"/>
        <pt x="273" y="265" on="0"/>
        <pt x="314" y="265" on="1"/>
        <pt x="365" y="265" on="0"/>
        <pt x="514" y="389" on="0"/>
        <pt x="623" y="558" on="0"/>
        <pt x="623" y="616" on="1"/>
        <pt x="623" y="689" on="0"/>
        <pt x="531" y="689" on="1"/>
        <pt x="483" y="689" on="0"/>
        <pt x="353" y="634" on="0"/>
        <pt x="221" y="530" on="0"/>
        <pt x="108" y="400" on="0"/>
        <pt x="37" y="233" on="0"/>
        <pt x="37" y="150" on="1"/>
        <pt x="37" y="-8" on="0"/>
        <pt x="177" y="-8" on="1"/>
        <pt x="250" y="-8" on="0"/>
        <pt x="420" y="71" on="0"/>
      </contour>
    </TTGlyph>
    <TTGlyph name="Ccedilla" xMin="0" yMin="-124" xMax="665" yMax="713">
      <contour>
        <pt x="449" y="108" on="1"/>
        <pt x="457" y="108" on="0"/>
        <pt x="457" y="96" on="1"/>
        <pt x="457" y="81" on="0"/>
        <pt x="364" y="19" on="0"/>
        <pt x="217" y="-34" on="0"/>
        <pt x="156" y="-34" on="1"/>
        <pt x="132" y="-34" on="0"/>
        <pt x="115" y="-30" on="1"/>
        <pt x="105" y="-45" on="1"/>
        <pt x="125" y="-50" on="0"/>
        <pt x="125" y="-68" on="1"/>
        <pt x="123" y="-96" on="0"/>
        <pt x="65" y="-124" on="0"/>
        <pt x="35" y="-124" on="1"/>
        <pt x="28" y="-124" on="0"/>
        <pt x="28" y="-115" on="0"/>
        <pt x="32" y="-115" on="1"/>
        <pt x="56" y="-115" on="0"/>
        <pt x="101" y="-92" on="0"/>
        <pt x="102" y="-73" on="1"/>
        <pt x="102" y="-54" on="0"/>
        <pt x="80" y="-54" on="1"/>
        <pt x="81" y="-50" on="0"/>
        <pt x="100" y="-26" on="1"/>
        <pt x="0" y="3" on="0"/>
        <pt x="0" y="139" on="1"/>
        <pt x="0" y="227" on="0"/>
        <pt x="79" y="405" on="0"/>
        <pt x="204" y="544" on="0"/>
        <pt x="351" y="654" on="0"/>
        <pt x="496" y="713" on="0"/>
        <pt x="551" y="713" on="1"/>
        <pt x="665" y="713" on="0"/>
        <pt x="665" y="625" on="1"/>
        <pt x="665" y="559" on="0"/>
        <pt x="543" y="377" on="0"/>
        <pt x="367" y="243" on="0"/>
        <pt x="297" y="243" on="1"/>
        <pt x="243" y="243" on="0"/>
        <pt x="243" y="294" on="1"/>
        <pt x="243" y="359" on="0"/>
        <pt x="412" y="550" on="0"/>
        <pt x="472" y="550" on="1"/>
        <pt x="480" y="550" on="0"/>
        <pt x="480" y="544" on="1"/>
        <pt x="475" y="531" on="1"/>
        <pt x="439" y="531" on="0"/>
        <pt x="341" y="449" on="0"/>
        <pt x="273" y="341" on="0"/>
        <pt x="273" y="305" on="1"/>
        <pt x="273" y="265" on="0"/>
        <pt x="314" y="265" on="1"/>
        <pt x="365" y="265" on="0"/>
        <pt x="514" y="389" on="0"/>
        <pt x="623" y="558" on="0"/>
        <pt x="623" y="616" on="1"/>
        <pt x="623" y="689" on="0"/>
        <pt x="531" y="689" on="1"/>
        <pt x="483" y="689" on="0"/>
        <pt x="353" y="634" on="0"/>
        <pt x="221" y="530" on="0"/>
        <pt x="108" y="400" on="0"/>
        <pt x="37" y="233" on="0"/>
        <pt x="37" y="150" on="1"/>
        <pt x="37" y="-8" on="0"/>
        <pt x="177" y="-8" on="1"/>
        <pt x="250" y="-8" on="0"/>
        <pt x="420" y="71" on="0"/>
      </contour>
    </TTGlyph>
    <TTGlyph name="D" xMin="-136" yMin="-63" xMax="729" yMax="737">
      <contour>
        <pt x="558" y="84" on="1"/>
        <pt x="558" y="45" on="0"/>
        <pt x="505" y="32" on="1"/>
        <pt x="502" y="32" on="0"/>
        <pt x="502" y="40" on="0"/>
        <pt x="509" y="45" on="1"/>
        <pt x="529" y="60" on="0"/>
        <pt x="529" y="78" on="1"/>
        <pt x="529" y="113" on="0"/>
        <pt x="471" y="130" on="1"/>
        <pt x="374" y="42" on="0"/>
        <pt x="162" y="-63" on="0"/>
        <pt x="69" y="-63" on="1"/>
        <pt x="-2" y="-63" on="0"/>
        <pt x="-2" y="36" on="0"/>
        <pt x="126" y="121" on="0"/>
        <pt x="304" y="165" on="0"/>
        <pt x="434" y="165" on="0"/>
        <pt x="466" y="158" on="1"/>
        <pt x="564" y="253" on="0"/>
        <pt x="688" y="460" on="0"/>
        <pt x="688" y="617" on="0"/>
        <pt x="571" y="703" on="0"/>
        <pt x="335" y="703" on="0"/>
        <pt x="82" y="618" on="0"/>
        <pt x="-94" y="480" on="0"/>
        <pt x="-94" y="413" on="1"/>
        <pt x="-94" y="375" on="0"/>
        <pt x="-47" y="375" on="1"/>
        <pt x="20" y="375" on="0"/>
        <pt x="150" y="442" on="0"/>
        <pt x="255" y="530" on="1"/>
        <pt x="268" y="545" on="0"/>
        <pt x="274" y="545" on="1"/>
        <pt x="284" y="545" on="0"/>
        <pt x="284" y="538" on="1"/>
        <pt x="284" y="536" on="0"/>
        <pt x="277" y="524" on="1"/>
        <pt x="251" y="498" on="0"/>
        <pt x="157" y="424" on="0"/>
        <pt x="77" y="374" on="0"/>
        <pt x="-24" y="334" on="0"/>
        <pt x="-65" y="334" on="1"/>
        <pt x="-136" y="334" on="0"/>
        <pt x="-136" y="397" on="1"/>
        <pt x="-136" y="468" on="0"/>
        <pt x="67" y="630" on="0"/>
        <pt x="359" y="737" on="0"/>
        <pt x="609" y="737" on="0"/>
        <pt x="729" y="643" on="0"/>
        <pt x="729" y="475" on="0"/>
        <pt x="598" y="251" on="0"/>
        <pt x="494" y="151" on="1"/>
        <pt x="558" y="131" on="0"/>
      </contour>
      <contour>
        <pt x="442" y="136" on="1"/>
        <pt x="409" y="141" on="0"/>
        <pt x="302" y="141" on="0"/>
        <pt x="154" y="107" on="0"/>
        <pt x="47" y="35" on="0"/>
        <pt x="47" y="-10" on="1"/>
        <pt x="47" y="-43" on="0"/>
        <pt x="90" y="-43" on="1"/>
        <pt x="166" y="-43" on="0"/>
        <pt x="353" y="55" on="0"/>
      </contour>
      <contour>
        <pt x="442" y="646" on="1"/>
        <pt x="442" y="641" on="0"/>
        <pt x="206" y="225" on="0"/>
        <pt x="171" y="166" on="1"/>
        <pt x="165" y="153" on="0"/>
        <pt x="133" y="139" on="0"/>
        <pt x="116" y="139" on="0"/>
        <pt x="116" y="148" on="0"/>
        <pt x="186" y="268" on="1"/>
        <pt x="395" y="626" on="0"/>
        <pt x="392" y="627" on="1"/>
        <pt x="398" y="637" on="0"/>
        <pt x="412" y="642" on="1"/>
        <pt x="437" y="650" on="1"/>
      </contour>
    </TTGlyph>
    <TTGlyph name="E" xMin="-14" yMin="-54" xMax="669" yMax="736">
      <contour>
        <pt x="378" y="495" on="1"/>
        <pt x="351" y="495" on="0"/>
        <pt x="351" y="511" on="1"/>
        <pt x="351" y="536" on="0"/>
        <pt x="468" y="631" on="0"/>
        <pt x="539" y="659" on="1"/>
        <pt x="540" y="661" on="0"/>
        <pt x="540" y="666" on="1"/>
        <pt x="540" y="711" on="0"/>
        <pt x="416" y="711" on="0"/>
        <pt x="235" y="604" on="0"/>
        <pt x="99" y="459" on="0"/>
        <pt x="99" y="409" on="1"/>
        <pt x="99" y="346" on="0"/>
        <pt x="215" y="346" on="1"/>
        <pt x="283" y="346" on="0"/>
        <pt x="332" y="378" on="1"/>
        <pt x="335" y="382" on="0"/>
        <pt x="339" y="382" on="1"/>
        <pt x="346" y="382" on="0"/>
        <pt x="346" y="361" on="0"/>
        <pt x="339" y="358" on="1"/>
        <pt x="214" y="301" on="0"/>
        <pt x="132" y="228" on="1"/>
        <pt x="97" y="197" on="0"/>
        <pt x="40" y="104" on="0"/>
        <pt x="40" y="25" on="0"/>
        <pt x="81" y="-26" on="0"/>
        <pt x="137" y="-26" on="1"/>
        <pt x="156" y="-25" on="0"/>
        <pt x="204" y="-15" on="0"/>
        <pt x="318" y="43" on="0"/>
        <pt x="370" y="91" on="1"/>
        <pt x="378" y="101" on="0"/>
        <pt x="383" y="101" on="1"/>
        <pt x="389" y="100" on="0"/>
        <pt x="389" y="93" on="1"/>
        <pt x="389" y="76" on="0"/>
        <pt x="295" y="6" on="0"/>
        <pt x="154" y="-54" on="0"/>
        <pt x="101" y="-54" on="1"/>
        <pt x="25" y="-54" on="0"/>
        <pt x="-3" y="-2" on="1"/>
        <pt x="-14" y="19" on="0"/>
        <pt x="-14" y="46" on="1"/>
        <pt x="-14" y="112" on="0"/>
        <pt x="139" y="277" on="0"/>
        <pt x="261" y="333" on="1"/>
        <pt x="214" y="323" on="0"/>
        <pt x="174" y="323" on="1"/>
        <pt x="48" y="323" on="0"/>
        <pt x="48" y="393" on="1"/>
        <pt x="48" y="436" on="0"/>
        <pt x="142" y="557" on="0"/>
        <pt x="275" y="661" on="0"/>
        <pt x="430" y="736" on="0"/>
        <pt x="485" y="736" on="1"/>
        <pt x="570" y="736" on="0"/>
        <pt x="570" y="678" on="1"/>
        <pt x="570" y="672" on="0"/>
        <pt x="569" y="669" on="1"/>
        <pt x="613" y="683" on="0"/>
        <pt x="657" y="683" on="0"/>
        <pt x="669" y="680" on="0"/>
        <pt x="669" y="658" on="0"/>
        <pt x="661" y="656" on="1"/>
        <pt x="615" y="656" on="0"/>
        <pt x="561" y="639" on="1"/>
        <pt x="539" y="586" on="0"/>
        <pt x="428" y="495" on="0"/>
      </contour>
      <contour>
        <pt x="384" y="523" on="1"/>
        <pt x="384" y="514" on="0"/>
        <pt x="400" y="514" on="1"/>
        <pt x="430" y="514" on="0"/>
        <pt x="512" y="587" on="0"/>
        <pt x="530" y="628" on="1"/>
        <pt x="472" y="604" on="0"/>
        <pt x="384" y="539" on="0"/>
      </contour>
    </TTGlyph>
    <TTGlyph name="Eacute" xMin="-14" yMin="-54" xMax="669" yMax="866">
      <contour>
        <pt x="378" y="495" on="1"/>
        <pt x="428" y="495" on="0"/>
        <pt x="539" y="586" on="0"/>
        <pt x="561" y="639" on="1"/>
        <pt x="615" y="656" on="0"/>
        <pt x="661" y="656" on="1"/>
        <pt x="669" y="658" on="0"/>
        <pt x="669" y="680" on="0"/>
        <pt x="657" y="683" on="0"/>
        <pt x="613" y="683" on="0"/>
        <pt x="569" y="669" on="1"/>
        <pt x="570" y="672" on="0"/>
        <pt x="570" y="678" on="1"/>
        <pt x="570" y="736" on="0"/>
        <pt x="485" y="736" on="1"/>
        <pt x="430" y="736" on="0"/>
        <pt x="275" y="661" on="0"/>
        <pt x="142" y="557" on="0"/>
        <pt x="48" y="436" on="0"/>
        <pt x="48" y="393" on="1"/>
        <pt x="48" y="323" on="0"/>
        <pt x="174" y="323" on="1"/>
        <pt x="209" y="323" on="0"/>
        <pt x="248" y="330" on="1"/>
        <pt x="261" y="333" on="1"/>
        <pt x="139" y="277" on="0"/>
        <pt x="-14" y="112" on="0"/>
        <pt x="-14" y="46" on="1"/>
        <pt x="-14" y="19" on="0"/>
        <pt x="8" y="-22" on="0"/>
        <pt x="35" y="-41" on="0"/>
        <pt x="54" y="-46" on="1"/>
        <pt x="80" y="-54" on="0"/>
        <pt x="101" y="-54" on="1"/>
        <pt x="154" y="-54" on="0"/>
        <pt x="295" y="6" on="0"/>
        <pt x="389" y="76" on="0"/>
        <pt x="389" y="93" on="1"/>
        <pt x="389" y="100" on="0"/>
        <pt x="385" y="100" on="1"/>
        <pt x="378" y="101" on="0"/>
        <pt x="370" y="91" on="1"/>
        <pt x="318" y="43" on="0"/>
        <pt x="204" y="-15" on="0"/>
        <pt x="156" y="-25" on="0"/>
        <pt x="137" y="-26" on="1"/>
        <pt x="81" y="-26" on="0"/>
        <pt x="40" y="25" on="0"/>
        <pt x="40" y="104" on="0"/>
        <pt x="97" y="197" on="0"/>
        <pt x="168" y="260" on="0"/>
        <pt x="218" y="292" on="1"/>
        <pt x="280" y="331" on="0"/>
        <pt x="339" y="358" on="1"/>
        <pt x="346" y="361" on="0"/>
        <pt x="346" y="382" on="0"/>
        <pt x="339" y="382" on="1"/>
        <pt x="332" y="378" on="1"/>
        <pt x="283" y="346" on="0"/>
        <pt x="215" y="346" on="1"/>
        <pt x="99" y="346" on="0"/>
        <pt x="99" y="409" on="1"/>
        <pt x="99" y="459" on="0"/>
        <pt x="235" y="604" on="0"/>
        <pt x="416" y="711" on="0"/>
        <pt x="540" y="711" on="0"/>
        <pt x="540" y="666" on="1"/>
        <pt x="540" y="661" on="0"/>
        <pt x="539" y="659" on="1"/>
        <pt x="468" y="631" on="0"/>
        <pt x="351" y="536" on="0"/>
        <pt x="351" y="511" on="1"/>
        <pt x="351" y="495" on="0"/>
      </contour>
      <contour>
        <pt x="384" y="523" on="1"/>
        <pt x="384" y="539" on="0"/>
        <pt x="472" y="604" on="0"/>
        <pt x="530" y="628" on="1"/>
        <pt x="512" y="587" on="0"/>
        <pt x="430" y="514" on="0"/>
        <pt x="400" y="514" on="1"/>
        <pt x="384" y="514" on="0"/>
      </contour>
      <contour>
        <pt x="508" y="779" on="1"/>
        <pt x="503" y="781" on="0"/>
        <pt x="503" y="785" on="1"/>
        <pt x="504" y="789" on="0"/>
        <pt x="512" y="797" on="1"/>
        <pt x="591" y="862" on="1"/>
        <pt x="595" y="866" on="0"/>
        <pt x="601" y="866" on="1"/>
        <pt x="615" y="866" on="0"/>
        <pt x="615" y="852" on="1"/>
        <pt x="615" y="845" on="0"/>
        <pt x="609" y="839" on="1"/>
        <pt x="524" y="785" on="1"/>
        <pt x="512" y="779" on="0"/>
      </contour>
    </TTGlyph>
    <TTGlyph name="Ecircumflex" xMin="-14" yMin="-54" xMax="669" yMax="854">
      <contour>
        <pt x="378" y="495" on="1"/>
        <pt x="351" y="495" on="0"/>
        <pt x="351" y="511" on="1"/>
        <pt x="351" y="536" on="0"/>
        <pt x="468" y="631" on="0"/>
        <pt x="539" y="659" on="1"/>
        <pt x="540" y="661" on="0"/>
        <pt x="540" y="666" on="1"/>
        <pt x="540" y="711" on="0"/>
        <pt x="416" y="711" on="0"/>
        <pt x="235" y="604" on="0"/>
        <pt x="99" y="459" on="0"/>
        <pt x="99" y="409" on="1"/>
        <pt x="99" y="346" on="0"/>
        <pt x="215" y="346" on="1"/>
        <pt x="283" y="346" on="0"/>
        <pt x="332" y="378" on="1"/>
        <pt x="335" y="382" on="0"/>
        <pt x="339" y="382" on="1"/>
        <pt x="346" y="382" on="0"/>
        <pt x="346" y="361" on="0"/>
        <pt x="339" y="358" on="1"/>
        <pt x="214" y="301" on="0"/>
        <pt x="132" y="228" on="1"/>
        <pt x="97" y="197" on="0"/>
        <pt x="40" y="104" on="0"/>
        <pt x="40" y="25" on="0"/>
        <pt x="81" y="-26" on="0"/>
        <pt x="137" y="-26" on="1"/>
        <pt x="156" y="-25" on="0"/>
        <pt x="204" y="-15" on="0"/>
        <pt x="318" y="43" on="0"/>
        <pt x="370" y="91" on="1"/>
        <pt x="378" y="101" on="0"/>
        <pt x="383" y="101" on="1"/>
        <pt x="389" y="100" on="0"/>
        <pt x="389" y="93" on="1"/>
        <pt x="389" y="76" on="0"/>
        <pt x="295" y="6" on="0"/>
        <pt x="154" y="-54" on="0"/>
        <pt x="101" y="-54" on="1"/>
        <pt x="25" y="-54" on="0"/>
        <pt x="-3" y="-2" on="1"/>
        <pt x="-14" y="19" on="0"/>
        <pt x="-14" y="46" on="1"/>
        <pt x="-14" y="112" on="0"/>
        <pt x="139" y="277" on="0"/>
        <pt x="261" y="333" on="1"/>
        <pt x="214" y="323" on="0"/>
        <pt x="174" y="323" on="1"/>
        <pt x="48" y="323" on="0"/>
        <pt x="48" y="393" on="1"/>
        <pt x="48" y="436" on="0"/>
        <pt x="142" y="557" on="0"/>
        <pt x="275" y="661" on="0"/>
        <pt x="430" y="736" on="0"/>
        <pt x="485" y="736" on="1"/>
        <pt x="570" y="736" on="0"/>
        <pt x="570" y="678" on="1"/>
        <pt x="570" y="672" on="0"/>
        <pt x="569" y="669" on="1"/>
        <pt x="613" y="683" on="0"/>
        <pt x="657" y="683" on="0"/>
        <pt x="669" y="680" on="0"/>
        <pt x="669" y="658" on="0"/>
        <pt x="661" y="656" on="1"/>
        <pt x="615" y="656" on="0"/>
        <pt x="561" y="639" on="1"/>
        <pt x="539" y="586" on="0"/>
        <pt x="428" y="495" on="0"/>
      </contour>
      <contour>
        <pt x="384" y="523" on="1"/>
        <pt x="384" y="514" on="0"/>
        <pt x="400" y="514" on="1"/>
        <pt x="430" y="514" on="0"/>
        <pt x="512" y="587" on="0"/>
        <pt x="530" y="628" on="1"/>
        <pt x="472" y="604" on="0"/>
        <pt x="384" y="539" on="0"/>
      </contour>
      <contour>
        <pt x="500" y="820" on="1"/>
        <pt x="388" y="765" on="0"/>
        <pt x="370" y="765" on="0"/>
        <pt x="370" y="774" on="0"/>
        <pt x="504" y="854" on="0"/>
        <pt x="512" y="854" on="1"/>
        <pt x="520" y="854" on="0"/>
        <pt x="553" y="770" on="0"/>
        <pt x="557" y="761" on="1"/>
        <pt x="554" y="755" on="0"/>
        <pt x="549" y="755" on="1"/>
        <pt x="541" y="755" on="0"/>
        <pt x="510" y="804" on="1"/>
      </contour>
    </TTGlyph>
    <TTGlyph name="Edieresis" xMin="-14" yMin="-54" xMax="669" yMax="851">
      <contour>
        <pt x="378" y="495" on="1"/>
        <pt x="351" y="495" on="0"/>
        <pt x="351" y="511" on="1"/>
        <pt x="351" y="536" on="0"/>
        <pt x="468" y="631" on="0"/>
        <pt x="539" y="659" on="1"/>
        <pt x="540" y="661" on="0"/>
        <pt x="540" y="666" on="1"/>
        <pt x="540" y="711" on="0"/>
        <pt x="416" y="711" on="0"/>
        <pt x="235" y="604" on="0"/>
        <pt x="99" y="459" on="0"/>
        <pt x="99" y="409" on="1"/>
        <pt x="99" y="346" on="0"/>
        <pt x="215" y="346" on="1"/>
        <pt x="283" y="346" on="0"/>
        <pt x="332" y="378" on="1"/>
        <pt x="335" y="382" on="0"/>
        <pt x="339" y="382" on="1"/>
        <pt x="346" y="382" on="0"/>
        <pt x="346" y="361" on="0"/>
        <pt x="339" y="358" on="1"/>
        <pt x="214" y="301" on="0"/>
        <pt x="132" y="228" on="1"/>
        <pt x="97" y="197" on="0"/>
        <pt x="40" y="104" on="0"/>
        <pt x="40" y="25" on="0"/>
        <pt x="81" y="-26" on="0"/>
        <pt x="137" y="-26" on="1"/>
        <pt x="156" y="-25" on="0"/>
        <pt x="204" y="-15" on="0"/>
        <pt x="318" y="43" on="0"/>
        <pt x="370" y="91" on="1"/>
        <pt x="378" y="101" on="0"/>
        <pt x="383" y="101" on="1"/>
        <pt x="389" y="100" on="0"/>
        <pt x="389" y="93" on="1"/>
        <pt x="389" y="76" on="0"/>
        <pt x="295" y="6" on="0"/>
        <pt x="154" y="-54" on="0"/>
        <pt x="101" y="-54" on="1"/>
        <pt x="25" y="-54" on="0"/>
        <pt x="-3" y="-2" on="1"/>
        <pt x="-14" y="19" on="0"/>
        <pt x="-14" y="46" on="1"/>
        <pt x="-14" y="112" on="0"/>
        <pt x="139" y="277" on="0"/>
        <pt x="261" y="333" on="1"/>
        <pt x="214" y="323" on="0"/>
        <pt x="174" y="323" on="1"/>
        <pt x="48" y="323" on="0"/>
        <pt x="48" y="393" on="1"/>
        <pt x="48" y="436" on="0"/>
        <pt x="142" y="557" on="0"/>
        <pt x="275" y="661" on="0"/>
        <pt x="430" y="736" on="0"/>
        <pt x="485" y="736" on="1"/>
        <pt x="570" y="736" on="0"/>
        <pt x="570" y="678" on="1"/>
        <pt x="570" y="672" on="0"/>
        <pt x="569" y="669" on="1"/>
        <pt x="613" y="683" on="0"/>
        <pt x="657" y="683" on="0"/>
        <pt x="669" y="680" on="0"/>
        <pt x="669" y="658" on="0"/>
        <pt x="661" y="656" on="1"/>
        <pt x="615" y="656" on="0"/>
        <pt x="561" y="639" on="1"/>
        <pt x="539" y="586" on="0"/>
        <pt x="428" y="495" on="0"/>
      </contour>
      <contour>
        <pt x="384" y="523" on="1"/>
        <pt x="384" y="514" on="0"/>
        <pt x="400" y="514" on="1"/>
        <pt x="430" y="514" on="0"/>
        <pt x="512" y="587" on="0"/>
        <pt x="530" y="628" on="1"/>
        <pt x="472" y="604" on="0"/>
        <pt x="384" y="539" on="0"/>
      </contour>
      <contour>
        <pt x="468" y="851" on="1"/>
        <pt x="483" y="851" on="0"/>
        <pt x="483" y="821" on="0"/>
        <pt x="455" y="790" on="0"/>
        <pt x="438" y="790" on="1"/>
        <pt x="424" y="790" on="0"/>
        <pt x="424" y="829" on="0"/>
        <pt x="456" y="851" on="0"/>
      </contour>
      <contour>
        <pt x="573" y="841" on="1"/>
        <pt x="588" y="841" on="0"/>
        <pt x="588" y="811" on="0"/>
        <pt x="560" y="780" on="0"/>
        <pt x="543" y="780" on="1"/>
        <pt x="529" y="780" on="0"/>
        <pt x="529" y="819" on="0"/>
        <pt x="561" y="841" on="0"/>
      </contour>
    </TTGlyph>
    <TTGlyph name="Egrave" xMin="-14" yMin="-54" xMax="669" yMax="857">
      <contour>
        <pt x="378" y="495" on="1"/>
        <pt x="351" y="495" on="0"/>
        <pt x="351" y="511" on="1"/>
        <pt x="351" y="536" on="0"/>
        <pt x="468" y="631" on="0"/>
        <pt x="539" y="659" on="1"/>
        <pt x="540" y="661" on="0"/>
        <pt x="540" y="666" on="1"/>
        <pt x="540" y="711" on="0"/>
        <pt x="416" y="711" on="0"/>
        <pt x="235" y="604" on="0"/>
        <pt x="99" y="459" on="0"/>
        <pt x="99" y="409" on="1"/>
        <pt x="99" y="346" on="0"/>
        <pt x="215" y="346" on="1"/>
        <pt x="283" y="346" on="0"/>
        <pt x="332" y="378" on="1"/>
        <pt x="335" y="382" on="0"/>
        <pt x="339" y="382" on="1"/>
        <pt x="346" y="382" on="0"/>
        <pt x="346" y="361" on="0"/>
        <pt x="339" y="358" on="1"/>
        <pt x="214" y="301" on="0"/>
        <pt x="132" y="228" on="1"/>
        <pt x="97" y="197" on="0"/>
        <pt x="40" y="104" on="0"/>
        <pt x="40" y="25" on="0"/>
        <pt x="81" y="-26" on="0"/>
        <pt x="137" y="-26" on="1"/>
        <pt x="156" y="-25" on="0"/>
        <pt x="204" y="-15" on="0"/>
        <pt x="318" y="43" on="0"/>
        <pt x="370" y="91" on="1"/>
        <pt x="378" y="101" on="0"/>
        <pt x="383" y="101" on="1"/>
        <pt x="389" y="100" on="0"/>
        <pt x="389" y="93" on="1"/>
        <pt x="389" y="76" on="0"/>
        <pt x="295" y="6" on="0"/>
        <pt x="154" y="-54" on="0"/>
        <pt x="101" y="-54" on="1"/>
        <pt x="25" y="-54" on="0"/>
        <pt x="-3" y="-2" on="1"/>
        <pt x="-14" y="19" on="0"/>
        <pt x="-14" y="46" on="1"/>
        <pt x="-14" y="112" on="0"/>
        <pt x="139" y="277" on="0"/>
        <pt x="261" y="333" on="1"/>
        <pt x="214" y="323" on="0"/>
        <pt x="174" y="323" on="1"/>
        <pt x="48" y="323" on="0"/>
        <pt x="48" y="393" on="1"/>
        <pt x="48" y="436" on="0"/>
        <pt x="142" y="557" on="0"/>
        <pt x="275" y="661" on="0"/>
        <pt x="430" y="736" on="0"/>
        <pt x="485" y="736" on="1"/>
        <pt x="570" y="736" on="0"/>
        <pt x="570" y="678" on="1"/>
        <pt x="570" y="672" on="0"/>
        <pt x="569" y="669" on="1"/>
        <pt x="613" y="683" on="0"/>
        <pt x="657" y="683" on="0"/>
        <pt x="669" y="680" on="0"/>
        <pt x="669" y="658" on="0"/>
        <pt x="661" y="656" on="1"/>
        <pt x="615" y="656" on="0"/>
        <pt x="561" y="639" on="1"/>
        <pt x="539" y="586" on="0"/>
        <pt x="428" y="495" on="0"/>
      </contour>
      <contour>
        <pt x="384" y="523" on="1"/>
        <pt x="384" y="514" on="0"/>
        <pt x="400" y="514" on="1"/>
        <pt x="430" y="514" on="0"/>
        <pt x="512" y="587" on="0"/>
        <pt x="530" y="628" on="1"/>
        <pt x="472" y="604" on="0"/>
        <pt x="384" y="539" on="0"/>
      </contour>
      <contour>
        <pt x="589" y="770" on="1"/>
        <pt x="585" y="770" on="0"/>
        <pt x="573" y="776" on="1"/>
        <pt x="488" y="830" on="1"/>
        <pt x="482" y="836" on="0"/>
        <pt x="482" y="843" on="1"/>
        <pt x="482" y="857" on="0"/>
        <pt x="496" y="857" on="1"/>
        <pt x="502" y="857" on="0"/>
        <pt x="506" y="853" on="1"/>
        <pt x="585" y="788" on="1"/>
        <pt x="599" y="774" on="0"/>
      </contour>
    </TTGlyph>
    <TTGlyph name="Eth" xMin="-136" yMin="-63" xMax="729" yMax="737">
      <contour>
        <pt x="558" y="84" on="1"/>
        <pt x="558" y="45" on="0"/>
        <pt x="505" y="32" on="1"/>
        <pt x="502" y="32" on="0"/>
        <pt x="502" y="40" on="0"/>
        <pt x="509" y="45" on="1"/>
        <pt x="529" y="60" on="0"/>
        <pt x="529" y="78" on="1"/>
        <pt x="529" y="113" on="0"/>
        <pt x="471" y="130" on="1"/>
        <pt x="374" y="42" on="0"/>
        <pt x="162" y="-63" on="0"/>
        <pt x="69" y="-63" on="1"/>
        <pt x="-2" y="-63" on="0"/>
        <pt x="-2" y="36" on="0"/>
        <pt x="126" y="121" on="0"/>
        <pt x="304" y="165" on="0"/>
        <pt x="434" y="165" on="0"/>
        <pt x="466" y="158" on="1"/>
        <pt x="564" y="253" on="0"/>
        <pt x="688" y="460" on="0"/>
        <pt x="688" y="617" on="0"/>
        <pt x="571" y="703" on="0"/>
        <pt x="335" y="703" on="0"/>
        <pt x="82" y="618" on="0"/>
        <pt x="-94" y="480" on="0"/>
        <pt x="-94" y="413" on="1"/>
        <pt x="-94" y="375" on="0"/>
        <pt x="-47" y="375" on="1"/>
        <pt x="20" y="375" on="0"/>
        <pt x="150" y="442" on="0"/>
        <pt x="255" y="530" on="1"/>
        <pt x="268" y="545" on="0"/>
        <pt x="274" y="545" on="1"/>
        <pt x="284" y="545" on="0"/>
        <pt x="284" y="538" on="1"/>
        <pt x="284" y="536" on="0"/>
        <pt x="277" y="524" on="1"/>
        <pt x="251" y="498" on="0"/>
        <pt x="157" y="424" on="0"/>
        <pt x="77" y="374" on="0"/>
        <pt x="-24" y="334" on="0"/>
        <pt x="-65" y="334" on="1"/>
        <pt x="-136" y="334" on="0"/>
        <pt x="-136" y="397" on="1"/>
        <pt x="-136" y="468" on="0"/>
        <pt x="67" y="630" on="0"/>
        <pt x="359" y="737" on="0"/>
        <pt x="609" y="737" on="0"/>
        <pt x="729" y="643" on="0"/>
        <pt x="729" y="475" on="0"/>
        <pt x="598" y="251" on="0"/>
        <pt x="494" y="151" on="1"/>
        <pt x="558" y="131" on="0"/>
      </contour>
      <contour>
        <pt x="442" y="136" on="1"/>
        <pt x="409" y="141" on="0"/>
        <pt x="302" y="141" on="0"/>
        <pt x="154" y="107" on="0"/>
        <pt x="47" y="35" on="0"/>
        <pt x="47" y="-10" on="1"/>
        <pt x="47" y="-43" on="0"/>
        <pt x="90" y="-43" on="1"/>
        <pt x="166" y="-43" on="0"/>
        <pt x="353" y="55" on="0"/>
      </contour>
      <contour>
        <pt x="442" y="646" on="1"/>
        <pt x="442" y="638" on="0"/>
        <pt x="260" y="321" on="1"/>
        <pt x="297" y="321" on="1"/>
        <pt x="373" y="320" on="0"/>
        <pt x="373" y="311" on="0"/>
        <pt x="352" y="295" on="0"/>
        <pt x="324" y="297" on="0"/>
        <pt x="247" y="297" on="1"/>
        <pt x="195" y="206" on="0"/>
        <pt x="171" y="166" on="1"/>
        <pt x="165" y="153" on="0"/>
        <pt x="133" y="139" on="0"/>
        <pt x="116" y="139" on="0"/>
        <pt x="116" y="148" on="0"/>
        <pt x="202" y="297" on="1"/>
        <pt x="150" y="296" on="0"/>
        <pt x="89" y="288" on="1"/>
        <pt x="84" y="288" on="0"/>
        <pt x="84" y="291" on="1"/>
        <pt x="98" y="308" on="1"/>
        <pt x="116" y="315" on="0"/>
        <pt x="215" y="319" on="1"/>
        <pt x="393" y="626" on="0"/>
        <pt x="392" y="627" on="1"/>
        <pt x="398" y="637" on="0"/>
        <pt x="412" y="642" on="1"/>
        <pt x="437" y="650" on="1"/>
      </contour>
    </TTGlyph>
    <TTGlyph name="Euro" xMin="-123" yMin="-34" xMax="624" yMax="713">
      <contour>
        <pt x="-80" y="309" on="1"/>
        <pt x="-73" y="312" on="0"/>
        <pt x="-10" y="317" on="1"/>
        <pt x="38" y="425" on="0"/>
        <pt x="228" y="612" on="0"/>
        <pt x="426" y="713" on="0"/>
        <pt x="501" y="713" on="1"/>
        <pt x="624" y="713" on="0"/>
        <pt x="624" y="612" on="1"/>
        <pt x="624" y="544" on="0"/>
        <pt x="519" y="369" on="0"/>
        <pt x="360" y="243" on="0"/>
        <pt x="293" y="243" on="1"/>
        <pt x="239" y="243" on="0"/>
        <pt x="239" y="294" on="1"/>
        <pt x="239" y="359" on="0"/>
        <pt x="408" y="550" on="0"/>
        <pt x="468" y="550" on="1"/>
        <pt x="476" y="550" on="0"/>
        <pt x="476" y="544" on="1"/>
        <pt x="471" y="531" on="1"/>
        <pt x="435" y="531" on="0"/>
        <pt x="337" y="449" on="0"/>
        <pt x="269" y="341" on="0"/>
        <pt x="269" y="305" on="1"/>
        <pt x="269" y="265" on="0"/>
        <pt x="359" y="265" on="0"/>
        <pt x="489" y="381" on="0"/>
        <pt x="581" y="543" on="0"/>
        <pt x="581" y="603" on="1"/>
        <pt x="581" y="689" on="0"/>
        <pt x="377" y="689" on="0"/>
        <pt x="89" y="469" on="0"/>
        <pt x="24" y="319" on="1"/>
        <pt x="64" y="322" on="0"/>
        <pt x="119" y="322" on="1"/>
        <pt x="147" y="322" on="1"/>
        <pt x="195" y="321" on="0"/>
        <pt x="195" y="312" on="0"/>
        <pt x="174" y="296" on="0"/>
        <pt x="146" y="298" on="0"/>
        <pt x="30" y="298" on="0"/>
        <pt x="15" y="297" on="1"/>
        <pt x="3" y="261" on="1"/>
        <pt x="53" y="263" on="0"/>
        <pt x="90" y="263" on="1"/>
        <pt x="118" y="263" on="1"/>
        <pt x="166" y="262" on="0"/>
        <pt x="166" y="253" on="0"/>
        <pt x="145" y="237" on="0"/>
        <pt x="117" y="239" on="0"/>
        <pt x="38" y="239" on="1"/>
        <pt x="-2" y="239" on="1"/>
        <pt x="-13" y="193" on="0"/>
        <pt x="-13" y="150" on="1"/>
        <pt x="-13" y="-8" on="0"/>
        <pt x="127" y="-8" on="1"/>
        <pt x="200" y="-8" on="0"/>
        <pt x="370" y="71" on="0"/>
        <pt x="399" y="108" on="1"/>
        <pt x="407" y="108" on="0"/>
        <pt x="407" y="96" on="1"/>
        <pt x="407" y="81" on="0"/>
        <pt x="314" y="19" on="0"/>
        <pt x="167" y="-34" on="0"/>
        <pt x="106" y="-34" on="1"/>
        <pt x="-50" y="-34" on="0"/>
        <pt x="-50" y="139" on="1"/>
        <pt x="-50" y="184" on="0"/>
        <pt x="-37" y="238" on="1"/>
        <pt x="-57" y="237" on="0"/>
        <pt x="-118" y="230" on="1"/>
        <pt x="-123" y="230" on="0"/>
        <pt x="-123" y="233" on="1"/>
        <pt x="-109" y="250" on="1"/>
        <pt x="-99" y="254" on="0"/>
        <pt x="-31" y="259" on="1"/>
        <pt x="-21" y="288" on="0"/>
        <pt x="-18" y="296" on="1"/>
        <pt x="-24" y="296" on="0"/>
        <pt x="-89" y="289" on="1"/>
        <pt x="-94" y="289" on="0"/>
        <pt x="-94" y="292" on="1"/>
      </contour>
    </TTGlyph>
    <TTGlyph name="F" xMin="-128" yMin="-23" xMax="930" yMax="704">
      <contour>
        <pt x="527" y="662" on="1"/>
        <pt x="438" y="663" on="1"/>
        <pt x="428" y="663" on="1"/>
        <pt x="322" y="663" on="0"/>
        <pt x="117" y="603" on="0"/>
        <pt x="-22" y="516" on="0"/>
        <pt x="-107" y="424" on="0"/>
        <pt x="-107" y="391" on="1"/>
        <pt x="-107" y="346" on="0"/>
        <pt x="30" y="346" on="0"/>
        <pt x="225" y="439" on="0"/>
        <pt x="291" y="510" on="1"/>
        <pt x="302" y="521" on="0"/>
        <pt x="306" y="521" on="1"/>
        <pt x="308" y="521" on="0"/>
        <pt x="308" y="515" on="0"/>
        <pt x="307" y="513" on="1"/>
        <pt x="279" y="447" on="0"/>
        <pt x="64" y="308" on="0"/>
        <pt x="-39" y="308" on="1"/>
        <pt x="-83" y="308" on="0"/>
        <pt x="-128" y="344" on="0"/>
        <pt x="-128" y="419" on="0"/>
        <pt x="-45" y="528" on="0"/>
        <pt x="99" y="630" on="0"/>
        <pt x="330" y="700" on="0"/>
        <pt x="459" y="700" on="1"/>
        <pt x="883" y="700" on="0"/>
        <pt x="911" y="704" on="0"/>
        <pt x="930" y="704" on="0"/>
        <pt x="930" y="696" on="0"/>
        <pt x="909" y="679" on="0"/>
        <pt x="858" y="662" on="0"/>
        <pt x="826" y="662" on="1"/>
        <pt x="676" y="662" on="0"/>
      </contour>
      <contour>
        <pt x="491" y="618" on="1"/>
        <pt x="491" y="616" on="0"/>
        <pt x="489" y="612" on="1"/>
        <pt x="290" y="226" on="1"/>
        <pt x="372" y="228" on="0"/>
        <pt x="408" y="228" on="1"/>
        <pt x="446" y="228" on="1"/>
        <pt x="511" y="227" on="0"/>
        <pt x="511" y="214" on="0"/>
        <pt x="482" y="193" on="0"/>
        <pt x="469" y="193" on="1"/>
        <pt x="441" y="195" on="0"/>
        <pt x="336" y="195" on="1"/>
        <pt x="274" y="195" on="1"/>
        <pt x="176" y="4" on="1"/>
        <pt x="170" y="-9" on="0"/>
        <pt x="138" y="-23" on="0"/>
        <pt x="121" y="-23" on="0"/>
        <pt x="121" y="-13" on="0"/>
        <pt x="230" y="194" on="1"/>
        <pt x="106" y="190" on="0"/>
        <pt x="40" y="182" on="1"/>
        <pt x="32" y="182" on="0"/>
        <pt x="32" y="186" on="1"/>
        <pt x="32" y="191" on="0"/>
        <pt x="51" y="208" on="1"/>
        <pt x="67" y="218" on="0"/>
        <pt x="246" y="224" on="1"/>
        <pt x="443" y="597" on="0"/>
        <pt x="441" y="599" on="1"/>
        <pt x="447" y="609" on="0"/>
        <pt x="461" y="614" on="1"/>
        <pt x="486" y="622" on="1"/>
      </contour>
    </TTGlyph>
    <TTGlyph name="G" xMin="-6" yMin="-317" xMax="707" yMax="732">
      <contour>
        <pt x="471" y="273" on="1"/>
        <pt x="384" y="176" on="0"/>
        <pt x="297" y="110" on="1"/>
        <pt x="254" y="78" on="0"/>
        <pt x="142" y="24" on="0"/>
        <pt x="97" y="24" on="1"/>
        <pt x="-6" y="24" on="0"/>
        <pt x="-6" y="121" on="1"/>
        <pt x="-6" y="212" on="0"/>
        <pt x="82" y="401" on="0"/>
        <pt x="219" y="549" on="0"/>
        <pt x="377" y="668" on="0"/>
        <pt x="524" y="732" on="0"/>
        <pt x="574" y="732" on="1"/>
        <pt x="639" y="732" on="0"/>
        <pt x="642" y="675" on="1"/>
        <pt x="677" y="690" on="0"/>
        <pt x="695" y="690" on="1"/>
        <pt x="707" y="687" on="0"/>
        <pt x="707" y="671" on="0"/>
        <pt x="697" y="657" on="0"/>
        <pt x="673" y="657" on="0"/>
        <pt x="639" y="645" on="1"/>
        <pt x="625" y="565" on="0"/>
        <pt x="465" y="423" on="0"/>
        <pt x="414" y="423" on="1"/>
        <pt x="388" y="423" on="0"/>
        <pt x="388" y="447" on="1"/>
        <pt x="388" y="493" on="0"/>
        <pt x="534" y="622" on="0"/>
        <pt x="616" y="663" on="1"/>
        <pt x="616" y="664" on="1"/>
        <pt x="616" y="709" on="0"/>
        <pt x="563" y="709" on="1"/>
        <pt x="520" y="709" on="0"/>
        <pt x="388" y="650" on="0"/>
        <pt x="245" y="539" on="0"/>
        <pt x="120" y="400" on="0"/>
        <pt x="39" y="219" on="0"/>
        <pt x="39" y="130" on="1"/>
        <pt x="39" y="53" on="0"/>
        <pt x="112" y="53" on="1"/>
        <pt x="271" y="53" on="0"/>
        <pt x="548" y="384" on="1"/>
        <pt x="565" y="404" on="0"/>
        <pt x="591" y="404" on="0"/>
        <pt x="591" y="399" on="0"/>
        <pt x="579" y="376" on="0"/>
        <pt x="454" y="176" on="0"/>
        <pt x="382" y="61" on="1"/>
        <pt x="196" y="-239" on="0"/>
        <pt x="180" y="-263" on="1"/>
        <pt x="177" y="-269" on="0"/>
        <pt x="177" y="-277" on="0"/>
        <pt x="186" y="-277" on="1"/>
        <pt x="211" y="-275" on="1"/>
        <pt x="219" y="-275" on="0"/>
        <pt x="219" y="-278" on="1"/>
        <pt x="219" y="-283" on="0"/>
        <pt x="161" y="-317" on="0"/>
        <pt x="137" y="-317" on="0"/>
        <pt x="137" y="-287" on="0"/>
        <pt x="158" y="-228" on="0"/>
        <pt x="323" y="31" on="0"/>
        <pt x="474" y="262" on="0"/>
        <pt x="474" y="273" on="0"/>
      </contour>
      <contour>
        <pt x="440" y="450" on="1"/>
        <pt x="477" y="450" on="0"/>
        <pt x="599" y="564" on="0"/>
        <pt x="613" y="634" on="1"/>
        <pt x="544" y="602" on="0"/>
        <pt x="425" y="500" on="0"/>
        <pt x="425" y="464" on="1"/>
        <pt x="425" y="450" on="0"/>
      </contour>
    </TTGlyph>
    <TTGlyph name="H" xMin="-8" yMin="-110" xMax="732" yMax="726">
      <contour>
        <pt x="558" y="176" on="1"/>
        <pt x="565" y="176" on="0"/>
        <pt x="565" y="162" on="0"/>
        <pt x="554" y="157" on="1"/>
        <pt x="486" y="123" on="0"/>
        <pt x="394" y="120" on="1"/>
        <pt x="346" y="28" on="0"/>
        <pt x="344" y="23" on="0"/>
        <pt x="337" y="8" on="0"/>
        <pt x="334" y="4" on="1"/>
        <pt x="328" y="-6" on="0"/>
        <pt x="321" y="-6" on="1"/>
        <pt x="303" y="-6" on="0"/>
        <pt x="303" y="19" on="1"/>
        <pt x="303" y="72" on="0"/>
        <pt x="290" y="127" on="1"/>
        <pt x="235" y="135" on="0"/>
        <pt x="189" y="152" on="1"/>
        <pt x="54" y="-89" on="1"/>
        <pt x="33" y="-104" on="1"/>
        <pt x="21" y="-110" on="0"/>
        <pt x="14" y="-110" on="1"/>
        <pt x="5" y="-110" on="0"/>
        <pt x="5" y="-100" on="1"/>
        <pt x="5" y="-94" on="0"/>
        <pt x="9" y="-86" on="1"/>
        <pt x="153" y="167" on="1"/>
        <pt x="80" y="200" on="0"/>
        <pt x="-8" y="303" on="0"/>
        <pt x="-8" y="366" on="1"/>
        <pt x="-8" y="449" on="0"/>
        <pt x="52" y="449" on="1"/>
        <pt x="91" y="449" on="0"/>
        <pt x="192" y="373" on="0"/>
        <pt x="235" y="310" on="1"/>
        <pt x="430" y="654" on="1"/>
        <pt x="441" y="670" on="0"/>
        <pt x="469" y="670" on="1"/>
        <pt x="476" y="670" on="0"/>
        <pt x="476" y="661" on="0"/>
        <pt x="257" y="272" on="1"/>
        <pt x="292" y="209" on="0"/>
        <pt x="308" y="141" on="1"/>
        <pt x="337" y="137" on="0"/>
        <pt x="376" y="137" on="1"/>
        <pt x="489" y="357" on="0"/>
        <pt x="683" y="704" on="1"/>
        <pt x="694" y="724" on="0"/>
        <pt x="724" y="726" on="1"/>
        <pt x="732" y="726" on="0"/>
        <pt x="732" y="715" on="0"/>
        <pt x="718" y="691" on="0"/>
        <pt x="664" y="596" on="1"/>
        <pt x="468" y="255" on="0"/>
        <pt x="404" y="137" on="1"/>
        <pt x="488" y="142" on="0"/>
      </contour>
      <contour>
        <pt x="163" y="184" on="1"/>
        <pt x="220" y="284" on="1"/>
        <pt x="182" y="341" on="0"/>
        <pt x="92" y="411" on="0"/>
        <pt x="61" y="411" on="1"/>
        <pt x="27" y="411" on="0"/>
        <pt x="27" y="370" on="1"/>
        <pt x="27" y="311" on="0"/>
        <pt x="100" y="215" on="0"/>
      </contour>
      <contour>
        <pt x="199" y="169" on="1"/>
        <pt x="239" y="153" on="0"/>
        <pt x="285" y="145" on="1"/>
        <pt x="268" y="200" on="0"/>
        <pt x="243" y="247" on="1"/>
        <pt x="200" y="171" on="0"/>
      </contour>
      <contour>
        <pt x="311" y="124" on="1"/>
        <pt x="320" y="80" on="0"/>
        <pt x="320" y="36" on="1"/>
        <pt x="321" y="25" on="1"/>
        <pt x="328" y="41" on="0"/>
        <pt x="367" y="120" on="1"/>
        <pt x="349" y="120" on="0"/>
      </contour>
    </TTGlyph>
    <TTGlyph name="I" xMin="-119" yMin="-55" xMax="701" yMax="759">
      <contour>
        <pt x="-119" y="1" on="1"/>
        <pt x="-119" y="53" on="0"/>
        <pt x="40" y="159" on="0"/>
        <pt x="273" y="224" on="0"/>
        <pt x="381" y="224" on="1"/>
        <pt x="408" y="224" on="0"/>
        <pt x="440" y="221" on="1"/>
        <pt x="660" y="427" on="0"/>
        <pt x="660" y="646" on="1"/>
        <pt x="660" y="705" on="0"/>
        <pt x="621" y="705" on="1"/>
        <pt x="597" y="705" on="0"/>
        <pt x="535" y="656" on="0"/>
        <pt x="478" y="576" on="0"/>
        <pt x="439" y="458" on="0"/>
        <pt x="439" y="327" on="0"/>
        <pt x="457" y="316" on="1"/>
        <pt x="462" y="313" on="0"/>
        <pt x="462" y="309" on="1"/>
        <pt x="454" y="292" on="0"/>
        <pt x="425" y="292" on="0"/>
        <pt x="408" y="309" on="0"/>
        <pt x="408" y="325" on="1"/>
        <pt x="408" y="413" on="0"/>
        <pt x="459" y="580" on="0"/>
        <pt x="533" y="691" on="0"/>
        <pt x="615" y="759" on="0"/>
        <pt x="647" y="759" on="1"/>
        <pt x="701" y="759" on="0"/>
        <pt x="701" y="674" on="1"/>
        <pt x="701" y="429" on="0"/>
        <pt x="471" y="217" on="1"/>
        <pt x="578" y="198" on="0"/>
        <pt x="578" y="142" on="1"/>
        <pt x="578" y="122" on="0"/>
        <pt x="527" y="79" on="0"/>
        <pt x="496" y="77" on="0"/>
        <pt x="495" y="81" on="1"/>
        <pt x="495" y="84" on="0"/>
        <pt x="506" y="91" on="1"/>
        <pt x="548" y="117" on="0"/>
        <pt x="548" y="135" on="1"/>
        <pt x="548" y="176" on="0"/>
        <pt x="435" y="185" on="1"/>
        <pt x="310" y="79" on="0"/>
        <pt x="20" y="-55" on="0"/>
        <pt x="-44" y="-55" on="1"/>
        <pt x="-76" y="-55" on="0"/>
        <pt x="-113" y="-27" on="0"/>
        <pt x="-116" y="-13" on="1"/>
      </contour>
      <contour>
        <pt x="374" y="188" on="1"/>
        <pt x="275" y="188" on="0"/>
        <pt x="66" y="140" on="0"/>
        <pt x="-79" y="58" on="0"/>
        <pt x="-80" y="15" on="1"/>
        <pt x="-77" y="-22" on="0"/>
        <pt x="-24" y="-22" on="1"/>
        <pt x="47" y="-22" on="0"/>
        <pt x="291" y="94" on="0"/>
        <pt x="402" y="187" on="1"/>
        <pt x="392" y="188" on="0"/>
      </contour>
    </TTGlyph>
    <TTGlyph name="Iacute" xMin="-119" yMin="-55" xMax="782" yMax="875">
      <contour>
        <pt x="-119" y="1" on="1"/>
        <pt x="-119" y="-5" on="0"/>
        <pt x="-108" y="-28" on="0"/>
        <pt x="-101" y="-36" on="1"/>
        <pt x="-83" y="-55" on="0"/>
        <pt x="-44" y="-55" on="1"/>
        <pt x="20" y="-55" on="0"/>
        <pt x="310" y="79" on="0"/>
        <pt x="435" y="185" on="1"/>
        <pt x="548" y="176" on="0"/>
        <pt x="548" y="135" on="1"/>
        <pt x="548" y="117" on="0"/>
        <pt x="506" y="91" on="1"/>
        <pt x="495" y="84" on="0"/>
        <pt x="495" y="81" on="1"/>
        <pt x="496" y="77" on="0"/>
        <pt x="527" y="79" on="0"/>
        <pt x="578" y="122" on="0"/>
        <pt x="578" y="142" on="1"/>
        <pt x="578" y="198" on="0"/>
        <pt x="471" y="217" on="1"/>
        <pt x="701" y="429" on="0"/>
        <pt x="701" y="674" on="1"/>
        <pt x="701" y="759" on="0"/>
        <pt x="647" y="759" on="1"/>
        <pt x="615" y="759" on="0"/>
        <pt x="533" y="691" on="0"/>
        <pt x="459" y="580" on="0"/>
        <pt x="408" y="413" on="0"/>
        <pt x="408" y="325" on="1"/>
        <pt x="408" y="309" on="0"/>
        <pt x="425" y="292" on="0"/>
        <pt x="454" y="292" on="0"/>
        <pt x="462" y="309" on="1"/>
        <pt x="462" y="313" on="0"/>
        <pt x="457" y="316" on="1"/>
        <pt x="439" y="327" on="0"/>
        <pt x="439" y="458" on="0"/>
        <pt x="478" y="576" on="0"/>
        <pt x="535" y="656" on="0"/>
        <pt x="597" y="705" on="0"/>
        <pt x="621" y="705" on="1"/>
        <pt x="660" y="705" on="0"/>
        <pt x="660" y="646" on="1"/>
        <pt x="660" y="427" on="0"/>
        <pt x="440" y="221" on="1"/>
        <pt x="409" y="224" on="0"/>
        <pt x="381" y="224" on="1"/>
        <pt x="273" y="224" on="0"/>
        <pt x="40" y="159" on="0"/>
        <pt x="-119" y="53" on="0"/>
      </contour>
      <contour>
        <pt x="374" y="188" on="1"/>
        <pt x="392" y="188" on="0"/>
        <pt x="402" y="187" on="1"/>
        <pt x="291" y="94" on="0"/>
        <pt x="47" y="-22" on="0"/>
        <pt x="-24" y="-22" on="1"/>
        <pt x="-77" y="-22" on="0"/>
        <pt x="-80" y="15" on="1"/>
        <pt x="-79" y="58" on="0"/>
        <pt x="66" y="140" on="0"/>
        <pt x="275" y="188" on="0"/>
      </contour>
      <contour>
        <pt x="675" y="788" on="1"/>
        <pt x="670" y="790" on="0"/>
        <pt x="670" y="794" on="1"/>
        <pt x="671" y="798" on="0"/>
        <pt x="679" y="806" on="1"/>
        <pt x="758" y="871" on="1"/>
        <pt x="762" y="875" on="0"/>
        <pt x="768" y="875" on="1"/>
        <pt x="782" y="875" on="0"/>
        <pt x="782" y="861" on="1"/>
        <pt x="782" y="854" on="0"/>
        <pt x="776" y="848" on="1"/>
        <pt x="691" y="794" on="1"/>
        <pt x="679" y="788" on="0"/>
      </contour>
    </TTGlyph>
    <TTGlyph name="Icircumflex" xMin="-119" yMin="-55" xMax="751" yMax="866">
      <contour>
        <pt x="-119" y="1" on="1"/>
        <pt x="-119" y="53" on="0"/>
        <pt x="40" y="159" on="0"/>
        <pt x="273" y="224" on="0"/>
        <pt x="381" y="224" on="1"/>
        <pt x="408" y="224" on="0"/>
        <pt x="440" y="221" on="1"/>
        <pt x="660" y="427" on="0"/>
        <pt x="660" y="646" on="1"/>
        <pt x="660" y="705" on="0"/>
        <pt x="621" y="705" on="1"/>
        <pt x="597" y="705" on="0"/>
        <pt x="535" y="656" on="0"/>
        <pt x="478" y="576" on="0"/>
        <pt x="439" y="458" on="0"/>
        <pt x="439" y="327" on="0"/>
        <pt x="457" y="316" on="1"/>
        <pt x="462" y="313" on="0"/>
        <pt x="462" y="309" on="1"/>
        <pt x="454" y="292" on="0"/>
        <pt x="425" y="292" on="0"/>
        <pt x="408" y="309" on="0"/>
        <pt x="408" y="325" on="1"/>
        <pt x="408" y="413" on="0"/>
        <pt x="459" y="580" on="0"/>
        <pt x="533" y="691" on="0"/>
        <pt x="615" y="759" on="0"/>
        <pt x="647" y="759" on="1"/>
        <pt x="701" y="759" on="0"/>
        <pt x="701" y="674" on="1"/>
        <pt x="701" y="429" on="0"/>
        <pt x="471" y="217" on="1"/>
        <pt x="578" y="198" on="0"/>
        <pt x="578" y="142" on="1"/>
        <pt x="578" y="122" on="0"/>
        <pt x="527" y="79" on="0"/>
        <pt x="496" y="77" on="0"/>
        <pt x="495" y="81" on="1"/>
        <pt x="495" y="84" on="0"/>
        <pt x="506" y="91" on="1"/>
        <pt x="548" y="117" on="0"/>
        <pt x="548" y="135" on="1"/>
        <pt x="548" y="176" on="0"/>
        <pt x="435" y="185" on="1"/>
        <pt x="310" y="79" on="0"/>
        <pt x="20" y="-55" on="0"/>
        <pt x="-44" y="-55" on="1"/>
        <pt x="-76" y="-55" on="0"/>
        <pt x="-113" y="-27" on="0"/>
        <pt x="-116" y="-13" on="1"/>
      </contour>
      <contour>
        <pt x="374" y="188" on="1"/>
        <pt x="275" y="188" on="0"/>
        <pt x="66" y="140" on="0"/>
        <pt x="-79" y="58" on="0"/>
        <pt x="-80" y="15" on="1"/>
        <pt x="-77" y="-22" on="0"/>
        <pt x="-24" y="-22" on="1"/>
        <pt x="47" y="-22" on="0"/>
        <pt x="291" y="94" on="0"/>
        <pt x="402" y="187" on="1"/>
        <pt x="392" y="188" on="0"/>
      </contour>
      <contour>
        <pt x="694" y="832" on="1"/>
        <pt x="582" y="777" on="0"/>
        <pt x="564" y="777" on="0"/>
        <pt x="564" y="786" on="0"/>
        <pt x="698" y="866" on="0"/>
        <pt x="706" y="866" on="1"/>
        <pt x="714" y="866" on="0"/>
        <pt x="747" y="782" on="0"/>
        <pt x="751" y="773" on="1"/>
        <pt x="748" y="767" on="0"/>
        <pt x="743" y="767" on="1"/>
        <pt x="735" y="767" on="0"/>
        <pt x="704" y="816" on="1"/>
      </contour>
    </TTGlyph>
    <TTGlyph name="Idieresis" xMin="-119" yMin="-55" xMax="758" yMax="868">
      <contour>
        <pt x="-119" y="1" on="1"/>
        <pt x="-119" y="53" on="0"/>
        <pt x="40" y="159" on="0"/>
        <pt x="273" y="224" on="0"/>
        <pt x="381" y="224" on="1"/>
        <pt x="408" y="224" on="0"/>
        <pt x="440" y="221" on="1"/>
        <pt x="660" y="427" on="0"/>
        <pt x="660" y="646" on="1"/>
        <pt x="660" y="705" on="0"/>
        <pt x="621" y="705" on="1"/>
        <pt x="597" y="705" on="0"/>
        <pt x="535" y="656" on="0"/>
        <pt x="478" y="576" on="0"/>
        <pt x="439" y="458" on="0"/>
        <pt x="439" y="327" on="0"/>
        <pt x="457" y="316" on="1"/>
        <pt x="462" y="313" on="0"/>
        <pt x="462" y="309" on="1"/>
        <pt x="454" y="292" on="0"/>
        <pt x="425" y="292" on="0"/>
        <pt x="408" y="309" on="0"/>
        <pt x="408" y="325" on="1"/>
        <pt x="408" y="413" on="0"/>
        <pt x="459" y="580" on="0"/>
        <pt x="533" y="691" on="0"/>
        <pt x="615" y="759" on="0"/>
        <pt x="647" y="759" on="1"/>
        <pt x="701" y="759" on="0"/>
        <pt x="701" y="674" on="1"/>
        <pt x="701" y="429" on="0"/>
        <pt x="471" y="217" on="1"/>
        <pt x="578" y="198" on="0"/>
        <pt x="578" y="142" on="1"/>
        <pt x="578" y="122" on="0"/>
        <pt x="527" y="79" on="0"/>
        <pt x="496" y="77" on="0"/>
        <pt x="495" y="81" on="1"/>
        <pt x="495" y="84" on="0"/>
        <pt x="506" y="91" on="1"/>
        <pt x="548" y="117" on="0"/>
        <pt x="548" y="135" on="1"/>
        <pt x="548" y="176" on="0"/>
        <pt x="435" y="185" on="1"/>
        <pt x="310" y="79" on="0"/>
        <pt x="20" y="-55" on="0"/>
        <pt x="-44" y="-55" on="1"/>
        <pt x="-76" y="-55" on="0"/>
        <pt x="-113" y="-27" on="0"/>
        <pt x="-116" y="-13" on="1"/>
      </contour>
      <contour>
        <pt x="374" y="188" on="1"/>
        <pt x="275" y="188" on="0"/>
        <pt x="66" y="140" on="0"/>
        <pt x="-79" y="58" on="0"/>
        <pt x="-80" y="15" on="1"/>
        <pt x="-77" y="-22" on="0"/>
        <pt x="-24" y="-22" on="1"/>
        <pt x="47" y="-22" on="0"/>
        <pt x="291" y="94" on="0"/>
        <pt x="402" y="187" on="1"/>
        <pt x="392" y="188" on="0"/>
      </contour>
      <contour>
        <pt x="638" y="868" on="1"/>
        <pt x="653" y="868" on="0"/>
        <pt x="653" y="838" on="0"/>
        <pt x="625" y="807" on="0"/>
        <pt x="608" y="807" on="1"/>
        <pt x="594" y="807" on="0"/>
        <pt x="594" y="846" on="0"/>
        <pt x="626" y="868" on="0"/>
      </contour>
      <contour>
        <pt x="743" y="858" on="1"/>
        <pt x="758" y="858" on="0"/>
        <pt x="758" y="828" on="0"/>
        <pt x="730" y="797" on="0"/>
        <pt x="713" y="797" on="1"/>
        <pt x="699" y="797" on="0"/>
        <pt x="699" y="836" on="0"/>
        <pt x="731" y="858" on="0"/>
      </contour>
    </TTGlyph>
    <TTGlyph name="Igrave" xMin="-119" yMin="-55" xMax="724" yMax="874">
      <contour>
        <pt x="-119" y="1" on="1"/>
        <pt x="-119" y="53" on="0"/>
        <pt x="40" y="159" on="0"/>
        <pt x="273" y="224" on="0"/>
        <pt x="381" y="224" on="1"/>
        <pt x="408" y="224" on="0"/>
        <pt x="440" y="221" on="1"/>
        <pt x="660" y="427" on="0"/>
        <pt x="660" y="646" on="1"/>
        <pt x="660" y="705" on="0"/>
        <pt x="621" y="705" on="1"/>
        <pt x="597" y="705" on="0"/>
        <pt x="535" y="656" on="0"/>
        <pt x="478" y="576" on="0"/>
        <pt x="439" y="458" on="0"/>
        <pt x="439" y="327" on="0"/>
        <pt x="457" y="316" on="1"/>
        <pt x="462" y="313" on="0"/>
        <pt x="462" y="309" on="1"/>
        <pt x="454" y="292" on="0"/>
        <pt x="425" y="292" on="0"/>
        <pt x="408" y="309" on="0"/>
        <pt x="408" y="325" on="1"/>
        <pt x="408" y="413" on="0"/>
        <pt x="459" y="580" on="0"/>
        <pt x="533" y="691" on="0"/>
        <pt x="615" y="759" on="0"/>
        <pt x="647" y="759" on="1"/>
        <pt x="701" y="759" on="0"/>
        <pt x="701" y="674" on="1"/>
        <pt x="701" y="429" on="0"/>
        <pt x="471" y="217" on="1"/>
        <pt x="578" y="198" on="0"/>
        <pt x="578" y="142" on="1"/>
        <pt x="578" y="122" on="0"/>
        <pt x="527" y="79" on="0"/>
        <pt x="496" y="77" on="0"/>
        <pt x="495" y="81" on="1"/>
        <pt x="495" y="84" on="0"/>
        <pt x="506" y="91" on="1"/>
        <pt x="548" y="117" on="0"/>
        <pt x="548" y="135" on="1"/>
        <pt x="548" y="176" on="0"/>
        <pt x="435" y="185" on="1"/>
        <pt x="310" y="79" on="0"/>
        <pt x="20" y="-55" on="0"/>
        <pt x="-44" y="-55" on="1"/>
        <pt x="-76" y="-55" on="0"/>
        <pt x="-113" y="-27" on="0"/>
        <pt x="-116" y="-13" on="1"/>
      </contour>
      <contour>
        <pt x="374" y="188" on="1"/>
        <pt x="275" y="188" on="0"/>
        <pt x="66" y="140" on="0"/>
        <pt x="-79" y="58" on="0"/>
        <pt x="-80" y="15" on="1"/>
        <pt x="-77" y="-22" on="0"/>
        <pt x="-24" y="-22" on="1"/>
        <pt x="47" y="-22" on="0"/>
        <pt x="291" y="94" on="0"/>
        <pt x="402" y="187" on="1"/>
        <pt x="392" y="188" on="0"/>
      </contour>
      <contour>
        <pt x="724" y="787" on="1"/>
        <pt x="720" y="787" on="0"/>
        <pt x="708" y="793" on="1"/>
        <pt x="623" y="847" on="1"/>
        <pt x="617" y="853" on="0"/>
        <pt x="617" y="860" on="1"/>
        <pt x="617" y="874" on="0"/>
        <pt x="631" y="874" on="1"/>
        <pt x="637" y="874" on="0"/>
        <pt x="641" y="870" on="1"/>
        <pt x="720" y="805" on="1"/>
        <pt x="734" y="791" on="0"/>
      </contour>
    </TTGlyph>
    <TTGlyph name="J" xMin="-118" yMin="-422" xMax="605" yMax="696">
      <contour>
        <pt x="439" y="76" on="1"/>
        <pt x="386" y="76" on="0"/>
        <pt x="330" y="60" on="1"/>
        <pt x="200" y="-143" on="0"/>
        <pt x="-31" y="-422" on="0"/>
        <pt x="-83" y="-422" on="1"/>
        <pt x="-118" y="-422" on="0"/>
        <pt x="-118" y="-345" on="0"/>
        <pt x="-50" y="-217" on="0"/>
        <pt x="61" y="-82" on="0"/>
        <pt x="222" y="43" on="0"/>
        <pt x="305" y="74" on="1"/>
        <pt x="408" y="250" on="0"/>
        <pt x="556" y="562" on="0"/>
        <pt x="556" y="607" on="1"/>
        <pt x="556" y="666" on="0"/>
        <pt x="465" y="666" on="0"/>
        <pt x="309" y="556" on="0"/>
        <pt x="163" y="404" on="0"/>
        <pt x="56" y="230" on="0"/>
        <pt x="56" y="124" on="0"/>
        <pt x="107" y="124" on="1"/>
        <pt x="161" y="124" on="0"/>
        <pt x="296" y="252" on="0"/>
        <pt x="307" y="297" on="1"/>
        <pt x="309" y="304" on="0"/>
        <pt x="324" y="304" on="0"/>
        <pt x="324" y="297" on="1"/>
        <pt x="324" y="244" on="0"/>
        <pt x="138" y="93" on="0"/>
        <pt x="73" y="93" on="1"/>
        <pt x="21" y="93" on="0"/>
        <pt x="21" y="220" on="0"/>
        <pt x="140" y="412" on="0"/>
        <pt x="303" y="578" on="0"/>
        <pt x="482" y="696" on="0"/>
        <pt x="538" y="696" on="1"/>
        <pt x="605" y="696" on="0"/>
        <pt x="605" y="609" on="1"/>
        <pt x="605" y="557" on="0"/>
        <pt x="457" y="261" on="0"/>
        <pt x="348" y="88" on="1"/>
        <pt x="405" y="103" on="0"/>
        <pt x="470" y="103" on="0"/>
        <pt x="505" y="84" on="0"/>
        <pt x="505" y="69" on="1"/>
        <pt x="505" y="37" on="0"/>
        <pt x="464" y="-17" on="0"/>
        <pt x="437" y="-17" on="1"/>
        <pt x="433" y="-17" on="0"/>
        <pt x="433" y="-14" on="1"/>
        <pt x="433" y="-4" on="0"/>
        <pt x="447" y="3" on="1"/>
        <pt x="466" y="20" on="0"/>
        <pt x="466" y="76" on="0"/>
      </contour>
      <contour>
        <pt x="-77" y="-354" on="1"/>
        <pt x="-77" y="-377" on="0"/>
        <pt x="-59" y="-377" on="1"/>
        <pt x="-11" y="-377" on="0"/>
        <pt x="176" y="-139" on="0"/>
        <pt x="287" y="44" on="1"/>
        <pt x="190" y="5" on="0"/>
        <pt x="14" y="-162" on="0"/>
        <pt x="-77" y="-314" on="0"/>
      </contour>
    </TTGlyph>
    <TTGlyph name="K" xMin="0" yMin="-27" xMax="800" yMax="731">
      <contour>
        <pt x="469" y="694" on="1"/>
        <pt x="464" y="680" on="0"/>
        <pt x="285" y="351" on="1"/>
        <pt x="323" y="347" on="0"/>
        <pt x="358" y="333" on="1"/>
        <pt x="488" y="414" on="0"/>
        <pt x="711" y="621" on="0"/>
        <pt x="761" y="721" on="1"/>
        <pt x="762" y="731" on="0"/>
        <pt x="779" y="731" on="0"/>
        <pt x="800" y="721" on="0"/>
        <pt x="800" y="714" on="1"/>
        <pt x="761" y="618" on="0"/>
        <pt x="527" y="407" on="0"/>
        <pt x="382" y="321" on="1"/>
        <pt x="490" y="263" on="0"/>
        <pt x="490" y="116" on="1"/>
        <pt x="490" y="73" on="0"/>
        <pt x="468" y="1" on="0"/>
        <pt x="458" y="-13" on="1"/>
        <pt x="447" y="-27" on="1"/>
        <pt x="439" y="-27" on="0"/>
        <pt x="439" y="-17" on="1"/>
        <pt x="445" y="2" on="1"/>
        <pt x="459" y="45" on="0"/>
        <pt x="459" y="84" on="1"/>
        <pt x="459" y="236" on="0"/>
        <pt x="345" y="300" on="1"/>
        <pt x="290" y="270" on="0"/>
        <pt x="225" y="240" on="1"/>
        <pt x="143" y="91" on="0"/>
        <pt x="100" y="18" on="1"/>
        <pt x="93" y="1" on="0"/>
        <pt x="70" y="-9" on="0"/>
        <pt x="46" y="-9" on="0"/>
        <pt x="46" y="-5" on="1"/>
        <pt x="167" y="217" on="1"/>
        <pt x="101" y="193" on="0"/>
        <pt x="57" y="193" on="1"/>
        <pt x="0" y="193" on="0"/>
        <pt x="0" y="281" on="0"/>
        <pt x="151" y="354" on="0"/>
        <pt x="242" y="354" on="1"/>
        <pt x="419" y="679" on="1"/>
        <pt x="422" y="687" on="0"/>
        <pt x="453" y="698" on="0"/>
        <pt x="469" y="698" on="0"/>
      </contour>
      <contour>
        <pt x="212" y="332" on="1"/>
        <pt x="142" y="332" on="0"/>
        <pt x="36" y="280" on="0"/>
        <pt x="36" y="244" on="1"/>
        <pt x="36" y="213" on="0"/>
        <pt x="115" y="213" on="0"/>
        <pt x="179" y="239" on="1"/>
        <pt x="229" y="331" on="1"/>
        <pt x="223" y="332" on="0"/>
      </contour>
      <contour>
        <pt x="272" y="326" on="1"/>
        <pt x="245" y="276" on="0"/>
        <pt x="239" y="265" on="1"/>
        <pt x="270" y="280" on="0"/>
        <pt x="322" y="311" on="1"/>
        <pt x="298" y="321" on="0"/>
      </contour>
    </TTGlyph>
    <TTGlyph name="L" xMin="-306" yMin="-177" xMax="889" yMax="725">
      <contour>
        <pt x="880" y="628" on="1"/>
        <pt x="844" y="630" on="1"/>
        <pt x="832" y="630" on="1"/>
        <pt x="815" y="578" on="0"/>
        <pt x="700" y="489" on="0"/>
        <pt x="640" y="489" on="1"/>
        <pt x="607" y="489" on="0"/>
        <pt x="607" y="515" on="1"/>
        <pt x="607" y="552" on="0"/>
        <pt x="729" y="647" on="0"/>
        <pt x="814" y="655" on="1"/>
        <pt x="814" y="659" on="1"/>
        <pt x="814" y="710" on="0"/>
        <pt x="727" y="710" on="1"/>
        <pt x="593" y="710" on="0"/>
        <pt x="488" y="552" on="1"/>
        <pt x="439" y="477" on="0"/>
        <pt x="396" y="398" on="1"/>
        <pt x="262" y="147" on="0"/>
        <pt x="188" y="51" on="1"/>
        <pt x="221" y="51" on="0"/>
        <pt x="239" y="50" on="1"/>
        <pt x="403" y="45" on="1"/>
        <pt x="464" y="45" on="0"/>
        <pt x="485" y="42" on="0"/>
        <pt x="485" y="38" on="1"/>
        <pt x="485" y="9" on="0"/>
        <pt x="437" y="6" on="1"/>
        <pt x="305" y="10" on="0"/>
        <pt x="156" y="12" on="1"/>
        <pt x="-9" y="-177" on="0"/>
        <pt x="-231" y="-177" on="1"/>
        <pt x="-265" y="-177" on="0"/>
        <pt x="-306" y="-144" on="0"/>
        <pt x="-306" y="-92" on="0"/>
        <pt x="-257" y="-38" on="0"/>
        <pt x="-158" y="14" on="0"/>
        <pt x="24" y="49" on="0"/>
        <pt x="143" y="51" on="1"/>
        <pt x="222" y="158" on="0"/>
        <pt x="318" y="342" on="1"/>
        <pt x="353" y="411" on="0"/>
        <pt x="449" y="559" on="0"/>
        <pt x="540" y="660" on="0"/>
        <pt x="667" y="725" on="0"/>
        <pt x="739" y="725" on="1"/>
        <pt x="838" y="725" on="0"/>
        <pt x="838" y="660" on="1"/>
        <pt x="838" y="657" on="1"/>
        <pt x="864" y="657" on="0"/>
        <pt x="883" y="653" on="1"/>
        <pt x="889" y="651" on="0"/>
        <pt x="889" y="628" on="0"/>
      </contour>
      <contour>
        <pt x="-264" y="-74" on="1"/>
        <pt x="-287" y="-95" on="0"/>
        <pt x="-287" y="-134" on="0"/>
        <pt x="-249" y="-158" on="0"/>
        <pt x="-215" y="-158" on="1"/>
        <pt x="-31" y="-158" on="0"/>
        <pt x="112" y="12" on="1"/>
        <pt x="-175" y="9" on="0"/>
      </contour>
      <contour>
        <pt x="637" y="521" on="1"/>
        <pt x="637" y="505" on="0"/>
        <pt x="657" y="505" on="1"/>
        <pt x="693" y="505" on="0"/>
        <pt x="789" y="585" on="0"/>
        <pt x="807" y="628" on="1"/>
        <pt x="734" y="619" on="0"/>
        <pt x="637" y="548" on="0"/>
      </contour>
    </TTGlyph>
    <TTGlyph name="Lslash" xMin="-306" yMin="-177" xMax="888" yMax="725">
      <contour>
        <pt x="880" y="628" on="1"/>
        <pt x="844" y="630" on="1"/>
        <pt x="832" y="630" on="1"/>
        <pt x="814" y="578" on="0"/>
        <pt x="700" y="489" on="0"/>
        <pt x="640" y="489" on="1"/>
        <pt x="607" y="489" on="0"/>
        <pt x="607" y="515" on="1"/>
        <pt x="607" y="553" on="0"/>
        <pt x="728" y="648" on="0"/>
        <pt x="814" y="656" on="1"/>
        <pt x="814" y="658" on="1"/>
        <pt x="814" y="710" on="0"/>
        <pt x="727" y="710" on="1"/>
        <pt x="683" y="710" on="0"/>
        <pt x="627" y="686" on="1"/>
        <pt x="600" y="674" on="0"/>
        <pt x="542" y="618" on="1"/>
        <pt x="522" y="600" on="0"/>
        <pt x="454" y="501" on="0"/>
        <pt x="430" y="459" on="1"/>
        <pt x="395" y="397" on="0"/>
        <pt x="360" y="332" on="1"/>
        <pt x="441" y="349" on="0"/>
        <pt x="475" y="349" on="0"/>
        <pt x="475" y="347" on="1"/>
        <pt x="475" y="340" on="0"/>
        <pt x="458" y="322" on="0"/>
        <pt x="425" y="318" on="0"/>
        <pt x="350" y="305" on="0"/>
        <pt x="346" y="305" on="1"/>
        <pt x="253" y="134" on="0"/>
        <pt x="188" y="51" on="1"/>
        <pt x="221" y="51" on="0"/>
        <pt x="297" y="48" on="0"/>
        <pt x="454" y="44" on="0"/>
        <pt x="485" y="42" on="0"/>
        <pt x="485" y="38" on="1"/>
        <pt x="485" y="9" on="0"/>
        <pt x="437" y="6" on="1"/>
        <pt x="305" y="10" on="0"/>
        <pt x="156" y="12" on="1"/>
        <pt x="-9" y="-177" on="0"/>
        <pt x="-231" y="-177" on="1"/>
        <pt x="-265" y="-177" on="0"/>
        <pt x="-306" y="-144" on="0"/>
        <pt x="-306" y="-93" on="0"/>
        <pt x="-258" y="-39" on="0"/>
        <pt x="-158" y="13" on="0"/>
        <pt x="24" y="48" on="0"/>
        <pt x="142" y="50" on="1"/>
        <pt x="204" y="134" on="0"/>
        <pt x="291" y="294" on="1"/>
        <pt x="248" y="285" on="0"/>
        <pt x="200" y="270" on="1"/>
        <pt x="195" y="270" on="0"/>
        <pt x="195" y="274" on="0"/>
        <pt x="198" y="279" on="1"/>
        <pt x="204" y="291" on="0"/>
        <pt x="205" y="291" on="1"/>
        <pt x="254" y="305" on="0"/>
        <pt x="304" y="318" on="1"/>
        <pt x="428" y="541" on="0"/>
        <pt x="487" y="602" on="1"/>
        <pt x="572" y="688" on="0"/>
        <pt x="643" y="710" on="1"/>
        <pt x="688" y="725" on="0"/>
        <pt x="739" y="725" on="1"/>
        <pt x="837" y="725" on="0"/>
        <pt x="837" y="661" on="1"/>
        <pt x="837" y="657" on="1"/>
        <pt x="864" y="657" on="0"/>
        <pt x="883" y="653" on="1"/>
        <pt x="889" y="647" on="0"/>
        <pt x="887" y="628" on="0"/>
      </contour>
      <contour>
        <pt x="-215" y="-158" on="1"/>
        <pt x="-31" y="-158" on="0"/>
        <pt x="112" y="12" on="1"/>
        <pt x="-175" y="9" on="0"/>
        <pt x="-264" y="-74" on="1"/>
        <pt x="-287" y="-95" on="0"/>
        <pt x="-287" y="-134" on="0"/>
        <pt x="-248" y="-158" on="0"/>
      </contour>
      <contour>
        <pt x="657" y="505" on="1"/>
        <pt x="692" y="505" on="0"/>
        <pt x="789" y="585" on="0"/>
        <pt x="807" y="628" on="1"/>
        <pt x="734" y="619" on="0"/>
        <pt x="637" y="548" on="0"/>
        <pt x="637" y="521" on="1"/>
        <pt x="637" y="505" on="0"/>
      </contour>
    </TTGlyph>
    <TTGlyph name="M" xMin="-243" yMin="-16" xMax="672" yMax="695">
      <contour>
        <pt x="464" y="25" on="1"/>
        <pt x="464" y="15" on="0"/>
        <pt x="497" y="15" on="0"/>
        <pt x="581" y="54" on="0"/>
        <pt x="613" y="74" on="1"/>
        <pt x="645" y="94" on="1"/>
        <pt x="646" y="92" on="0"/>
        <pt x="646" y="80" on="0"/>
        <pt x="637" y="76" on="1"/>
        <pt x="502" y="-16" on="0"/>
        <pt x="449" y="-16" on="1"/>
        <pt x="423" y="-16" on="0"/>
        <pt x="423" y="36" on="0"/>
        <pt x="466" y="109" on="1"/>
        <pt x="642" y="415" on="1"/>
        <pt x="642" y="418" on="0"/>
        <pt x="635" y="418" on="0"/>
        <pt x="615" y="399" on="0"/>
        <pt x="270" y="47" on="0"/>
        <pt x="240" y="16" on="1"/>
        <pt x="223" y="-4" on="0"/>
        <pt x="210" y="-4" on="1"/>
        <pt x="199" y="-4" on="0"/>
        <pt x="199" y="9" on="1"/>
        <pt x="199" y="39" on="0"/>
        <pt x="462" y="438" on="0"/>
        <pt x="467" y="462" on="1"/>
        <pt x="467" y="465" on="0"/>
        <pt x="462" y="465" on="0"/>
        <pt x="433" y="436" on="0"/>
        <pt x="47" y="34" on="0"/>
        <pt x="16" y="-1" on="1"/>
        <pt x="8" y="-7" on="0"/>
        <pt x="-11" y="-7" on="0"/>
        <pt x="-11" y="2" on="1"/>
        <pt x="-11" y="9" on="0"/>
        <pt x="7" y="39" on="0"/>
        <pt x="40" y="95" on="0"/>
        <pt x="125" y="251" on="0"/>
        <pt x="190" y="389" on="0"/>
        <pt x="243" y="547" on="0"/>
        <pt x="243" y="597" on="1"/>
        <pt x="243" y="680" on="0"/>
        <pt x="171" y="680" on="1"/>
        <pt x="88" y="680" on="0"/>
        <pt x="-97" y="585" on="0"/>
        <pt x="-213" y="461" on="0"/>
        <pt x="-213" y="416" on="1"/>
        <pt x="-213" y="364" on="0"/>
        <pt x="-44" y="364" on="0"/>
        <pt x="109" y="469" on="0"/>
        <pt x="141" y="529" on="1"/>
        <pt x="146" y="535" on="0"/>
        <pt x="152" y="535" on="0"/>
        <pt x="152" y="508" on="0"/>
        <pt x="108" y="442" on="0"/>
        <pt x="37" y="375" on="0"/>
        <pt x="-72" y="327" on="0"/>
        <pt x="-129" y="327" on="1"/>
        <pt x="-243" y="327" on="0"/>
        <pt x="-243" y="402" on="1"/>
        <pt x="-243" y="443" on="0"/>
        <pt x="-171" y="544" on="0"/>
        <pt x="-55" y="634" on="0"/>
        <pt x="110" y="695" on="0"/>
        <pt x="192" y="695" on="1"/>
        <pt x="285" y="695" on="0"/>
        <pt x="285" y="598" on="1"/>
        <pt x="285" y="548" on="0"/>
        <pt x="236" y="400" on="0"/>
        <pt x="202" y="330" on="1"/>
        <pt x="133" y="193" on="0"/>
        <pt x="72" y="98" on="1"/>
        <pt x="48" y="59" on="1"/>
        <pt x="52" y="61" on="0"/>
        <pt x="146" y="159" on="1"/>
        <pt x="457" y="481" on="0"/>
        <pt x="484" y="508" on="1"/>
        <pt x="503" y="508" on="0"/>
        <pt x="511" y="498" on="0"/>
        <pt x="511" y="496" on="1"/>
        <pt x="511" y="495" on="1"/>
        <pt x="511" y="468" on="0"/>
        <pt x="330" y="184" on="1"/>
        <pt x="260" y="75" on="0"/>
        <pt x="254" y="65" on="1"/>
        <pt x="245" y="45" on="1"/>
        <pt x="253" y="45" on="0"/>
        <pt x="443" y="246" on="0"/>
        <pt x="638" y="447" on="0"/>
        <pt x="652" y="447" on="1"/>
        <pt x="658" y="447" on="0"/>
        <pt x="672" y="436" on="0"/>
        <pt x="672" y="424" on="0"/>
        <pt x="669" y="418" on="1"/>
        <pt x="490" y="94" on="1"/>
        <pt x="464" y="46" on="0"/>
      </contour>
    </TTGlyph>
    <TTGlyph name="N" xMin="-140" yMin="-16" xMax="610" yMax="720">
      <contour>
        <pt x="368" y="25" on="1"/>
        <pt x="368" y="15" on="0"/>
        <pt x="401" y="15" on="0"/>
        <pt x="485" y="54" on="0"/>
        <pt x="517" y="74" on="1"/>
        <pt x="549" y="94" on="1"/>
        <pt x="550" y="92" on="0"/>
        <pt x="550" y="80" on="0"/>
        <pt x="541" y="76" on="1"/>
        <pt x="406" y="-16" on="0"/>
        <pt x="353" y="-16" on="1"/>
        <pt x="327" y="-16" on="0"/>
        <pt x="327" y="34" on="0"/>
        <pt x="450" y="284" on="0"/>
        <pt x="512" y="398" on="1"/>
        <pt x="573" y="511" on="1"/>
        <pt x="560" y="497" on="1"/>
        <pt x="546" y="483" on="0"/>
        <pt x="138" y="24" on="1"/>
        <pt x="124" y="18" on="0"/>
        <pt x="105" y="18" on="0"/>
        <pt x="105" y="36" on="0"/>
        <pt x="123" y="64" on="0"/>
        <pt x="156" y="120" on="0"/>
        <pt x="241" y="276" on="0"/>
        <pt x="306" y="414" on="0"/>
        <pt x="359" y="572" on="0"/>
        <pt x="359" y="622" on="1"/>
        <pt x="359" y="705" on="0"/>
        <pt x="287" y="705" on="1"/>
        <pt x="203" y="705" on="0"/>
        <pt x="16" y="611" on="0"/>
        <pt x="-102" y="488" on="0"/>
        <pt x="-102" y="443" on="1"/>
        <pt x="-102" y="389" on="0"/>
        <pt x="72" y="389" on="0"/>
        <pt x="225" y="494" on="0"/>
        <pt x="257" y="554" on="1"/>
        <pt x="262" y="560" on="0"/>
        <pt x="268" y="560" on="0"/>
        <pt x="268" y="535" on="0"/>
        <pt x="220" y="470" on="0"/>
        <pt x="146" y="402" on="0"/>
        <pt x="38" y="352" on="0"/>
        <pt x="-13" y="352" on="1"/>
        <pt x="-140" y="352" on="0"/>
        <pt x="-140" y="426" on="1"/>
        <pt x="-140" y="466" on="0"/>
        <pt x="-61" y="568" on="0"/>
        <pt x="62" y="658" on="0"/>
        <pt x="229" y="720" on="0"/>
        <pt x="308" y="720" on="1"/>
        <pt x="401" y="720" on="0"/>
        <pt x="401" y="623" on="1"/>
        <pt x="401" y="544" on="0"/>
        <pt x="282" y="274" on="0"/>
        <pt x="223" y="179" on="1"/>
        <pt x="164" y="84" on="1"/>
        <pt x="168" y="86" on="0"/>
        <pt x="258" y="188" on="1"/>
        <pt x="543" y="511" on="0"/>
        <pt x="580" y="548" on="1"/>
        <pt x="587" y="548" on="0"/>
        <pt x="610" y="537" on="0"/>
        <pt x="610" y="525" on="0"/>
        <pt x="607" y="519" on="1"/>
        <pt x="368" y="54" on="0"/>
      </contour>
    </TTGlyph>
    <TTGlyph name="Ntilde" xMin="-140" yMin="-16" xMax="644" yMax="765">
      <contour>
        <pt x="368" y="25" on="1"/>
        <pt x="368" y="54" on="0"/>
        <pt x="607" y="519" on="1"/>
        <pt x="610" y="525" on="0"/>
        <pt x="610" y="537" on="0"/>
        <pt x="587" y="548" on="0"/>
        <pt x="580" y="548" on="1"/>
        <pt x="543" y="511" on="0"/>
        <pt x="168" y="86" on="0"/>
        <pt x="164" y="84" on="1"/>
        <pt x="242" y="201" on="0"/>
        <pt x="318" y="358" on="1"/>
        <pt x="350" y="422" on="0"/>
        <pt x="401" y="573" on="0"/>
        <pt x="401" y="623" on="1"/>
        <pt x="401" y="720" on="0"/>
        <pt x="308" y="720" on="1"/>
        <pt x="229" y="720" on="0"/>
        <pt x="62" y="658" on="0"/>
        <pt x="-61" y="568" on="0"/>
        <pt x="-140" y="466" on="0"/>
        <pt x="-140" y="426" on="1"/>
        <pt x="-140" y="352" on="0"/>
        <pt x="-13" y="352" on="1"/>
        <pt x="38" y="352" on="0"/>
        <pt x="146" y="402" on="0"/>
        <pt x="220" y="470" on="0"/>
        <pt x="268" y="535" on="0"/>
        <pt x="268" y="560" on="0"/>
        <pt x="265" y="560" on="1"/>
        <pt x="257" y="554" on="1"/>
        <pt x="225" y="494" on="0"/>
        <pt x="72" y="389" on="0"/>
        <pt x="-102" y="389" on="0"/>
        <pt x="-102" y="443" on="1"/>
        <pt x="-102" y="488" on="0"/>
        <pt x="16" y="611" on="0"/>
        <pt x="203" y="705" on="0"/>
        <pt x="287" y="705" on="1"/>
        <pt x="359" y="705" on="0"/>
        <pt x="359" y="622" on="1"/>
        <pt x="359" y="572" on="0"/>
        <pt x="308" y="418" on="0"/>
        <pt x="272" y="343" on="1"/>
        <pt x="196" y="185" on="0"/>
        <pt x="138" y="90" on="1"/>
        <pt x="113" y="48" on="1"/>
        <pt x="105" y="36" on="0"/>
        <pt x="105" y="18" on="0"/>
        <pt x="116" y="18" on="1"/>
        <pt x="138" y="24" on="1"/>
        <pt x="546" y="483" on="0"/>
        <pt x="560" y="497" on="1"/>
        <pt x="573" y="511" on="1"/>
        <pt x="327" y="64" on="0"/>
        <pt x="327" y="10" on="1"/>
        <pt x="327" y="-16" on="0"/>
        <pt x="377" y="-16" on="0"/>
        <pt x="471" y="30" on="0"/>
        <pt x="506" y="53" on="1"/>
        <pt x="541" y="76" on="1"/>
        <pt x="550" y="80" on="0"/>
        <pt x="550" y="89" on="1"/>
        <pt x="549" y="94" on="1"/>
        <pt x="427" y="15" on="0"/>
        <pt x="381" y="15" on="1"/>
        <pt x="368" y="15" on="0"/>
      </contour>
      <contour>
        <pt x="644" y="742" on="1"/>
        <pt x="644" y="727" on="0"/>
        <pt x="613" y="705" on="0"/>
        <pt x="575" y="705" on="0"/>
        <pt x="511" y="742" on="0"/>
        <pt x="486" y="742" on="0"/>
        <pt x="460" y="723" on="0"/>
        <pt x="455" y="723" on="1"/>
        <pt x="453" y="724" on="1"/>
        <pt x="453" y="731" on="0"/>
        <pt x="490" y="765" on="0"/>
        <pt x="528" y="765" on="0"/>
        <pt x="596" y="724" on="0"/>
        <pt x="621" y="724" on="0"/>
        <pt x="641" y="745" on="0"/>
        <pt x="644" y="745" on="0"/>
      </contour>
    </TTGlyph>
    <TTGlyph name="O" xMin="0" yMin="-24" xMax="598" yMax="704">
      <contour>
        <pt x="418" y="704" on="1"/>
        <pt x="423" y="704" on="0"/>
        <pt x="425" y="698" on="1"/>
        <pt x="425" y="690" on="0"/>
        <pt x="413" y="688" on="1"/>
        <pt x="357" y="669" on="0"/>
        <pt x="230" y="569" on="0"/>
        <pt x="117" y="428" on="0"/>
        <pt x="42" y="236" on="0"/>
        <pt x="42" y="138" on="1"/>
        <pt x="42" y="5" on="0"/>
        <pt x="136" y="5" on="1"/>
        <pt x="191" y="5" on="0"/>
        <pt x="338" y="102" on="0"/>
        <pt x="467" y="249" on="0"/>
        <pt x="557" y="447" on="0"/>
        <pt x="557" y="630" on="0"/>
        <pt x="494" y="630" on="1"/>
        <pt x="443" y="630" on="0"/>
        <pt x="305" y="521" on="0"/>
        <pt x="202" y="354" on="0"/>
        <pt x="202" y="207" on="0"/>
        <pt x="253" y="207" on="1"/>
        <pt x="285" y="207" on="0"/>
        <pt x="366" y="268" on="0"/>
        <pt x="398" y="319" on="1"/>
        <pt x="402" y="327" on="0"/>
        <pt x="413" y="327" on="0"/>
        <pt x="413" y="321" on="1"/>
        <pt x="413" y="293" on="0"/>
        <pt x="274" y="173" on="0"/>
        <pt x="224" y="173" on="1"/>
        <pt x="165" y="173" on="0"/>
        <pt x="165" y="268" on="1"/>
        <pt x="165" y="342" on="0"/>
        <pt x="289" y="531" on="0"/>
        <pt x="457" y="661" on="0"/>
        <pt x="518" y="661" on="1"/>
        <pt x="598" y="661" on="0"/>
        <pt x="598" y="542" on="1"/>
        <pt x="598" y="452" on="0"/>
        <pt x="494" y="245" on="0"/>
        <pt x="345" y="84" on="0"/>
        <pt x="175" y="-24" on="0"/>
        <pt x="111" y="-24" on="1"/>
        <pt x="0" y="-24" on="0"/>
        <pt x="0" y="134" on="1"/>
        <pt x="0" y="230" on="0"/>
        <pt x="76" y="417" on="0"/>
        <pt x="185" y="549" on="0"/>
        <pt x="306" y="653" on="0"/>
        <pt x="399" y="704" on="0"/>
      </contour>
    </TTGlyph>
    <TTGlyph name="OE" xMin="0" yMin="-54" xMax="1023" yMax="736">
      <contour>
        <pt x="398" y="319" on="1"/>
        <pt x="402" y="327" on="0"/>
        <pt x="413" y="327" on="0"/>
        <pt x="413" y="321" on="1"/>
        <pt x="413" y="293" on="0"/>
        <pt x="274" y="173" on="0"/>
        <pt x="224" y="173" on="1"/>
        <pt x="165" y="173" on="0"/>
        <pt x="165" y="268" on="1"/>
        <pt x="165" y="342" on="0"/>
        <pt x="289" y="531" on="0"/>
        <pt x="457" y="661" on="0"/>
        <pt x="518" y="661" on="1"/>
        <pt x="560" y="661" on="0"/>
        <pt x="582" y="623" on="1"/>
        <pt x="734" y="736" on="0"/>
        <pt x="839" y="736" on="1"/>
        <pt x="924" y="736" on="0"/>
        <pt x="924" y="678" on="1"/>
        <pt x="924" y="672" on="0"/>
        <pt x="923" y="669" on="1"/>
        <pt x="967" y="683" on="0"/>
        <pt x="1011" y="683" on="0"/>
        <pt x="1023" y="680" on="0"/>
        <pt x="1023" y="658" on="0"/>
        <pt x="1015" y="656" on="1"/>
        <pt x="969" y="656" on="0"/>
        <pt x="915" y="639" on="1"/>
        <pt x="893" y="586" on="0"/>
        <pt x="782" y="495" on="0"/>
        <pt x="732" y="495" on="1"/>
        <pt x="705" y="495" on="0"/>
        <pt x="705" y="511" on="1"/>
        <pt x="705" y="536" on="0"/>
        <pt x="822" y="631" on="0"/>
        <pt x="893" y="659" on="1"/>
        <pt x="894" y="661" on="0"/>
        <pt x="894" y="666" on="1"/>
        <pt x="894" y="711" on="0"/>
        <pt x="770" y="711" on="0"/>
        <pt x="589" y="604" on="0"/>
        <pt x="453" y="459" on="0"/>
        <pt x="453" y="409" on="1"/>
        <pt x="453" y="346" on="0"/>
        <pt x="569" y="346" on="1"/>
        <pt x="637" y="346" on="0"/>
        <pt x="686" y="378" on="1"/>
        <pt x="689" y="382" on="0"/>
        <pt x="693" y="382" on="1"/>
        <pt x="700" y="382" on="0"/>
        <pt x="700" y="361" on="0"/>
        <pt x="693" y="358" on="1"/>
        <pt x="568" y="301" on="0"/>
        <pt x="486" y="228" on="1"/>
        <pt x="451" y="197" on="0"/>
        <pt x="394" y="104" on="0"/>
        <pt x="394" y="25" on="0"/>
        <pt x="435" y="-26" on="0"/>
        <pt x="491" y="-26" on="1"/>
        <pt x="510" y="-25" on="0"/>
        <pt x="558" y="-15" on="0"/>
        <pt x="672" y="43" on="0"/>
        <pt x="724" y="91" on="1"/>
        <pt x="732" y="101" on="0"/>
        <pt x="737" y="101" on="1"/>
        <pt x="743" y="100" on="0"/>
        <pt x="743" y="93" on="1"/>
        <pt x="743" y="76" on="0"/>
        <pt x="649" y="6" on="0"/>
        <pt x="508" y="-54" on="0"/>
        <pt x="455" y="-54" on="1"/>
        <pt x="379" y="-54" on="0"/>
        <pt x="351" y="-2" on="1"/>
        <pt x="340" y="19" on="0"/>
        <pt x="340" y="70" on="0"/>
        <pt x="351" y="98" on="1"/>
        <pt x="213" y="-24" on="0"/>
        <pt x="111" y="-24" on="1"/>
        <pt x="0" y="-24" on="0"/>
        <pt x="0" y="134" on="1"/>
        <pt x="0" y="230" on="0"/>
        <pt x="76" y="417" on="0"/>
        <pt x="185" y="549" on="0"/>
        <pt x="306" y="653" on="0"/>
        <pt x="399" y="704" on="0"/>
        <pt x="418" y="704" on="1"/>
        <pt x="423" y="704" on="0"/>
        <pt x="425" y="698" on="1"/>
        <pt x="425" y="690" on="0"/>
        <pt x="413" y="688" on="1"/>
        <pt x="357" y="669" on="0"/>
        <pt x="230" y="569" on="0"/>
        <pt x="117" y="428" on="0"/>
        <pt x="42" y="236" on="0"/>
        <pt x="42" y="138" on="1"/>
        <pt x="42" y="5" on="0"/>
        <pt x="136" y="5" on="1"/>
        <pt x="187" y="5" on="0"/>
        <pt x="320" y="86" on="0"/>
        <pt x="382" y="153" on="1"/>
        <pt x="459" y="260" on="0"/>
        <pt x="615" y="333" on="1"/>
        <pt x="568" y="323" on="0"/>
        <pt x="528" y="323" on="1"/>
        <pt x="402" y="323" on="0"/>
        <pt x="402" y="393" on="1"/>
        <pt x="402" y="433" on="0"/>
        <pt x="482" y="542" on="0"/>
        <pt x="547" y="595" on="1"/>
        <pt x="531" y="630" on="0"/>
        <pt x="494" y="630" on="1"/>
        <pt x="443" y="630" on="0"/>
        <pt x="305" y="521" on="0"/>
        <pt x="202" y="354" on="0"/>
        <pt x="202" y="207" on="0"/>
        <pt x="253" y="207" on="1"/>
        <pt x="285" y="207" on="0"/>
        <pt x="366" y="268" on="0"/>
      </contour>
      <contour>
        <pt x="738" y="523" on="1"/>
        <pt x="738" y="514" on="0"/>
        <pt x="754" y="514" on="1"/>
        <pt x="784" y="514" on="0"/>
        <pt x="866" y="587" on="0"/>
        <pt x="884" y="628" on="1"/>
        <pt x="826" y="604" on="0"/>
        <pt x="738" y="539" on="0"/>
      </contour>
    </TTGlyph>
    <TTGlyph name="Oacute" xMin="0" yMin="-24" xMax="636" yMax="792">
      <contour>
        <pt x="413" y="321" on="1"/>
        <pt x="413" y="327" on="0"/>
        <pt x="407" y="327" on="1"/>
        <pt x="402" y="327" on="0"/>
        <pt x="398" y="319" on="1"/>
        <pt x="366" y="268" on="0"/>
        <pt x="285" y="207" on="0"/>
        <pt x="253" y="207" on="1"/>
        <pt x="202" y="207" on="0"/>
        <pt x="202" y="354" on="0"/>
        <pt x="305" y="521" on="0"/>
        <pt x="443" y="630" on="0"/>
        <pt x="494" y="630" on="1"/>
        <pt x="557" y="630" on="0"/>
        <pt x="557" y="447" on="0"/>
        <pt x="467" y="249" on="0"/>
        <pt x="338" y="102" on="0"/>
        <pt x="191" y="5" on="0"/>
        <pt x="136" y="5" on="1"/>
        <pt x="42" y="5" on="0"/>
        <pt x="42" y="138" on="1"/>
        <pt x="42" y="236" on="0"/>
        <pt x="117" y="428" on="0"/>
        <pt x="230" y="569" on="0"/>
        <pt x="357" y="669" on="0"/>
        <pt x="413" y="688" on="1"/>
        <pt x="425" y="690" on="0"/>
        <pt x="425" y="698" on="1"/>
        <pt x="424" y="704" on="0"/>
        <pt x="399" y="704" on="0"/>
        <pt x="306" y="653" on="0"/>
        <pt x="185" y="549" on="0"/>
        <pt x="76" y="417" on="0"/>
        <pt x="0" y="230" on="0"/>
        <pt x="0" y="134" on="1"/>
        <pt x="0" y="-24" on="0"/>
        <pt x="111" y="-24" on="1"/>
        <pt x="175" y="-24" on="0"/>
        <pt x="345" y="84" on="0"/>
        <pt x="494" y="245" on="0"/>
        <pt x="598" y="452" on="0"/>
        <pt x="598" y="542" on="1"/>
        <pt x="598" y="661" on="0"/>
        <pt x="518" y="661" on="1"/>
        <pt x="457" y="661" on="0"/>
        <pt x="289" y="531" on="0"/>
        <pt x="165" y="342" on="0"/>
        <pt x="165" y="268" on="1"/>
        <pt x="165" y="173" on="0"/>
        <pt x="224" y="173" on="1"/>
        <pt x="274" y="173" on="0"/>
        <pt x="413" y="293" on="0"/>
      </contour>
      <contour>
        <pt x="529" y="705" on="1"/>
        <pt x="524" y="707" on="0"/>
        <pt x="524" y="711" on="1"/>
        <pt x="525" y="715" on="0"/>
        <pt x="533" y="723" on="1"/>
        <pt x="612" y="788" on="1"/>
        <pt x="616" y="792" on="0"/>
        <pt x="622" y="792" on="1"/>
        <pt x="636" y="792" on="0"/>
        <pt x="636" y="778" on="1"/>
        <pt x="636" y="771" on="0"/>
        <pt x="630" y="765" on="1"/>
        <pt x="545" y="711" on="1"/>
        <pt x="533" y="705" on="0"/>
      </contour>
    </TTGlyph>
    <TTGlyph name="Ocircumflex" xMin="0" yMin="-24" xMax="621" yMax="818">
      <contour>
        <pt x="418" y="704" on="1"/>
        <pt x="423" y="704" on="0"/>
        <pt x="425" y="698" on="1"/>
        <pt x="425" y="690" on="0"/>
        <pt x="413" y="688" on="1"/>
        <pt x="357" y="669" on="0"/>
        <pt x="230" y="569" on="0"/>
        <pt x="117" y="428" on="0"/>
        <pt x="42" y="236" on="0"/>
        <pt x="42" y="138" on="1"/>
        <pt x="42" y="5" on="0"/>
        <pt x="136" y="5" on="1"/>
        <pt x="191" y="5" on="0"/>
        <pt x="338" y="102" on="0"/>
        <pt x="467" y="249" on="0"/>
        <pt x="557" y="447" on="0"/>
        <pt x="557" y="630" on="0"/>
        <pt x="494" y="630" on="1"/>
        <pt x="443" y="630" on="0"/>
        <pt x="305" y="521" on="0"/>
        <pt x="202" y="354" on="0"/>
        <pt x="202" y="207" on="0"/>
        <pt x="253" y="207" on="1"/>
        <pt x="285" y="207" on="0"/>
        <pt x="366" y="268" on="0"/>
        <pt x="398" y="319" on="1"/>
        <pt x="402" y="327" on="0"/>
        <pt x="413" y="327" on="0"/>
        <pt x="413" y="321" on="1"/>
        <pt x="413" y="293" on="0"/>
        <pt x="274" y="173" on="0"/>
        <pt x="224" y="173" on="1"/>
        <pt x="165" y="173" on="0"/>
        <pt x="165" y="268" on="1"/>
        <pt x="165" y="342" on="0"/>
        <pt x="289" y="531" on="0"/>
        <pt x="457" y="661" on="0"/>
        <pt x="518" y="661" on="1"/>
        <pt x="598" y="661" on="0"/>
        <pt x="598" y="542" on="1"/>
        <pt x="598" y="452" on="0"/>
        <pt x="494" y="245" on="0"/>
        <pt x="345" y="84" on="0"/>
        <pt x="175" y="-24" on="0"/>
        <pt x="111" y="-24" on="1"/>
        <pt x="0" y="-24" on="0"/>
        <pt x="0" y="134" on="1"/>
        <pt x="0" y="230" on="0"/>
        <pt x="76" y="417" on="0"/>
        <pt x="185" y="549" on="0"/>
        <pt x="306" y="653" on="0"/>
        <pt x="399" y="704" on="0"/>
      </contour>
      <contour>
        <pt x="564" y="784" on="1"/>
        <pt x="452" y="729" on="0"/>
        <pt x="434" y="729" on="0"/>
        <pt x="434" y="738" on="0"/>
        <pt x="568" y="818" on="0"/>
        <pt x="576" y="818" on="1"/>
        <pt x="584" y="818" on="0"/>
        <pt x="617" y="734" on="0"/>
        <pt x="621" y="725" on="1"/>
        <pt x="618" y="719" on="0"/>
        <pt x="613" y="719" on="1"/>
        <pt x="605" y="719" on="0"/>
        <pt x="574" y="768" on="1"/>
      </contour>
    </TTGlyph>
    <TTGlyph name="Odieresis" xMin="0" yMin="-24" xMax="618" yMax="818">
      <contour>
        <pt x="418" y="704" on="1"/>
        <pt x="423" y="704" on="0"/>
        <pt x="425" y="698" on="1"/>
        <pt x="425" y="690" on="0"/>
        <pt x="413" y="688" on="1"/>
        <pt x="357" y="669" on="0"/>
        <pt x="230" y="569" on="0"/>
        <pt x="117" y="428" on="0"/>
        <pt x="42" y="236" on="0"/>
        <pt x="42" y="138" on="1"/>
        <pt x="42" y="5" on="0"/>
        <pt x="136" y="5" on="1"/>
        <pt x="191" y="5" on="0"/>
        <pt x="338" y="102" on="0"/>
        <pt x="467" y="249" on="0"/>
        <pt x="557" y="447" on="0"/>
        <pt x="557" y="630" on="0"/>
        <pt x="494" y="630" on="1"/>
        <pt x="443" y="630" on="0"/>
        <pt x="305" y="521" on="0"/>
        <pt x="202" y="354" on="0"/>
        <pt x="202" y="207" on="0"/>
        <pt x="253" y="207" on="1"/>
        <pt x="285" y="207" on="0"/>
        <pt x="366" y="268" on="0"/>
        <pt x="398" y="319" on="1"/>
        <pt x="402" y="327" on="0"/>
        <pt x="413" y="327" on="0"/>
        <pt x="413" y="321" on="1"/>
        <pt x="413" y="293" on="0"/>
        <pt x="274" y="173" on="0"/>
        <pt x="224" y="173" on="1"/>
        <pt x="165" y="173" on="0"/>
        <pt x="165" y="268" on="1"/>
        <pt x="165" y="342" on="0"/>
        <pt x="289" y="531" on="0"/>
        <pt x="457" y="661" on="0"/>
        <pt x="518" y="661" on="1"/>
        <pt x="598" y="661" on="0"/>
        <pt x="598" y="542" on="1"/>
        <pt x="598" y="452" on="0"/>
        <pt x="494" y="245" on="0"/>
        <pt x="345" y="84" on="0"/>
        <pt x="175" y="-24" on="0"/>
        <pt x="111" y="-24" on="1"/>
        <pt x="0" y="-24" on="0"/>
        <pt x="0" y="134" on="1"/>
        <pt x="0" y="230" on="0"/>
        <pt x="76" y="417" on="0"/>
        <pt x="185" y="549" on="0"/>
        <pt x="306" y="653" on="0"/>
        <pt x="399" y="704" on="0"/>
      </contour>
      <contour>
        <pt x="498" y="818" on="1"/>
        <pt x="513" y="818" on="0"/>
        <pt x="513" y="788" on="0"/>
        <pt x="485" y="757" on="0"/>
        <pt x="468" y="757" on="1"/>
        <pt x="454" y="757" on="0"/>
        <pt x="454" y="796" on="0"/>
        <pt x="486" y="818" on="0"/>
      </contour>
      <contour>
        <pt x="603" y="808" on="1"/>
        <pt x="618" y="808" on="0"/>
        <pt x="618" y="778" on="0"/>
        <pt x="590" y="747" on="0"/>
        <pt x="573" y="747" on="1"/>
        <pt x="559" y="747" on="0"/>
        <pt x="559" y="786" on="0"/>
        <pt x="591" y="808" on="0"/>
      </contour>
    </TTGlyph>
    <TTGlyph name="Ograve" xMin="0" yMin="-24" xMax="616" yMax="783">
      <contour>
        <pt x="418" y="704" on="1"/>
        <pt x="423" y="704" on="0"/>
        <pt x="425" y="698" on="1"/>
        <pt x="425" y="690" on="0"/>
        <pt x="413" y="688" on="1"/>
        <pt x="357" y="669" on="0"/>
        <pt x="230" y="569" on="0"/>
        <pt x="117" y="428" on="0"/>
        <pt x="42" y="236" on="0"/>
        <pt x="42" y="138" on="1"/>
        <pt x="42" y="5" on="0"/>
        <pt x="136" y="5" on="1"/>
        <pt x="191" y="5" on="0"/>
        <pt x="338" y="102" on="0"/>
        <pt x="467" y="249" on="0"/>
        <pt x="557" y="447" on="0"/>
        <pt x="557" y="630" on="0"/>
        <pt x="494" y="630" on="1"/>
        <pt x="443" y="630" on="0"/>
        <pt x="305" y="521" on="0"/>
        <pt x="202" y="354" on="0"/>
        <pt x="202" y="207" on="0"/>
        <pt x="253" y="207" on="1"/>
        <pt x="285" y="207" on="0"/>
        <pt x="366" y="268" on="0"/>
        <pt x="398" y="319" on="1"/>
        <pt x="402" y="327" on="0"/>
        <pt x="413" y="327" on="0"/>
        <pt x="413" y="321" on="1"/>
        <pt x="413" y="293" on="0"/>
        <pt x="274" y="173" on="0"/>
        <pt x="224" y="173" on="1"/>
        <pt x="165" y="173" on="0"/>
        <pt x="165" y="268" on="1"/>
        <pt x="165" y="342" on="0"/>
        <pt x="289" y="531" on="0"/>
        <pt x="457" y="661" on="0"/>
        <pt x="518" y="661" on="1"/>
        <pt x="598" y="661" on="0"/>
        <pt x="598" y="542" on="1"/>
        <pt x="598" y="452" on="0"/>
        <pt x="494" y="245" on="0"/>
        <pt x="345" y="84" on="0"/>
        <pt x="175" y="-24" on="0"/>
        <pt x="111" y="-24" on="1"/>
        <pt x="0" y="-24" on="0"/>
        <pt x="0" y="134" on="1"/>
        <pt x="0" y="230" on="0"/>
        <pt x="76" y="417" on="0"/>
        <pt x="185" y="549" on="0"/>
        <pt x="306" y="653" on="0"/>
        <pt x="399" y="704" on="0"/>
      </contour>
      <contour>
        <pt x="616" y="696" on="1"/>
        <pt x="612" y="696" on="0"/>
        <pt x="600" y="702" on="1"/>
        <pt x="515" y="756" on="1"/>
        <pt x="509" y="762" on="0"/>
        <pt x="509" y="769" on="1"/>
        <pt x="509" y="783" on="0"/>
        <pt x="523" y="783" on="1"/>
        <pt x="529" y="783" on="0"/>
        <pt x="533" y="779" on="1"/>
        <pt x="612" y="714" on="1"/>
        <pt x="626" y="700" on="0"/>
      </contour>
    </TTGlyph>
    <TTGlyph name="Oslash" xMin="0" yMin="-114" xMax="598" yMax="773">
      <contour>
        <pt x="418" y="704" on="1"/>
        <pt x="423" y="704" on="0"/>
        <pt x="425" y="698" on="1"/>
        <pt x="425" y="690" on="0"/>
        <pt x="413" y="688" on="1"/>
        <pt x="357" y="669" on="0"/>
        <pt x="230" y="569" on="0"/>
        <pt x="117" y="428" on="0"/>
        <pt x="42" y="236" on="0"/>
        <pt x="42" y="46" on="0"/>
        <pt x="89" y="17" on="1"/>
        <pt x="186" y="188" on="1"/>
        <pt x="165" y="212" on="0"/>
        <pt x="165" y="268" on="1"/>
        <pt x="165" y="360" on="0"/>
        <pt x="346" y="592" on="0"/>
        <pt x="443" y="640" on="1"/>
        <pt x="507" y="753" on="1"/>
        <pt x="518" y="773" on="0"/>
        <pt x="539" y="773" on="0"/>
        <pt x="539" y="767" on="0"/>
        <pt x="477" y="654" on="1"/>
        <pt x="497" y="661" on="0"/>
        <pt x="518" y="661" on="1"/>
        <pt x="598" y="661" on="0"/>
        <pt x="598" y="542" on="1"/>
        <pt x="598" y="452" on="0"/>
        <pt x="494" y="245" on="0"/>
        <pt x="345" y="84" on="0"/>
        <pt x="175" y="-23" on="0"/>
        <pt x="111" y="-23" on="1"/>
        <pt x="101" y="-23" on="0"/>
        <pt x="96" y="-22" on="1"/>
        <pt x="59" y="-89" on="1"/>
        <pt x="55" y="-97" on="0"/>
        <pt x="38" y="-114" on="0"/>
        <pt x="33" y="-114" on="1"/>
        <pt x="24" y="-114" on="0"/>
        <pt x="24" y="-104" on="1"/>
        <pt x="24" y="-98" on="0"/>
        <pt x="28" y="-90" on="1"/>
        <pt x="70" y="-16" on="1"/>
        <pt x="0" y="10" on="0"/>
        <pt x="0" y="134" on="1"/>
        <pt x="0" y="230" on="0"/>
        <pt x="76" y="417" on="0"/>
        <pt x="185" y="549" on="0"/>
        <pt x="306" y="653" on="0"/>
        <pt x="399" y="704" on="0"/>
      </contour>
      <contour>
        <pt x="398" y="319" on="1"/>
        <pt x="402" y="327" on="0"/>
        <pt x="413" y="327" on="0"/>
        <pt x="413" y="321" on="1"/>
        <pt x="413" y="293" on="0"/>
        <pt x="274" y="173" on="0"/>
        <pt x="224" y="173" on="1"/>
        <pt x="218" y="173" on="0"/>
        <pt x="208" y="175" on="1"/>
        <pt x="200" y="162" on="0"/>
        <pt x="113" y="7" on="1"/>
        <pt x="120" y="5" on="0"/>
        <pt x="135" y="5" on="1"/>
        <pt x="190" y="5" on="0"/>
        <pt x="337" y="101" on="0"/>
        <pt x="467" y="249" on="0"/>
        <pt x="557" y="447" on="0"/>
        <pt x="557" y="630" on="0"/>
        <pt x="493" y="630" on="1"/>
        <pt x="478" y="630" on="0"/>
        <pt x="460" y="624" on="1"/>
        <pt x="229" y="213" on="1"/>
        <pt x="240" y="207" on="0"/>
        <pt x="253" y="207" on="1"/>
        <pt x="285" y="207" on="0"/>
        <pt x="366" y="268" on="0"/>
      </contour>
      <contour>
        <pt x="202" y="281" on="1"/>
        <pt x="202" y="250" on="0"/>
        <pt x="211" y="232" on="1"/>
        <pt x="396" y="557" on="0"/>
        <pt x="425" y="609" on="1"/>
        <pt x="344" y="565" on="0"/>
        <pt x="202" y="368" on="0"/>
      </contour>
    </TTGlyph>
    <TTGlyph name="Otilde" xMin="0" yMin="-24" xMax="652" yMax="807">
      <contour>
        <pt x="413" y="321" on="1"/>
        <pt x="413" y="327" on="0"/>
        <pt x="407" y="327" on="1"/>
        <pt x="402" y="327" on="0"/>
        <pt x="398" y="319" on="1"/>
        <pt x="366" y="268" on="0"/>
        <pt x="285" y="207" on="0"/>
        <pt x="253" y="207" on="1"/>
        <pt x="202" y="207" on="0"/>
        <pt x="202" y="354" on="0"/>
        <pt x="305" y="521" on="0"/>
        <pt x="443" y="630" on="0"/>
        <pt x="494" y="630" on="1"/>
        <pt x="557" y="630" on="0"/>
        <pt x="557" y="447" on="0"/>
        <pt x="467" y="249" on="0"/>
        <pt x="338" y="102" on="0"/>
        <pt x="191" y="5" on="0"/>
        <pt x="136" y="5" on="1"/>
        <pt x="42" y="5" on="0"/>
        <pt x="42" y="138" on="1"/>
        <pt x="42" y="236" on="0"/>
        <pt x="117" y="428" on="0"/>
        <pt x="230" y="569" on="0"/>
        <pt x="357" y="669" on="0"/>
        <pt x="413" y="688" on="1"/>
        <pt x="425" y="690" on="0"/>
        <pt x="425" y="698" on="1"/>
        <pt x="424" y="704" on="0"/>
        <pt x="399" y="704" on="0"/>
        <pt x="306" y="653" on="0"/>
        <pt x="185" y="549" on="0"/>
        <pt x="76" y="417" on="0"/>
        <pt x="0" y="230" on="0"/>
        <pt x="0" y="134" on="1"/>
        <pt x="0" y="-24" on="0"/>
        <pt x="111" y="-24" on="1"/>
        <pt x="175" y="-24" on="0"/>
        <pt x="345" y="84" on="0"/>
        <pt x="494" y="245" on="0"/>
        <pt x="598" y="452" on="0"/>
        <pt x="598" y="542" on="1"/>
        <pt x="598" y="661" on="0"/>
        <pt x="518" y="661" on="1"/>
        <pt x="457" y="661" on="0"/>
        <pt x="289" y="531" on="0"/>
        <pt x="165" y="342" on="0"/>
        <pt x="165" y="268" on="1"/>
        <pt x="165" y="173" on="0"/>
        <pt x="224" y="173" on="1"/>
        <pt x="274" y="173" on="0"/>
        <pt x="413" y="293" on="0"/>
      </contour>
      <contour>
        <pt x="652" y="784" on="1"/>
        <pt x="652" y="769" on="0"/>
        <pt x="621" y="747" on="0"/>
        <pt x="583" y="747" on="0"/>
        <pt x="519" y="784" on="0"/>
        <pt x="494" y="784" on="0"/>
        <pt x="468" y="765" on="0"/>
        <pt x="463" y="765" on="1"/>
        <pt x="461" y="766" on="1"/>
        <pt x="461" y="773" on="0"/>
        <pt x="498" y="807" on="0"/>
        <pt x="536" y="807" on="0"/>
        <pt x="604" y="766" on="0"/>
        <pt x="629" y="766" on="0"/>
        <pt x="649" y="787" on="0"/>
        <pt x="652" y="787" on="0"/>
      </contour>
    </TTGlyph>
    <TTGlyph name="P" xMin="-151" yMin="-26" xMax="672" yMax="745">
      <contour>
        <pt x="436" y="615" on="1"/>
        <pt x="436" y="613" on="0"/>
        <pt x="422" y="582" on="0"/>
        <pt x="243" y="263" on="1"/>
        <pt x="391" y="324" on="0"/>
        <pt x="623" y="537" on="0"/>
        <pt x="623" y="616" on="1"/>
        <pt x="623" y="711" on="0"/>
        <pt x="445" y="711" on="1"/>
        <pt x="341" y="711" on="0"/>
        <pt x="79" y="615" on="0"/>
        <pt x="-109" y="467" on="0"/>
        <pt x="-109" y="401" on="1"/>
        <pt x="-109" y="345" on="0"/>
        <pt x="-39" y="345" on="1"/>
        <pt x="20" y="345" on="0"/>
        <pt x="181" y="428" on="0"/>
        <pt x="245" y="497" on="1"/>
        <pt x="253" y="510" on="0"/>
        <pt x="266" y="510" on="0"/>
        <pt x="266" y="503" on="1"/>
        <pt x="266" y="480" on="0"/>
        <pt x="148" y="385" on="0"/>
        <pt x="-18" y="306" on="0"/>
        <pt x="-74" y="306" on="1"/>
        <pt x="-151" y="306" on="0"/>
        <pt x="-151" y="385" on="1"/>
        <pt x="-151" y="454" on="0"/>
        <pt x="66" y="626" on="0"/>
        <pt x="368" y="745" on="0"/>
        <pt x="482" y="745" on="1"/>
        <pt x="672" y="745" on="0"/>
        <pt x="672" y="640" on="1"/>
        <pt x="672" y="549" on="0"/>
        <pt x="403" y="303" on="0"/>
        <pt x="228" y="236" on="1"/>
        <pt x="128" y="57" on="0"/>
        <pt x="95" y="1" on="1"/>
        <pt x="89" y="-12" on="0"/>
        <pt x="57" y="-26" on="0"/>
        <pt x="40" y="-26" on="0"/>
        <pt x="40" y="-21" on="1"/>
        <pt x="173" y="217" on="1"/>
        <pt x="110" y="198" on="0"/>
        <pt x="56" y="192" on="1"/>
        <pt x="50" y="192" on="0"/>
        <pt x="50" y="217" on="0"/>
        <pt x="61" y="218" on="1"/>
        <pt x="120" y="221" on="0"/>
        <pt x="188" y="243" on="1"/>
        <pt x="388" y="600" on="1"/>
        <pt x="391" y="608" on="0"/>
        <pt x="421" y="619" on="0"/>
        <pt x="431" y="619" on="1"/>
      </contour>
    </TTGlyph>
    <TTGlyph name="Q" xMin="0" yMin="-218" xMax="677" yMax="688">
      <contour>
        <pt x="402" y="681" on="1"/>
        <pt x="418" y="680" on="0"/>
        <pt x="418" y="673" on="0"/>
        <pt x="408" y="669" on="1"/>
        <pt x="258" y="601" on="0"/>
        <pt x="41" y="299" on="0"/>
        <pt x="41" y="179" on="1"/>
        <pt x="41" y="118" on="0"/>
        <pt x="109" y="47" on="0"/>
        <pt x="237" y="47" on="0"/>
        <pt x="312" y="91" on="1"/>
        <pt x="308" y="126" on="0"/>
        <pt x="308" y="179" on="1"/>
        <pt x="308" y="197" on="1"/>
        <pt x="270" y="178" on="0"/>
        <pt x="238" y="178" on="1"/>
        <pt x="150" y="178" on="0"/>
        <pt x="150" y="253" on="1"/>
        <pt x="150" y="305" on="0"/>
        <pt x="237" y="456" on="0"/>
        <pt x="365" y="592" on="0"/>
        <pt x="527" y="688" on="0"/>
        <pt x="595" y="688" on="1"/>
        <pt x="677" y="688" on="0"/>
        <pt x="677" y="601" on="1"/>
        <pt x="677" y="502" on="0"/>
        <pt x="482" y="193" on="0"/>
        <pt x="355" y="99" on="1"/>
        <pt x="370" y="-19" on="0"/>
        <pt x="370" y="-108" on="0"/>
        <pt x="329" y="-217" on="0"/>
        <pt x="310" y="-218" on="1"/>
        <pt x="305" y="-218" on="0"/>
        <pt x="305" y="-204" on="0"/>
        <pt x="311" y="-197" on="1"/>
        <pt x="338" y="-178" on="0"/>
        <pt x="338" y="-103" on="1"/>
        <pt x="338" y="-64" on="0"/>
        <pt x="317" y="47" on="0"/>
        <pt x="314" y="72" on="1"/>
        <pt x="224" y="16" on="0"/>
        <pt x="72" y="16" on="0"/>
        <pt x="0" y="92" on="0"/>
        <pt x="0" y="157" on="1"/>
        <pt x="0" y="289" on="0"/>
        <pt x="241" y="618" on="0"/>
      </contour>
      <contour>
        <pt x="646" y="579" on="1"/>
        <pt x="646" y="660" on="0"/>
        <pt x="492" y="660" on="0"/>
        <pt x="309" y="517" on="0"/>
        <pt x="187" y="331" on="0"/>
        <pt x="187" y="205" on="0"/>
        <pt x="259" y="205" on="1"/>
        <pt x="281" y="205" on="0"/>
        <pt x="310" y="217" on="1"/>
        <pt x="319" y="303" on="0"/>
        <pt x="399" y="429" on="0"/>
        <pt x="453" y="429" on="1"/>
        <pt x="483" y="429" on="0"/>
        <pt x="483" y="368" on="0"/>
        <pt x="397" y="255" on="0"/>
        <pt x="341" y="216" on="1"/>
        <pt x="344" y="175" on="0"/>
        <pt x="352" y="118" on="1"/>
        <pt x="466" y="203" on="0"/>
        <pt x="646" y="487" on="0"/>
      </contour>
      <contour>
        <pt x="384" y="265" on="0"/>
        <pt x="448" y="360" on="0"/>
        <pt x="448" y="402" on="0"/>
        <pt x="435" y="402" on="1"/>
        <pt x="406" y="401" on="0"/>
        <pt x="341" y="288" on="0"/>
        <pt x="341" y="243" on="1"/>
        <pt x="341" y="235" on="1"/>
      </contour>
    </TTGlyph>
    <TTGlyph name="R" xMin="-154" yMin="-38" xMax="672" yMax="753">
      <contour>
        <pt x="435" y="623" on="1"/>
        <pt x="435" y="621" on="0"/>
        <pt x="432" y="616" on="0"/>
        <pt x="404" y="562" on="1"/>
        <pt x="373" y="504" on="0"/>
        <pt x="241" y="259" on="1"/>
        <pt x="389" y="314" on="0"/>
        <pt x="623" y="533" on="0"/>
        <pt x="623" y="616" on="1"/>
        <pt x="623" y="661" on="0"/>
        <pt x="535" y="719" on="0"/>
        <pt x="357" y="719" on="0"/>
        <pt x="152" y="644" on="0"/>
        <pt x="-4" y="540" on="0"/>
        <pt x="-109" y="430" on="0"/>
        <pt x="-109" y="395" on="1"/>
        <pt x="-109" y="356" on="0"/>
        <pt x="16" y="356" on="0"/>
        <pt x="177" y="439" on="0"/>
        <pt x="241" y="508" on="1"/>
        <pt x="252" y="521" on="0"/>
        <pt x="255" y="521" on="1"/>
        <pt x="262" y="521" on="0"/>
        <pt x="262" y="514" on="1"/>
        <pt x="262" y="512" on="0"/>
        <pt x="255" y="500" on="1"/>
        <pt x="222" y="450" on="0"/>
        <pt x="-5" y="315" on="0"/>
        <pt x="-154" y="315" on="0"/>
        <pt x="-154" y="362" on="1"/>
        <pt x="-154" y="404" on="0"/>
        <pt x="-35" y="537" on="0"/>
        <pt x="143" y="663" on="0"/>
        <pt x="379" y="753" on="0"/>
        <pt x="578" y="753" on="0"/>
        <pt x="672" y="690" on="0"/>
        <pt x="672" y="640" on="1"/>
        <pt x="672" y="553" on="0"/>
        <pt x="451" y="331" on="0"/>
        <pt x="295" y="264" on="1"/>
        <pt x="396" y="263" on="0"/>
        <pt x="530" y="90" on="0"/>
        <pt x="531" y="-24" on="1"/>
        <pt x="531" y="-38" on="0"/>
        <pt x="526" y="-38" on="1"/>
        <pt x="518" y="-38" on="0"/>
        <pt x="512" y="-3" on="0"/>
        <pt x="504" y="31" on="0"/>
        <pt x="463" y="117" on="0"/>
        <pt x="408" y="183" on="0"/>
        <pt x="304" y="237" on="0"/>
        <pt x="239" y="237" on="1"/>
        <pt x="228" y="237" on="1"/>
        <pt x="156" y="106" on="0"/>
        <pt x="107" y="20" on="1"/>
        <pt x="101" y="7" on="0"/>
        <pt x="69" y="-7" on="0"/>
        <pt x="52" y="-7" on="0"/>
        <pt x="52" y="-2" on="1"/>
        <pt x="175" y="222" on="1"/>
        <pt x="135" y="212" on="0"/>
        <pt x="93" y="207" on="1"/>
        <pt x="75" y="207" on="0"/>
        <pt x="75" y="213" on="1"/>
        <pt x="75" y="224" on="0"/>
        <pt x="86" y="225" on="1"/>
        <pt x="132" y="228" on="0"/>
        <pt x="186" y="242" on="1"/>
        <pt x="387" y="608" on="1"/>
        <pt x="390" y="616" on="0"/>
        <pt x="420" y="627" on="0"/>
        <pt x="430" y="627" on="1"/>
      </contour>
    </TTGlyph>
    <TTGlyph name="S" xMin="-150" yMin="-140" xMax="738" yMax="767">
      <contour>
        <pt x="466" y="470" on="1"/>
        <pt x="427" y="470" on="0"/>
        <pt x="427" y="504" on="1"/>
        <pt x="427" y="556" on="0"/>
        <pt x="543" y="648" on="0"/>
        <pt x="623" y="677" on="1"/>
        <pt x="616" y="706" on="0"/>
        <pt x="558" y="737" on="0"/>
        <pt x="473" y="737" on="0"/>
        <pt x="382" y="705" on="0"/>
        <pt x="301" y="646" on="0"/>
        <pt x="250" y="549" on="0"/>
        <pt x="250" y="491" on="1"/>
        <pt x="250" y="471" on="0"/>
        <pt x="310" y="277" on="0"/>
        <pt x="310" y="213" on="1"/>
        <pt x="310" y="197" on="0"/>
        <pt x="306" y="167" on="1"/>
        <pt x="344" y="171" on="0"/>
        <pt x="361" y="171" on="1"/>
        <pt x="458" y="171" on="0"/>
        <pt x="458" y="120" on="1"/>
        <pt x="458" y="102" on="0"/>
        <pt x="436" y="78" on="0"/>
        <pt x="410" y="62" on="1"/>
        <pt x="402" y="67" on="0"/>
        <pt x="402" y="75" on="0"/>
        <pt x="406" y="78" on="1"/>
        <pt x="436" y="95" on="0"/>
        <pt x="436" y="112" on="1"/>
        <pt x="436" y="146" on="0"/>
        <pt x="357" y="146" on="1"/>
        <pt x="328" y="146" on="0"/>
        <pt x="301" y="142" on="1"/>
        <pt x="284" y="78" on="0"/>
        <pt x="191" y="-33" on="0"/>
        <pt x="77" y="-102" on="0"/>
        <pt x="-38" y="-140" on="0"/>
        <pt x="-82" y="-140" on="1"/>
        <pt x="-150" y="-140" on="0"/>
        <pt x="-150" y="-100" on="1"/>
        <pt x="-150" y="-44" on="0"/>
        <pt x="-10" y="70" on="0"/>
        <pt x="183" y="147" on="0"/>
        <pt x="276" y="163" on="1"/>
        <pt x="280" y="191" on="0"/>
        <pt x="280" y="208" on="1"/>
        <pt x="280" y="251" on="0"/>
        <pt x="217" y="434" on="0"/>
        <pt x="217" y="566" on="0"/>
        <pt x="321" y="697" on="0"/>
        <pt x="464" y="767" on="0"/>
        <pt x="528" y="767" on="1"/>
        <pt x="629" y="767" on="0"/>
        <pt x="639" y="682" on="1"/>
        <pt x="695" y="700" on="0"/>
        <pt x="735" y="700" on="0"/>
        <pt x="738" y="697" on="0"/>
        <pt x="738" y="677" on="0"/>
        <pt x="729" y="674" on="1"/>
        <pt x="684" y="672" on="0"/>
        <pt x="640" y="661" on="1"/>
        <pt x="638" y="580" on="0"/>
        <pt x="520" y="470" on="0"/>
      </contour>
      <contour>
        <pt x="-111" y="-75" on="1"/>
        <pt x="-111" y="-104" on="0"/>
        <pt x="-53" y="-104" on="1"/>
        <pt x="28" y="-104" on="0"/>
        <pt x="128" y="-46" on="1"/>
        <pt x="177" y="-18" on="0"/>
        <pt x="256" y="79" on="0"/>
        <pt x="271" y="138" on="1"/>
        <pt x="186" y="124" on="0"/>
        <pt x="15" y="62" on="0"/>
        <pt x="-111" y="-29" on="0"/>
      </contour>
      <contour>
        <pt x="459" y="510" on="1"/>
        <pt x="459" y="491" on="0"/>
        <pt x="479" y="491" on="1"/>
        <pt x="517" y="491" on="0"/>
        <pt x="624" y="594" on="0"/>
        <pt x="625" y="656" on="1"/>
        <pt x="555" y="634" on="0"/>
        <pt x="459" y="556" on="0"/>
      </contour>
    </TTGlyph>
    <TTGlyph name="Scaron" xMin="-150" yMin="-140" xMax="738" yMax="891">
      <contour>
        <pt x="466" y="470" on="1"/>
        <pt x="427" y="470" on="0"/>
        <pt x="427" y="504" on="1"/>
        <pt x="427" y="556" on="0"/>
        <pt x="543" y="648" on="0"/>
        <pt x="623" y="677" on="1"/>
        <pt x="616" y="706" on="0"/>
        <pt x="558" y="737" on="0"/>
        <pt x="473" y="737" on="0"/>
        <pt x="382" y="705" on="0"/>
        <pt x="301" y="646" on="0"/>
        <pt x="250" y="549" on="0"/>
        <pt x="250" y="491" on="1"/>
        <pt x="250" y="471" on="0"/>
        <pt x="310" y="277" on="0"/>
        <pt x="310" y="213" on="1"/>
        <pt x="310" y="197" on="0"/>
        <pt x="306" y="167" on="1"/>
        <pt x="344" y="171" on="0"/>
        <pt x="361" y="171" on="1"/>
        <pt x="458" y="171" on="0"/>
        <pt x="458" y="120" on="1"/>
        <pt x="458" y="102" on="0"/>
        <pt x="436" y="78" on="0"/>
        <pt x="410" y="62" on="1"/>
        <pt x="402" y="67" on="0"/>
        <pt x="402" y="75" on="0"/>
        <pt x="406" y="78" on="1"/>
        <pt x="436" y="95" on="0"/>
        <pt x="436" y="112" on="1"/>
        <pt x="436" y="146" on="0"/>
        <pt x="357" y="146" on="1"/>
        <pt x="328" y="146" on="0"/>
        <pt x="301" y="142" on="1"/>
        <pt x="284" y="78" on="0"/>
        <pt x="191" y="-33" on="0"/>
        <pt x="77" y="-102" on="0"/>
        <pt x="-38" y="-140" on="0"/>
        <pt x="-82" y="-140" on="1"/>
        <pt x="-150" y="-140" on="0"/>
        <pt x="-150" y="-100" on="1"/>
        <pt x="-150" y="-44" on="0"/>
        <pt x="-10" y="70" on="0"/>
        <pt x="183" y="147" on="0"/>
        <pt x="276" y="163" on="1"/>
        <pt x="280" y="191" on="0"/>
        <pt x="280" y="208" on="1"/>
        <pt x="280" y="251" on="0"/>
        <pt x="217" y="434" on="0"/>
        <pt x="217" y="566" on="0"/>
        <pt x="321" y="697" on="0"/>
        <pt x="464" y="767" on="0"/>
        <pt x="528" y="767" on="1"/>
        <pt x="629" y="767" on="0"/>
        <pt x="639" y="682" on="1"/>
        <pt x="695" y="700" on="0"/>
        <pt x="735" y="700" on="0"/>
        <pt x="738" y="697" on="0"/>
        <pt x="738" y="677" on="0"/>
        <pt x="729" y="674" on="1"/>
        <pt x="684" y="672" on="0"/>
        <pt x="640" y="661" on="1"/>
        <pt x="638" y="580" on="0"/>
        <pt x="520" y="470" on="0"/>
      </contour>
      <contour>
        <pt x="-111" y="-75" on="1"/>
        <pt x="-111" y="-104" on="0"/>
        <pt x="-53" y="-104" on="1"/>
        <pt x="28" y="-104" on="0"/>
        <pt x="128" y="-46" on="1"/>
        <pt x="177" y="-18" on="0"/>
        <pt x="256" y="79" on="0"/>
        <pt x="271" y="138" on="1"/>
        <pt x="186" y="124" on="0"/>
        <pt x="15" y="62" on="0"/>
        <pt x="-111" y="-29" on="0"/>
      </contour>
      <contour>
        <pt x="459" y="510" on="1"/>
        <pt x="459" y="491" on="0"/>
        <pt x="479" y="491" on="1"/>
        <pt x="517" y="491" on="0"/>
        <pt x="624" y="594" on="0"/>
        <pt x="625" y="656" on="1"/>
        <pt x="555" y="634" on="0"/>
        <pt x="459" y="556" on="0"/>
      </contour>
      <contour>
        <pt x="602" y="826" on="1"/>
        <pt x="714" y="881" on="0"/>
        <pt x="732" y="881" on="0"/>
        <pt x="732" y="872" on="0"/>
        <pt x="598" y="792" on="0"/>
        <pt x="590" y="792" on="1"/>
        <pt x="582" y="792" on="0"/>
        <pt x="549" y="876" on="0"/>
        <pt x="545" y="885" on="1"/>
        <pt x="548" y="891" on="0"/>
        <pt x="553" y="891" on="1"/>
        <pt x="561" y="891" on="0"/>
        <pt x="592" y="842" on="1"/>
      </contour>
    </TTGlyph>
    <TTGlyph name="T" xMin="-206" yMin="-35" xMax="837" yMax="692">
      <contour>
        <pt x="470" y="688" on="1"/>
        <pt x="790" y="688" on="0"/>
        <pt x="818" y="692" on="0"/>
        <pt x="837" y="692" on="0"/>
        <pt x="837" y="684" on="0"/>
        <pt x="816" y="667" on="0"/>
        <pt x="765" y="650" on="0"/>
        <pt x="733" y="650" on="1"/>
        <pt x="438" y="651" on="1"/>
        <pt x="309" y="649" on="0"/>
        <pt x="74" y="583" on="0"/>
        <pt x="-76" y="491" on="0"/>
        <pt x="-164" y="395" on="0"/>
        <pt x="-164" y="361" on="1"/>
        <pt x="-164" y="320" on="0"/>
        <pt x="-42" y="320" on="0"/>
        <pt x="153" y="425" on="0"/>
        <pt x="221" y="498" on="1"/>
        <pt x="232" y="509" on="0"/>
        <pt x="236" y="509" on="1"/>
        <pt x="238" y="509" on="0"/>
        <pt x="238" y="503" on="0"/>
        <pt x="237" y="501" on="1"/>
        <pt x="208" y="433" on="0"/>
        <pt x="-8" y="282" on="0"/>
        <pt x="-206" y="282" on="0"/>
        <pt x="-206" y="339" on="1"/>
        <pt x="-206" y="382" on="0"/>
        <pt x="-94" y="500" on="0"/>
        <pt x="84" y="611" on="0"/>
        <pt x="341" y="688" on="0"/>
      </contour>
      <contour>
        <pt x="425" y="615" on="1"/>
        <pt x="425" y="612" on="0"/>
        <pt x="355" y="482" on="1"/>
        <pt x="164" y="127" on="0"/>
        <pt x="93" y="-8" on="1"/>
        <pt x="87" y="-21" on="0"/>
        <pt x="55" y="-35" on="0"/>
        <pt x="38" y="-35" on="0"/>
        <pt x="38" y="-26" on="0"/>
        <pt x="208" y="286" on="0"/>
        <pt x="377" y="595" on="0"/>
        <pt x="375" y="596" on="1"/>
        <pt x="381" y="606" on="0"/>
        <pt x="395" y="611" on="1"/>
        <pt x="420" y="619" on="1"/>
      </contour>
    </TTGlyph>
    <TTGlyph name="Thorn" xMin="-171" yMin="-26" xMax="652" yMax="754">
      <contour>
        <pt x="514" y="750" on="1"/>
        <pt x="514" y="746" on="0"/>
        <pt x="461" y="652" on="1"/>
        <pt x="462" y="652" on="1"/>
        <pt x="652" y="652" on="0"/>
        <pt x="652" y="548" on="1"/>
        <pt x="652" y="485" on="0"/>
        <pt x="516" y="319" on="0"/>
        <pt x="290" y="169" on="0"/>
        <pt x="169" y="129" on="1"/>
        <pt x="107" y="21" on="0"/>
        <pt x="89" y="-12" on="0"/>
        <pt x="57" y="-26" on="0"/>
        <pt x="40" y="-26" on="0"/>
        <pt x="40" y="-21" on="1"/>
        <pt x="116" y="114" on="1"/>
        <pt x="76" y="104" on="0"/>
        <pt x="36" y="99" on="1"/>
        <pt x="30" y="99" on="0"/>
        <pt x="30" y="124" on="0"/>
        <pt x="41" y="125" on="1"/>
        <pt x="82" y="128" on="0"/>
        <pt x="130" y="139" on="1"/>
        <pt x="399" y="617" on="1"/>
        <pt x="294" y="611" on="0"/>
        <pt x="46" y="514" on="0"/>
        <pt x="-129" y="371" on="0"/>
        <pt x="-129" y="308" on="1"/>
        <pt x="-129" y="252" on="0"/>
        <pt x="-59" y="252" on="1"/>
        <pt x="0" y="252" on="0"/>
        <pt x="161" y="335" on="0"/>
        <pt x="225" y="404" on="1"/>
        <pt x="233" y="417" on="0"/>
        <pt x="246" y="417" on="0"/>
        <pt x="246" y="410" on="1"/>
        <pt x="246" y="387" on="0"/>
        <pt x="128" y="292" on="0"/>
        <pt x="-38" y="213" on="0"/>
        <pt x="-94" y="213" on="1"/>
        <pt x="-171" y="213" on="0"/>
        <pt x="-171" y="292" on="1"/>
        <pt x="-171" y="357" on="0"/>
        <pt x="23" y="518" on="0"/>
        <pt x="301" y="638" on="0"/>
        <pt x="418" y="649" on="1"/>
        <pt x="466" y="735" on="1"/>
        <pt x="469" y="743" on="0"/>
        <pt x="499" y="754" on="0"/>
        <pt x="509" y="754" on="1"/>
      </contour>
      <contour>
        <pt x="183" y="155" on="1"/>
        <pt x="341" y="209" on="0"/>
        <pt x="603" y="438" on="0"/>
        <pt x="603" y="523" on="1"/>
        <pt x="603" y="613" on="0"/>
        <pt x="442" y="617" on="1"/>
        <pt x="273" y="312" on="0"/>
      </contour>
    </TTGlyph>
    <TTGlyph name="U" xMin="-227" yMin="-16" xMax="565" yMax="695">
      <contour>
        <pt x="362" y="15" on="1"/>
        <pt x="382" y="15" on="0"/>
        <pt x="466" y="54" on="0"/>
        <pt x="498" y="74" on="1"/>
        <pt x="530" y="94" on="1"/>
        <pt x="531" y="92" on="0"/>
        <pt x="531" y="80" on="0"/>
        <pt x="522" y="76" on="1"/>
        <pt x="387" y="-16" on="0"/>
        <pt x="334" y="-16" on="1"/>
        <pt x="299" y="-16" on="0"/>
        <pt x="299" y="28" on="1"/>
        <pt x="299" y="107" on="0"/>
        <pt x="400" y="254" on="1"/>
        <pt x="362" y="208" on="0"/>
        <pt x="293" y="141" on="1"/>
        <pt x="155" y="7" on="0"/>
        <pt x="93" y="7" on="1"/>
        <pt x="69" y="7" on="0"/>
        <pt x="43" y="40" on="0"/>
        <pt x="43" y="60" on="1"/>
        <pt x="43" y="103" on="0"/>
        <pt x="126" y="260" on="0"/>
        <pt x="227" y="405" on="0"/>
        <pt x="310" y="557" on="0"/>
        <pt x="310" y="637" on="0"/>
        <pt x="246" y="681" on="0"/>
        <pt x="136" y="681" on="0"/>
        <pt x="-12" y="622" on="0"/>
        <pt x="-123" y="537" on="0"/>
        <pt x="-197" y="445" on="0"/>
        <pt x="-197" y="412" on="1"/>
        <pt x="-197" y="365" on="0"/>
        <pt x="-45" y="365" on="0"/>
        <pt x="117" y="479" on="0"/>
        <pt x="178" y="563" on="1"/>
        <pt x="183" y="571" on="0"/>
        <pt x="188" y="571" on="1"/>
        <pt x="189" y="571" on="1"/>
        <pt x="194" y="568" on="0"/>
        <pt x="194" y="563" on="1"/>
        <pt x="194" y="539" on="0"/>
        <pt x="90" y="425" on="0"/>
        <pt x="-70" y="323" on="0"/>
        <pt x="-132" y="323" on="1"/>
        <pt x="-227" y="323" on="0"/>
        <pt x="-227" y="388" on="1"/>
        <pt x="-227" y="428" on="0"/>
        <pt x="-152" y="534" on="0"/>
        <pt x="-34" y="629" on="0"/>
        <pt x="130" y="695" on="0"/>
        <pt x="269" y="695" on="0"/>
        <pt x="353" y="644" on="0"/>
        <pt x="353" y="583" on="1"/>
        <pt x="353" y="521" on="0"/>
        <pt x="221" y="328" on="1"/>
        <pt x="172" y="257" on="0"/>
        <pt x="90" y="105" on="0"/>
        <pt x="90" y="34" on="0"/>
        <pt x="116" y="34" on="1"/>
        <pt x="139" y="34" on="0"/>
        <pt x="221" y="93" on="0"/>
        <pt x="264" y="134" on="1"/>
        <pt x="350" y="219" on="0"/>
        <pt x="408" y="290" on="1"/>
        <pt x="433" y="319" on="1"/>
        <pt x="522" y="441" on="1"/>
        <pt x="529" y="452" on="0"/>
        <pt x="542" y="452" on="1"/>
        <pt x="559" y="451" on="1"/>
        <pt x="565" y="451" on="0"/>
        <pt x="565" y="443" on="0"/>
        <pt x="346" y="102" on="0"/>
        <pt x="346" y="39" on="1"/>
        <pt x="346" y="28" on="0"/>
        <pt x="354" y="16" on="0"/>
      </contour>
    </TTGlyph>
    <TTGlyph name="Uacute" xMin="-227" yMin="-16" xMax="597" yMax="695">
      <contour>
        <pt x="362" y="15" on="1"/>
        <pt x="382" y="15" on="0"/>
        <pt x="466" y="54" on="0"/>
        <pt x="498" y="74" on="1"/>
        <pt x="530" y="94" on="1"/>
        <pt x="531" y="92" on="0"/>
        <pt x="531" y="80" on="0"/>
        <pt x="522" y="76" on="1"/>
        <pt x="387" y="-16" on="0"/>
        <pt x="334" y="-16" on="1"/>
        <pt x="299" y="-16" on="0"/>
        <pt x="299" y="28" on="1"/>
        <pt x="299" y="107" on="0"/>
        <pt x="400" y="254" on="1"/>
        <pt x="362" y="208" on="0"/>
        <pt x="293" y="141" on="1"/>
        <pt x="155" y="7" on="0"/>
        <pt x="93" y="7" on="1"/>
        <pt x="69" y="7" on="0"/>
        <pt x="43" y="40" on="0"/>
        <pt x="43" y="60" on="1"/>
        <pt x="43" y="103" on="0"/>
        <pt x="126" y="260" on="0"/>
        <pt x="227" y="405" on="0"/>
        <pt x="310" y="557" on="0"/>
        <pt x="310" y="637" on="0"/>
        <pt x="246" y="681" on="0"/>
        <pt x="136" y="681" on="0"/>
        <pt x="-12" y="622" on="0"/>
        <pt x="-123" y="537" on="0"/>
        <pt x="-197" y="445" on="0"/>
        <pt x="-197" y="412" on="1"/>
        <pt x="-197" y="365" on="0"/>
        <pt x="-45" y="365" on="0"/>
        <pt x="117" y="479" on="0"/>
        <pt x="178" y="563" on="1"/>
        <pt x="183" y="571" on="0"/>
        <pt x="188" y="571" on="1"/>
        <pt x="189" y="571" on="1"/>
        <pt x="194" y="568" on="0"/>
        <pt x="194" y="563" on="1"/>
        <pt x="194" y="539" on="0"/>
        <pt x="90" y="425" on="0"/>
        <pt x="-70" y="323" on="0"/>
        <pt x="-132" y="323" on="1"/>
        <pt x="-227" y="323" on="0"/>
        <pt x="-227" y="388" on="1"/>
        <pt x="-227" y="428" on="0"/>
        <pt x="-152" y="534" on="0"/>
        <pt x="-34" y="629" on="0"/>
        <pt x="130" y="695" on="0"/>
        <pt x="269" y="695" on="0"/>
        <pt x="353" y="644" on="0"/>
        <pt x="353" y="583" on="1"/>
        <pt x="353" y="521" on="0"/>
        <pt x="221" y="328" on="1"/>
        <pt x="172" y="257" on="0"/>
        <pt x="90" y="105" on="0"/>
        <pt x="90" y="34" on="0"/>
        <pt x="116" y="34" on="1"/>
        <pt x="139" y="34" on="0"/>
        <pt x="221" y="93" on="0"/>
        <pt x="264" y="134" on="1"/>
        <pt x="350" y="219" on="0"/>
        <pt x="408" y="290" on="1"/>
        <pt x="433" y="319" on="1"/>
        <pt x="522" y="441" on="1"/>
        <pt x="529" y="452" on="0"/>
        <pt x="542" y="452" on="1"/>
        <pt x="559" y="451" on="1"/>
        <pt x="565" y="451" on="0"/>
        <pt x="565" y="443" on="0"/>
        <pt x="346" y="102" on="0"/>
        <pt x="346" y="39" on="1"/>
        <pt x="346" y="28" on="0"/>
        <pt x="354" y="16" on="0"/>
      </contour>
      <contour>
        <pt x="490" y="601" on="1"/>
        <pt x="485" y="603" on="0"/>
        <pt x="485" y="607" on="1"/>
        <pt x="486" y="611" on="0"/>
        <pt x="494" y="619" on="1"/>
        <pt x="573" y="684" on="1"/>
        <pt x="577" y="688" on="0"/>
        <pt x="583" y="688" on="1"/>
        <pt x="597" y="688" on="0"/>
        <pt x="597" y="674" on="1"/>
        <pt x="597" y="667" on="0"/>
        <pt x="591" y="661" on="1"/>
        <pt x="506" y="607" on="1"/>
        <pt x="494" y="601" on="0"/>
      </contour>
    </TTGlyph>
    <TTGlyph name="Ucircumflex" xMin="-227" yMin="-16" xMax="592" yMax="695">
      <contour>
        <pt x="362" y="15" on="1"/>
        <pt x="382" y="15" on="0"/>
        <pt x="466" y="54" on="0"/>
        <pt x="498" y="74" on="1"/>
        <pt x="530" y="94" on="1"/>
        <pt x="531" y="92" on="0"/>
        <pt x="531" y="80" on="0"/>
        <pt x="522" y="76" on="1"/>
        <pt x="387" y="-16" on="0"/>
        <pt x="334" y="-16" on="1"/>
        <pt x="299" y="-16" on="0"/>
        <pt x="299" y="28" on="1"/>
        <pt x="299" y="107" on="0"/>
        <pt x="400" y="254" on="1"/>
        <pt x="362" y="208" on="0"/>
        <pt x="293" y="141" on="1"/>
        <pt x="155" y="7" on="0"/>
        <pt x="93" y="7" on="1"/>
        <pt x="69" y="7" on="0"/>
        <pt x="43" y="40" on="0"/>
        <pt x="43" y="60" on="1"/>
        <pt x="43" y="103" on="0"/>
        <pt x="126" y="260" on="0"/>
        <pt x="227" y="405" on="0"/>
        <pt x="310" y="557" on="0"/>
        <pt x="310" y="637" on="0"/>
        <pt x="246" y="681" on="0"/>
        <pt x="136" y="681" on="0"/>
        <pt x="-12" y="622" on="0"/>
        <pt x="-123" y="537" on="0"/>
        <pt x="-197" y="445" on="0"/>
        <pt x="-197" y="412" on="1"/>
        <pt x="-197" y="365" on="0"/>
        <pt x="-45" y="365" on="0"/>
        <pt x="117" y="479" on="0"/>
        <pt x="178" y="563" on="1"/>
        <pt x="183" y="571" on="0"/>
        <pt x="188" y="571" on="1"/>
        <pt x="189" y="571" on="1"/>
        <pt x="194" y="568" on="0"/>
        <pt x="194" y="563" on="1"/>
        <pt x="194" y="539" on="0"/>
        <pt x="90" y="425" on="0"/>
        <pt x="-70" y="323" on="0"/>
        <pt x="-132" y="323" on="1"/>
        <pt x="-227" y="323" on="0"/>
        <pt x="-227" y="388" on="1"/>
        <pt x="-227" y="428" on="0"/>
        <pt x="-152" y="534" on="0"/>
        <pt x="-34" y="629" on="0"/>
        <pt x="130" y="695" on="0"/>
        <pt x="269" y="695" on="0"/>
        <pt x="353" y="644" on="0"/>
        <pt x="353" y="583" on="1"/>
        <pt x="353" y="521" on="0"/>
        <pt x="221" y="328" on="1"/>
        <pt x="172" y="257" on="0"/>
        <pt x="90" y="105" on="0"/>
        <pt x="90" y="34" on="0"/>
        <pt x="116" y="34" on="1"/>
        <pt x="139" y="34" on="0"/>
        <pt x="221" y="93" on="0"/>
        <pt x="264" y="134" on="1"/>
        <pt x="350" y="219" on="0"/>
        <pt x="408" y="290" on="1"/>
        <pt x="433" y="319" on="1"/>
        <pt x="522" y="441" on="1"/>
        <pt x="529" y="452" on="0"/>
        <pt x="542" y="452" on="1"/>
        <pt x="559" y="451" on="1"/>
        <pt x="565" y="451" on="0"/>
        <pt x="565" y="443" on="0"/>
        <pt x="346" y="102" on="0"/>
        <pt x="346" y="39" on="1"/>
        <pt x="346" y="28" on="0"/>
        <pt x="354" y="16" on="0"/>
      </contour>
      <contour>
        <pt x="535" y="659" on="1"/>
        <pt x="423" y="604" on="0"/>
        <pt x="405" y="604" on="0"/>
        <pt x="405" y="613" on="0"/>
        <pt x="539" y="693" on="0"/>
        <pt x="547" y="693" on="1"/>
        <pt x="555" y="693" on="0"/>
        <pt x="588" y="609" on="0"/>
        <pt x="592" y="600" on="1"/>
        <pt x="589" y="594" on="0"/>
        <pt x="584" y="594" on="1"/>
        <pt x="574" y="594" on="0"/>
        <pt x="545" y="642" on="1"/>
      </contour>
    </TTGlyph>
    <TTGlyph name="Udieresis" xMin="-227" yMin="-16" xMax="599" yMax="699">
      <contour>
        <pt x="362" y="15" on="1"/>
        <pt x="382" y="15" on="0"/>
        <pt x="466" y="54" on="0"/>
        <pt x="498" y="74" on="1"/>
        <pt x="530" y="94" on="1"/>
        <pt x="531" y="92" on="0"/>
        <pt x="531" y="80" on="0"/>
        <pt x="522" y="76" on="1"/>
        <pt x="387" y="-16" on="0"/>
        <pt x="334" y="-16" on="1"/>
        <pt x="299" y="-16" on="0"/>
        <pt x="299" y="28" on="1"/>
        <pt x="299" y="107" on="0"/>
        <pt x="400" y="254" on="1"/>
        <pt x="362" y="208" on="0"/>
        <pt x="293" y="141" on="1"/>
        <pt x="155" y="7" on="0"/>
        <pt x="93" y="7" on="1"/>
        <pt x="69" y="7" on="0"/>
        <pt x="43" y="40" on="0"/>
        <pt x="43" y="60" on="1"/>
        <pt x="43" y="103" on="0"/>
        <pt x="126" y="260" on="0"/>
        <pt x="227" y="405" on="0"/>
        <pt x="310" y="557" on="0"/>
        <pt x="310" y="637" on="0"/>
        <pt x="246" y="681" on="0"/>
        <pt x="136" y="681" on="0"/>
        <pt x="-12" y="622" on="0"/>
        <pt x="-123" y="537" on="0"/>
        <pt x="-197" y="445" on="0"/>
        <pt x="-197" y="412" on="1"/>
        <pt x="-197" y="365" on="0"/>
        <pt x="-45" y="365" on="0"/>
        <pt x="117" y="479" on="0"/>
        <pt x="178" y="563" on="1"/>
        <pt x="183" y="571" on="0"/>
        <pt x="188" y="571" on="1"/>
        <pt x="189" y="571" on="1"/>
        <pt x="194" y="568" on="0"/>
        <pt x="194" y="563" on="1"/>
        <pt x="194" y="539" on="0"/>
        <pt x="90" y="425" on="0"/>
        <pt x="-70" y="323" on="0"/>
        <pt x="-132" y="323" on="1"/>
        <pt x="-227" y="323" on="0"/>
        <pt x="-227" y="388" on="1"/>
        <pt x="-227" y="428" on="0"/>
        <pt x="-152" y="534" on="0"/>
        <pt x="-34" y="629" on="0"/>
        <pt x="130" y="695" on="0"/>
        <pt x="269" y="695" on="0"/>
        <pt x="353" y="644" on="0"/>
        <pt x="353" y="583" on="1"/>
        <pt x="353" y="521" on="0"/>
        <pt x="221" y="328" on="1"/>
        <pt x="172" y="257" on="0"/>
        <pt x="90" y="105" on="0"/>
        <pt x="90" y="34" on="0"/>
        <pt x="116" y="34" on="1"/>
        <pt x="139" y="34" on="0"/>
        <pt x="221" y="93" on="0"/>
        <pt x="264" y="134" on="1"/>
        <pt x="350" y="219" on="0"/>
        <pt x="408" y="290" on="1"/>
        <pt x="433" y="319" on="1"/>
        <pt x="522" y="441" on="1"/>
        <pt x="529" y="452" on="0"/>
        <pt x="542" y="452" on="1"/>
        <pt x="559" y="451" on="1"/>
        <pt x="565" y="451" on="0"/>
        <pt x="565" y="443" on="0"/>
        <pt x="346" y="102" on="0"/>
        <pt x="346" y="39" on="1"/>
        <pt x="346" y="28" on="0"/>
        <pt x="354" y="16" on="0"/>
      </contour>
      <contour>
        <pt x="584" y="689" on="1"/>
        <pt x="599" y="689" on="0"/>
        <pt x="599" y="659" on="0"/>
        <pt x="571" y="628" on="0"/>
        <pt x="554" y="628" on="1"/>
        <pt x="540" y="628" on="0"/>
        <pt x="540" y="667" on="0"/>
        <pt x="572" y="689" on="0"/>
      </contour>
      <contour>
        <pt x="479" y="699" on="1"/>
        <pt x="494" y="699" on="0"/>
        <pt x="494" y="669" on="0"/>
        <pt x="466" y="638" on="0"/>
        <pt x="449" y="638" on="1"/>
        <pt x="435" y="638" on="0"/>
        <pt x="435" y="677" on="0"/>
        <pt x="467" y="699" on="0"/>
      </contour>
    </TTGlyph>
    <TTGlyph name="Ugrave" xMin="-227" yMin="-16" xMax="565" yMax="695">
      <contour>
        <pt x="362" y="15" on="1"/>
        <pt x="382" y="15" on="0"/>
        <pt x="466" y="54" on="0"/>
        <pt x="498" y="74" on="1"/>
        <pt x="530" y="94" on="1"/>
        <pt x="531" y="92" on="0"/>
        <pt x="531" y="80" on="0"/>
        <pt x="522" y="76" on="1"/>
        <pt x="387" y="-16" on="0"/>
        <pt x="334" y="-16" on="1"/>
        <pt x="299" y="-16" on="0"/>
        <pt x="299" y="28" on="1"/>
        <pt x="299" y="107" on="0"/>
        <pt x="400" y="254" on="1"/>
        <pt x="362" y="208" on="0"/>
        <pt x="293" y="141" on="1"/>
        <pt x="155" y="7" on="0"/>
        <pt x="93" y="7" on="1"/>
        <pt x="69" y="7" on="0"/>
        <pt x="43" y="40" on="0"/>
        <pt x="43" y="60" on="1"/>
        <pt x="43" y="103" on="0"/>
        <pt x="126" y="260" on="0"/>
        <pt x="227" y="405" on="0"/>
        <pt x="310" y="557" on="0"/>
        <pt x="310" y="637" on="0"/>
        <pt x="246" y="681" on="0"/>
        <pt x="136" y="681" on="0"/>
        <pt x="-12" y="622" on="0"/>
        <pt x="-123" y="537" on="0"/>
        <pt x="-197" y="445" on="0"/>
        <pt x="-197" y="412" on="1"/>
        <pt x="-197" y="365" on="0"/>
        <pt x="-45" y="365" on="0"/>
        <pt x="117" y="479" on="0"/>
        <pt x="178" y="563" on="1"/>
        <pt x="183" y="571" on="0"/>
        <pt x="188" y="571" on="1"/>
        <pt x="189" y="571" on="1"/>
        <pt x="194" y="568" on="0"/>
        <pt x="194" y="563" on="1"/>
        <pt x="194" y="539" on="0"/>
        <pt x="90" y="425" on="0"/>
        <pt x="-70" y="323" on="0"/>
        <pt x="-132" y="323" on="1"/>
        <pt x="-227" y="323" on="0"/>
        <pt x="-227" y="388" on="1"/>
        <pt x="-227" y="428" on="0"/>
        <pt x="-152" y="534" on="0"/>
        <pt x="-34" y="629" on="0"/>
        <pt x="130" y="695" on="0"/>
        <pt x="269" y="695" on="0"/>
        <pt x="353" y="644" on="0"/>
        <pt x="353" y="583" on="1"/>
        <pt x="353" y="521" on="0"/>
        <pt x="221" y="328" on="1"/>
        <pt x="172" y="257" on="0"/>
        <pt x="90" y="105" on="0"/>
        <pt x="90" y="34" on="0"/>
        <pt x="116" y="34" on="1"/>
        <pt x="139" y="34" on="0"/>
        <pt x="221" y="93" on="0"/>
        <pt x="264" y="134" on="1"/>
        <pt x="350" y="219" on="0"/>
        <pt x="408" y="290" on="1"/>
        <pt x="433" y="319" on="1"/>
        <pt x="522" y="441" on="1"/>
        <pt x="529" y="452" on="0"/>
        <pt x="542" y="452" on="1"/>
        <pt x="559" y="451" on="1"/>
        <pt x="565" y="451" on="0"/>
        <pt x="565" y="443" on="0"/>
        <pt x="346" y="102" on="0"/>
        <pt x="346" y="39" on="1"/>
        <pt x="346" y="28" on="0"/>
        <pt x="354" y="16" on="0"/>
      </contour>
      <contour>
        <pt x="550" y="572" on="1"/>
        <pt x="546" y="572" on="0"/>
        <pt x="534" y="578" on="1"/>
        <pt x="449" y="632" on="1"/>
        <pt x="443" y="638" on="0"/>
        <pt x="443" y="645" on="1"/>
        <pt x="443" y="659" on="0"/>
        <pt x="457" y="659" on="1"/>
        <pt x="463" y="659" on="0"/>
        <pt x="467" y="655" on="1"/>
        <pt x="546" y="590" on="1"/>
        <pt x="560" y="576" on="0"/>
      </contour>
    </TTGlyph>
    <TTGlyph name="V" xMin="-185" yMin="-5" xMax="710" yMax="695">
      <contour>
        <pt x="267" y="398" on="0"/>
        <pt x="352" y="556" on="0"/>
        <pt x="352" y="637" on="0"/>
        <pt x="288" y="681" on="0"/>
        <pt x="178" y="681" on="0"/>
        <pt x="30" y="622" on="0"/>
        <pt x="-81" y="537" on="0"/>
        <pt x="-155" y="445" on="0"/>
        <pt x="-155" y="412" on="1"/>
        <pt x="-155" y="365" on="0"/>
        <pt x="-3" y="365" on="0"/>
        <pt x="159" y="479" on="0"/>
        <pt x="220" y="563" on="1"/>
        <pt x="225" y="571" on="0"/>
        <pt x="236" y="571" on="0"/>
        <pt x="236" y="563" on="1"/>
        <pt x="236" y="539" on="0"/>
        <pt x="132" y="425" on="0"/>
        <pt x="-28" y="323" on="0"/>
        <pt x="-90" y="323" on="1"/>
        <pt x="-185" y="323" on="0"/>
        <pt x="-185" y="388" on="1"/>
        <pt x="-185" y="428" on="0"/>
        <pt x="-110" y="534" on="0"/>
        <pt x="8" y="629" on="0"/>
        <pt x="172" y="695" on="0"/>
        <pt x="311" y="695" on="0"/>
        <pt x="395" y="644" on="0"/>
        <pt x="395" y="583" on="1"/>
        <pt x="395" y="539" on="0"/>
        <pt x="263" y="322" on="0"/>
        <pt x="132" y="108" on="0"/>
        <pt x="132" y="21" on="0"/>
        <pt x="169" y="21" on="1"/>
        <pt x="220" y="21" on="0"/>
        <pt x="386" y="159" on="0"/>
        <pt x="530" y="333" on="0"/>
        <pt x="637" y="487" on="0"/>
        <pt x="637" y="504" on="1"/>
        <pt x="637" y="506" on="0"/>
        <pt x="629" y="507" on="0"/>
        <pt x="611" y="492" on="0"/>
        <pt x="590" y="471" on="0"/>
        <pt x="582" y="464" on="0"/>
        <pt x="575" y="464" on="1"/>
        <pt x="557" y="464" on="0"/>
        <pt x="557" y="477" on="1"/>
        <pt x="557" y="485" on="0"/>
        <pt x="595" y="517" on="0"/>
        <pt x="656" y="587" on="0"/>
        <pt x="692" y="629" on="0"/>
        <pt x="703" y="629" on="0"/>
        <pt x="710" y="623" on="0"/>
        <pt x="710" y="608" on="0"/>
        <pt x="691" y="565" on="1"/>
        <pt x="628" y="422" on="0"/>
        <pt x="510" y="272" on="1"/>
        <pt x="422" y="161" on="0"/>
        <pt x="213" y="-5" on="0"/>
        <pt x="136" y="-5" on="1"/>
        <pt x="103" y="-5" on="0"/>
        <pt x="80" y="25" on="0"/>
        <pt x="80" y="96" on="0"/>
        <pt x="165" y="249" on="0"/>
      </contour>
    </TTGlyph>
    <TTGlyph name="W" xMin="-214" yMin="-5" xMax="882" yMax="692">
      <contour>
        <pt x="204" y="678" on="1"/>
        <pt x="138" y="678" on="0"/>
        <pt x="-6" y="620" on="0"/>
        <pt x="-113" y="539" on="0"/>
        <pt x="-183" y="448" on="0"/>
        <pt x="-183" y="415" on="1"/>
        <pt x="-183" y="355" on="0"/>
        <pt x="-128" y="355" on="1"/>
        <pt x="-61" y="355" on="0"/>
        <pt x="143" y="495" on="0"/>
        <pt x="173" y="543" on="1"/>
        <pt x="178" y="551" on="0"/>
        <pt x="189" y="551" on="0"/>
        <pt x="189" y="543" on="1"/>
        <pt x="180" y="505" on="0"/>
        <pt x="65" y="398" on="0"/>
        <pt x="-88" y="317" on="0"/>
        <pt x="-143" y="317" on="1"/>
        <pt x="-214" y="317" on="0"/>
        <pt x="-214" y="391" on="1"/>
        <pt x="-214" y="431" on="0"/>
        <pt x="-142" y="535" on="0"/>
        <pt x="-28" y="628" on="0"/>
        <pt x="131" y="692" on="0"/>
        <pt x="209" y="692" on="1"/>
        <pt x="360" y="692" on="0"/>
        <pt x="360" y="599" on="1"/>
        <pt x="360" y="551" on="0"/>
        <pt x="279" y="393" on="0"/>
        <pt x="182" y="253" on="0"/>
        <pt x="101" y="107" on="0"/>
        <pt x="101" y="35" on="0"/>
        <pt x="132" y="35" on="1"/>
        <pt x="200" y="35" on="0"/>
        <pt x="287" y="91" on="1"/>
        <pt x="297" y="155" on="0"/>
        <pt x="409" y="334" on="0"/>
        <pt x="530" y="459" on="0"/>
        <pt x="588" y="460" on="0"/>
        <pt x="588" y="431" on="1"/>
        <pt x="588" y="379" on="0"/>
        <pt x="421" y="168" on="0"/>
        <pt x="317" y="93" on="1"/>
        <pt x="317" y="86" on="1"/>
        <pt x="317" y="18" on="0"/>
        <pt x="392" y="18" on="1"/>
        <pt x="454" y="18" on="0"/>
        <pt x="570" y="128" on="1"/>
        <pt x="626" y="181" on="0"/>
        <pt x="759" y="364" on="0"/>
        <pt x="818" y="476" on="1"/>
        <pt x="764" y="440" on="0"/>
        <pt x="758" y="440" on="1"/>
        <pt x="747" y="440" on="0"/>
        <pt x="747" y="463" on="0"/>
        <pt x="755" y="469" on="0"/>
        <pt x="770" y="479" on="1"/>
        <pt x="814" y="508" on="0"/>
        <pt x="828" y="525" on="1"/>
        <pt x="860" y="564" on="1"/>
        <pt x="863" y="572" on="0"/>
        <pt x="869" y="572" on="1"/>
        <pt x="882" y="570" on="0"/>
        <pt x="882" y="562" on="1"/>
        <pt x="882" y="558" on="0"/>
        <pt x="881" y="556" on="1"/>
        <pt x="832" y="461" on="1"/>
        <pt x="800" y="395" on="0"/>
        <pt x="662" y="203" on="0"/>
        <pt x="554" y="82" on="0"/>
        <pt x="425" y="-5" on="0"/>
        <pt x="372" y="-5" on="1"/>
        <pt x="285" y="-5" on="0"/>
        <pt x="285" y="68" on="1"/>
        <pt x="285" y="71" on="1"/>
        <pt x="188" y="11" on="0"/>
        <pt x="52" y="11" on="0"/>
        <pt x="52" y="65" on="1"/>
        <pt x="52" y="108" on="0"/>
        <pt x="137" y="262" on="0"/>
        <pt x="239" y="403" on="0"/>
        <pt x="324" y="559" on="0"/>
        <pt x="324" y="603" on="1"/>
        <pt x="324" y="678" on="0"/>
      </contour>
      <contour>
        <pt x="559" y="414" on="1"/>
        <pt x="559" y="432" on="0"/>
        <pt x="518" y="432" on="0"/>
        <pt x="421" y="326" on="0"/>
        <pt x="330" y="172" on="0"/>
        <pt x="320" y="114" on="1"/>
        <pt x="412" y="183" on="0"/>
        <pt x="559" y="372" on="0"/>
      </contour>
    </TTGlyph>
    <TTGlyph name="X" xMin="-205" yMin="-38" xMax="798" yMax="720">
      <contour>
        <pt x="334" y="15" on="1"/>
        <pt x="354" y="15" on="0"/>
        <pt x="438" y="54" on="0"/>
        <pt x="470" y="74" on="1"/>
        <pt x="502" y="94" on="1"/>
        <pt x="503" y="92" on="0"/>
        <pt x="503" y="80" on="0"/>
        <pt x="494" y="76" on="1"/>
        <pt x="359" y="-16" on="0"/>
        <pt x="306" y="-16" on="1"/>
        <pt x="206" y="-16" on="0"/>
        <pt x="206" y="116" on="1"/>
        <pt x="206" y="187" on="0"/>
        <pt x="236" y="281" on="1"/>
        <pt x="-122" y="3" on="0"/>
        <pt x="-174" y="-28" on="1"/>
        <pt x="-184" y="-38" on="0"/>
        <pt x="-198" y="-38" on="0"/>
        <pt x="-198" y="-23" on="0"/>
        <pt x="-186" y="-16" on="1"/>
        <pt x="-99" y="38" on="0"/>
        <pt x="46" y="156" on="1"/>
        <pt x="75" y="180" on="0"/>
        <pt x="219" y="298" on="0"/>
        <pt x="248" y="321" on="1"/>
        <pt x="254" y="342" on="0"/>
        <pt x="281" y="428" on="0"/>
        <pt x="296" y="477" on="0"/>
        <pt x="305" y="508" on="1"/>
        <pt x="322" y="567" on="0"/>
        <pt x="322" y="594" on="1"/>
        <pt x="322" y="651" on="0"/>
        <pt x="267" y="703" on="0"/>
        <pt x="139" y="703" on="0"/>
        <pt x="-2" y="644" on="0"/>
        <pt x="-103" y="559" on="0"/>
        <pt x="-167" y="468" on="0"/>
        <pt x="-167" y="435" on="1"/>
        <pt x="-167" y="389" on="0"/>
        <pt x="-107" y="389" on="1"/>
        <pt x="40" y="389" on="0"/>
        <pt x="177" y="573" on="1"/>
        <pt x="182" y="583" on="0"/>
        <pt x="191" y="583" on="0"/>
        <pt x="191" y="559" on="0"/>
        <pt x="132" y="485" on="0"/>
        <pt x="46" y="405" on="0"/>
        <pt x="-70" y="345" on="0"/>
        <pt x="-119" y="345" on="1"/>
        <pt x="-205" y="345" on="0"/>
        <pt x="-205" y="410" on="1"/>
        <pt x="-205" y="451" on="0"/>
        <pt x="-133" y="557" on="0"/>
        <pt x="-17" y="653" on="0"/>
        <pt x="150" y="720" on="0"/>
        <pt x="235" y="720" on="1"/>
        <pt x="271" y="720" on="0"/>
        <pt x="324" y="699" on="0"/>
        <pt x="336" y="684" on="1"/>
        <pt x="361" y="657" on="0"/>
        <pt x="363" y="630" on="1"/>
        <pt x="364" y="620" on="1"/>
        <pt x="364" y="552" on="0"/>
        <pt x="308" y="370" on="1"/>
        <pt x="481" y="511" on="0"/>
        <pt x="593" y="595" on="0"/>
        <pt x="630" y="625" on="0"/>
        <pt x="682" y="661" on="0"/>
        <pt x="704" y="676" on="1"/>
        <pt x="758" y="710" on="0"/>
        <pt x="781" y="710" on="1"/>
        <pt x="787" y="710" on="0"/>
        <pt x="798" y="698" on="0"/>
        <pt x="798" y="686" on="0"/>
        <pt x="793" y="683" on="1"/>
        <pt x="771" y="677" on="0"/>
        <pt x="630" y="589" on="0"/>
        <pt x="578" y="549" on="1"/>
        <pt x="447" y="445" on="0"/>
        <pt x="294" y="326" on="1"/>
        <pt x="253" y="203" on="0"/>
        <pt x="253" y="124" on="1"/>
        <pt x="253" y="15" on="0"/>
      </contour>
    </TTGlyph>
    <TTGlyph name="Y" xMin="-210" yMin="-442" xMax="570" yMax="723">
      <contour>
        <pt x="359" y="620" on="1"/>
        <pt x="359" y="567" on="0"/>
        <pt x="306" y="443" on="0"/>
        <pt x="230" y="334" on="0"/>
        <pt x="192" y="282" on="1"/>
        <pt x="101" y="159" on="0"/>
        <pt x="101" y="100" on="1"/>
        <pt x="101" y="82" on="0"/>
        <pt x="122" y="59" on="0"/>
        <pt x="141" y="59" on="1"/>
        <pt x="236" y="59" on="0"/>
        <pt x="473" y="318" on="1"/>
        <pt x="508" y="355" on="0"/>
        <pt x="526" y="384" on="1"/>
        <pt x="532" y="392" on="1"/>
        <pt x="539" y="403" on="0"/>
        <pt x="546" y="403" on="1"/>
        <pt x="570" y="400" on="0"/>
        <pt x="570" y="388" on="1"/>
        <pt x="570" y="384" on="0"/>
        <pt x="567" y="379" on="1"/>
        <pt x="521" y="305" on="1"/>
        <pt x="514" y="294" on="0"/>
        <pt x="360" y="42" on="0"/>
        <pt x="315" y="-29" on="1"/>
        <pt x="369" y="-16" on="0"/>
        <pt x="479" y="-16" on="0"/>
        <pt x="481" y="-47" on="1"/>
        <pt x="481" y="-64" on="0"/>
        <pt x="467" y="-75" on="1"/>
        <pt x="444" y="-93" on="0"/>
        <pt x="418" y="-93" on="0"/>
        <pt x="418" y="-90" on="1"/>
        <pt x="418" y="-87" on="0"/>
        <pt x="434" y="-79" on="0"/>
        <pt x="441" y="-74" on="0"/>
        <pt x="445" y="-71" on="1"/>
        <pt x="454" y="-64" on="0"/>
        <pt x="454" y="-58" on="1"/>
        <pt x="454" y="-44" on="0"/>
        <pt x="354" y="-44" on="0"/>
        <pt x="295" y="-60" on="1"/>
        <pt x="51" y="-442" on="0"/>
        <pt x="-39" y="-442" on="1"/>
        <pt x="-65" y="-442" on="0"/>
        <pt x="-65" y="-410" on="1"/>
        <pt x="-65" y="-339" on="0"/>
        <pt x="130" y="-98" on="0"/>
        <pt x="266" y="-45" on="1"/>
        <pt x="304" y="19" on="0"/>
        <pt x="429" y="238" on="0"/>
        <pt x="446" y="266" on="1"/>
        <pt x="374" y="185" on="0"/>
        <pt x="288" y="116" on="1"/>
        <pt x="251" y="85" on="0"/>
        <pt x="158" y="35" on="0"/>
        <pt x="124" y="35" on="1"/>
        <pt x="111" y="35" on="0"/>
        <pt x="88" y="41" on="0"/>
        <pt x="63" y="70" on="0"/>
        <pt x="63" y="139" on="0"/>
        <pt x="115" y="248" on="0"/>
        <pt x="190" y="351" on="0"/>
        <pt x="228" y="402" on="1"/>
        <pt x="317" y="522" on="0"/>
        <pt x="317" y="594" on="1"/>
        <pt x="317" y="651" on="0"/>
        <pt x="262" y="703" on="0"/>
        <pt x="134" y="703" on="0"/>
        <pt x="-7" y="644" on="0"/>
        <pt x="-108" y="559" on="0"/>
        <pt x="-172" y="468" on="0"/>
        <pt x="-172" y="435" on="1"/>
        <pt x="-172" y="389" on="0"/>
        <pt x="-112" y="389" on="1"/>
        <pt x="35" y="389" on="0"/>
        <pt x="172" y="573" on="1"/>
        <pt x="177" y="583" on="0"/>
        <pt x="186" y="583" on="0"/>
        <pt x="186" y="559" on="0"/>
        <pt x="127" y="485" on="0"/>
        <pt x="41" y="405" on="0"/>
        <pt x="-75" y="345" on="0"/>
        <pt x="-124" y="345" on="1"/>
        <pt x="-210" y="345" on="0"/>
        <pt x="-210" y="410" on="1"/>
        <pt x="-210" y="451" on="0"/>
        <pt x="-138" y="558" on="0"/>
        <pt x="-22" y="656" on="0"/>
        <pt x="145" y="723" on="0"/>
        <pt x="230" y="723" on="1"/>
        <pt x="266" y="723" on="0"/>
        <pt x="319" y="702" on="0"/>
        <pt x="332" y="687" on="1"/>
        <pt x="355" y="658" on="0"/>
        <pt x="358" y="630" on="1"/>
      </contour>
      <contour>
        <pt x="-30" y="-376" on="1"/>
        <pt x="-30" y="-397" on="0"/>
        <pt x="-15" y="-397" on="1"/>
        <pt x="54" y="-397" on="0"/>
        <pt x="247" y="-77" on="1"/>
        <pt x="128" y="-125" on="0"/>
        <pt x="-30" y="-321" on="0"/>
      </contour>
    </TTGlyph>
    <TTGlyph name="Yacute" xMin="-208" yMin="-442" xMax="596" yMax="723">
      <contour>
        <pt x="361" y="620" on="1"/>
        <pt x="361" y="567" on="0"/>
        <pt x="308" y="443" on="0"/>
        <pt x="232" y="334" on="0"/>
        <pt x="194" y="282" on="1"/>
        <pt x="103" y="159" on="0"/>
        <pt x="103" y="100" on="1"/>
        <pt x="103" y="82" on="0"/>
        <pt x="124" y="59" on="0"/>
        <pt x="143" y="59" on="1"/>
        <pt x="238" y="59" on="0"/>
        <pt x="475" y="318" on="1"/>
        <pt x="510" y="355" on="0"/>
        <pt x="528" y="384" on="1"/>
        <pt x="534" y="392" on="1"/>
        <pt x="541" y="403" on="0"/>
        <pt x="548" y="403" on="1"/>
        <pt x="572" y="400" on="0"/>
        <pt x="572" y="388" on="1"/>
        <pt x="572" y="384" on="0"/>
        <pt x="569" y="379" on="1"/>
        <pt x="523" y="305" on="1"/>
        <pt x="516" y="294" on="0"/>
        <pt x="362" y="42" on="0"/>
        <pt x="317" y="-29" on="1"/>
        <pt x="371" y="-16" on="0"/>
        <pt x="481" y="-16" on="0"/>
        <pt x="483" y="-47" on="1"/>
        <pt x="483" y="-64" on="0"/>
        <pt x="469" y="-75" on="1"/>
        <pt x="446" y="-93" on="0"/>
        <pt x="420" y="-93" on="0"/>
        <pt x="420" y="-90" on="1"/>
        <pt x="420" y="-87" on="0"/>
        <pt x="436" y="-79" on="0"/>
        <pt x="443" y="-74" on="0"/>
        <pt x="447" y="-71" on="1"/>
        <pt x="456" y="-64" on="0"/>
        <pt x="456" y="-58" on="1"/>
        <pt x="456" y="-44" on="0"/>
        <pt x="356" y="-44" on="0"/>
        <pt x="297" y="-60" on="1"/>
        <pt x="53" y="-442" on="0"/>
        <pt x="-37" y="-442" on="1"/>
        <pt x="-63" y="-442" on="0"/>
        <pt x="-63" y="-410" on="1"/>
        <pt x="-63" y="-339" on="0"/>
        <pt x="132" y="-98" on="0"/>
        <pt x="268" y="-45" on="1"/>
        <pt x="306" y="19" on="0"/>
        <pt x="431" y="238" on="0"/>
        <pt x="448" y="266" on="1"/>
        <pt x="376" y="185" on="0"/>
        <pt x="290" y="116" on="1"/>
        <pt x="253" y="85" on="0"/>
        <pt x="160" y="35" on="0"/>
        <pt x="126" y="35" on="1"/>
        <pt x="113" y="35" on="0"/>
        <pt x="90" y="41" on="0"/>
        <pt x="65" y="70" on="0"/>
        <pt x="65" y="139" on="0"/>
        <pt x="117" y="248" on="0"/>
        <pt x="192" y="351" on="0"/>
        <pt x="230" y="402" on="1"/>
        <pt x="319" y="522" on="0"/>
        <pt x="319" y="594" on="1"/>
        <pt x="319" y="651" on="0"/>
        <pt x="264" y="703" on="0"/>
        <pt x="136" y="703" on="0"/>
        <pt x="-5" y="644" on="0"/>
        <pt x="-106" y="559" on="0"/>
        <pt x="-170" y="468" on="0"/>
        <pt x="-170" y="435" on="1"/>
        <pt x="-170" y="389" on="0"/>
        <pt x="-110" y="389" on="1"/>
        <pt x="37" y="389" on="0"/>
        <pt x="174" y="573" on="1"/>
        <pt x="179" y="583" on="0"/>
        <pt x="188" y="583" on="0"/>
        <pt x="188" y="559" on="0"/>
        <pt x="129" y="485" on="0"/>
        <pt x="43" y="405" on="0"/>
        <pt x="-73" y="345" on="0"/>
        <pt x="-122" y="345" on="1"/>
        <pt x="-208" y="345" on="0"/>
        <pt x="-208" y="410" on="1"/>
        <pt x="-208" y="451" on="0"/>
        <pt x="-136" y="558" on="0"/>
        <pt x="-20" y="656" on="0"/>
        <pt x="147" y="723" on="0"/>
        <pt x="232" y="723" on="1"/>
        <pt x="268" y="723" on="0"/>
        <pt x="321" y="702" on="0"/>
        <pt x="334" y="687" on="1"/>
        <pt x="357" y="658" on="0"/>
        <pt x="360" y="630" on="1"/>
      </contour>
      <contour>
        <pt x="-28" y="-376" on="1"/>
        <pt x="-28" y="-397" on="0"/>
        <pt x="-13" y="-397" on="1"/>
        <pt x="56" y="-397" on="0"/>
        <pt x="249" y="-77" on="1"/>
        <pt x="130" y="-125" on="0"/>
        <pt x="-28" y="-321" on="0"/>
      </contour>
      <contour>
        <pt x="489" y="562" on="1"/>
        <pt x="484" y="564" on="0"/>
        <pt x="484" y="568" on="1"/>
        <pt x="485" y="572" on="0"/>
        <pt x="493" y="580" on="1"/>
        <pt x="572" y="645" on="1"/>
        <pt x="576" y="649" on="0"/>
        <pt x="582" y="649" on="1"/>
        <pt x="596" y="649" on="0"/>
        <pt x="596" y="635" on="1"/>
        <pt x="596" y="628" on="0"/>
        <pt x="590" y="622" on="1"/>
        <pt x="505" y="568" on="1"/>
        <pt x="493" y="562" on="0"/>
      </contour>
    </TTGlyph>
    <TTGlyph name="Ydieresis" xMin="-212" yMin="-442" xMax="628" yMax="723">
      <contour>
        <pt x="357" y="620" on="1"/>
        <pt x="357" y="567" on="0"/>
        <pt x="304" y="443" on="0"/>
        <pt x="228" y="334" on="0"/>
        <pt x="190" y="282" on="1"/>
        <pt x="99" y="159" on="0"/>
        <pt x="99" y="100" on="1"/>
        <pt x="99" y="82" on="0"/>
        <pt x="120" y="59" on="0"/>
        <pt x="139" y="59" on="1"/>
        <pt x="234" y="59" on="0"/>
        <pt x="471" y="318" on="1"/>
        <pt x="506" y="355" on="0"/>
        <pt x="524" y="384" on="1"/>
        <pt x="530" y="392" on="1"/>
        <pt x="537" y="403" on="0"/>
        <pt x="544" y="403" on="1"/>
        <pt x="568" y="400" on="0"/>
        <pt x="568" y="388" on="1"/>
        <pt x="568" y="384" on="0"/>
        <pt x="565" y="379" on="1"/>
        <pt x="519" y="305" on="1"/>
        <pt x="512" y="294" on="0"/>
        <pt x="358" y="42" on="0"/>
        <pt x="313" y="-29" on="1"/>
        <pt x="367" y="-16" on="0"/>
        <pt x="477" y="-16" on="0"/>
        <pt x="479" y="-47" on="1"/>
        <pt x="479" y="-64" on="0"/>
        <pt x="465" y="-75" on="1"/>
        <pt x="442" y="-93" on="0"/>
        <pt x="416" y="-93" on="0"/>
        <pt x="416" y="-90" on="1"/>
        <pt x="416" y="-87" on="0"/>
        <pt x="432" y="-79" on="0"/>
        <pt x="439" y="-74" on="0"/>
        <pt x="443" y="-71" on="1"/>
        <pt x="452" y="-64" on="0"/>
        <pt x="452" y="-58" on="1"/>
        <pt x="452" y="-44" on="0"/>
        <pt x="352" y="-44" on="0"/>
        <pt x="293" y="-60" on="1"/>
        <pt x="49" y="-442" on="0"/>
        <pt x="-41" y="-442" on="1"/>
        <pt x="-67" y="-442" on="0"/>
        <pt x="-67" y="-410" on="1"/>
        <pt x="-67" y="-339" on="0"/>
        <pt x="128" y="-98" on="0"/>
        <pt x="264" y="-45" on="1"/>
        <pt x="302" y="19" on="0"/>
        <pt x="427" y="238" on="0"/>
        <pt x="444" y="266" on="1"/>
        <pt x="372" y="185" on="0"/>
        <pt x="286" y="116" on="1"/>
        <pt x="249" y="85" on="0"/>
        <pt x="156" y="35" on="0"/>
        <pt x="122" y="35" on="1"/>
        <pt x="109" y="35" on="0"/>
        <pt x="86" y="41" on="0"/>
        <pt x="61" y="70" on="0"/>
        <pt x="61" y="139" on="0"/>
        <pt x="113" y="248" on="0"/>
        <pt x="188" y="351" on="0"/>
        <pt x="226" y="402" on="1"/>
        <pt x="315" y="522" on="0"/>
        <pt x="315" y="594" on="1"/>
        <pt x="315" y="651" on="0"/>
        <pt x="260" y="703" on="0"/>
        <pt x="132" y="703" on="0"/>
        <pt x="-9" y="644" on="0"/>
        <pt x="-110" y="559" on="0"/>
        <pt x="-174" y="468" on="0"/>
        <pt x="-174" y="435" on="1"/>
        <pt x="-174" y="389" on="0"/>
        <pt x="-114" y="389" on="1"/>
        <pt x="33" y="389" on="0"/>
        <pt x="170" y="573" on="1"/>
        <pt x="175" y="583" on="0"/>
        <pt x="184" y="583" on="0"/>
        <pt x="184" y="559" on="0"/>
        <pt x="125" y="485" on="0"/>
        <pt x="39" y="405" on="0"/>
        <pt x="-77" y="345" on="0"/>
        <pt x="-126" y="345" on="1"/>
        <pt x="-212" y="345" on="0"/>
        <pt x="-212" y="410" on="1"/>
        <pt x="-212" y="451" on="0"/>
        <pt x="-140" y="558" on="0"/>
        <pt x="-24" y="656" on="0"/>
        <pt x="143" y="723" on="0"/>
        <pt x="228" y="723" on="1"/>
        <pt x="264" y="723" on="0"/>
        <pt x="317" y="702" on="0"/>
        <pt x="330" y="687" on="1"/>
        <pt x="353" y="658" on="0"/>
        <pt x="356" y="630" on="1"/>
      </contour>
      <contour>
        <pt x="-32" y="-376" on="1"/>
        <pt x="-32" y="-397" on="0"/>
        <pt x="-17" y="-397" on="1"/>
        <pt x="52" y="-397" on="0"/>
        <pt x="245" y="-77" on="1"/>
        <pt x="126" y="-125" on="0"/>
        <pt x="-32" y="-321" on="0"/>
      </contour>
      <contour>
        <pt x="508" y="700" on="1"/>
        <pt x="523" y="700" on="0"/>
        <pt x="523" y="670" on="0"/>
        <pt x="495" y="639" on="0"/>
        <pt x="478" y="639" on="1"/>
        <pt x="464" y="639" on="0"/>
        <pt x="464" y="678" on="0"/>
        <pt x="496" y="700" on="0"/>
      </contour>
      <contour>
        <pt x="613" y="690" on="1"/>
        <pt x="628" y="690" on="0"/>
        <pt x="628" y="660" on="0"/>
        <pt x="600" y="629" on="0"/>
        <pt x="583" y="629" on="1"/>
        <pt x="569" y="629" on="0"/>
        <pt x="569" y="668" on="0"/>
        <pt x="601" y="690" on="0"/>
      </contour>
    </TTGlyph>
    <TTGlyph name="Z" xMin="0" yMin="-440" xMax="661" yMax="739">
      <contour>
        <pt x="631" y="-10" on="1"/>
        <pt x="631" y="8" on="0"/>
        <pt x="514" y="8" on="0"/>
        <pt x="447" y="-17" on="1"/>
        <pt x="412" y="-112" on="0"/>
        <pt x="247" y="-315" on="0"/>
        <pt x="81" y="-440" on="0"/>
        <pt x="35" y="-440" on="1"/>
        <pt x="0" y="-440" on="0"/>
        <pt x="0" y="-398" on="1"/>
        <pt x="0" y="-332" on="0"/>
        <pt x="265" y="-75" on="0"/>
        <pt x="415" y="-7" on="1"/>
        <pt x="427" y="41" on="0"/>
        <pt x="427" y="79" on="1"/>
        <pt x="427" y="150" on="0"/>
        <pt x="363" y="170" on="1"/>
        <pt x="207" y="36" on="0"/>
        <pt x="108" y="36" on="1"/>
        <pt x="53" y="36" on="0"/>
        <pt x="53" y="84" on="0"/>
        <pt x="138" y="151" on="0"/>
        <pt x="275" y="202" on="0"/>
        <pt x="338" y="202" on="1"/>
        <pt x="351" y="202" on="0"/>
        <pt x="369" y="200" on="1"/>
        <pt x="470" y="294" on="0"/>
        <pt x="613" y="522" on="0"/>
        <pt x="613" y="602" on="1"/>
        <pt x="613" y="713" on="0"/>
        <pt x="466" y="713" on="1"/>
        <pt x="379" y="713" on="0"/>
        <pt x="186" y="612" on="0"/>
        <pt x="64" y="483" on="0"/>
        <pt x="64" y="439" on="1"/>
        <pt x="64" y="381" on="0"/>
        <pt x="117" y="381" on="1"/>
        <pt x="162" y="381" on="0"/>
        <pt x="302" y="457" on="0"/>
        <pt x="410" y="552" on="0"/>
        <pt x="417" y="579" on="1"/>
        <pt x="419" y="590" on="0"/>
        <pt x="428" y="590" on="0"/>
        <pt x="428" y="582" on="1"/>
        <pt x="428" y="546" on="0"/>
        <pt x="311" y="429" on="0"/>
        <pt x="151" y="339" on="0"/>
        <pt x="97" y="339" on="1"/>
        <pt x="30" y="339" on="0"/>
        <pt x="30" y="414" on="1"/>
        <pt x="30" y="456" on="0"/>
        <pt x="112" y="568" on="0"/>
        <pt x="240" y="669" on="0"/>
        <pt x="417" y="739" on="0"/>
        <pt x="502" y="739" on="1"/>
        <pt x="661" y="739" on="0"/>
        <pt x="661" y="623" on="1"/>
        <pt x="661" y="539" on="0"/>
        <pt x="504" y="298" on="0"/>
        <pt x="392" y="195" on="1"/>
        <pt x="468" y="173" on="0"/>
        <pt x="468" y="89" on="1"/>
        <pt x="468" y="50" on="0"/>
        <pt x="456" y="10" on="1"/>
        <pt x="535" y="39" on="0"/>
        <pt x="655" y="39" on="0"/>
        <pt x="655" y="5" on="1"/>
        <pt x="655" y="-19" on="0"/>
        <pt x="616" y="-52" on="0"/>
        <pt x="590" y="-52" on="0"/>
        <pt x="590" y="-41" on="0"/>
        <pt x="604" y="-37" on="0"/>
        <pt x="631" y="-18" on="0"/>
      </contour>
      <contour>
        <pt x="38" y="-384" on="1"/>
        <pt x="38" y="-404" on="0"/>
        <pt x="58" y="-404" on="1"/>
        <pt x="93" y="-404" on="0"/>
        <pt x="230" y="-304" on="0"/>
        <pt x="376" y="-124" on="0"/>
        <pt x="407" y="-33" on="1"/>
        <pt x="271" y="-93" on="0"/>
        <pt x="38" y="-326" on="0"/>
      </contour>
      <contour>
        <pt x="342" y="175" on="1"/>
        <pt x="326" y="178" on="0"/>
        <pt x="264" y="178" on="0"/>
        <pt x="162" y="141" on="0"/>
        <pt x="95" y="94" on="0"/>
        <pt x="95" y="62" on="0"/>
        <pt x="134" y="62" on="1"/>
        <pt x="214" y="62" on="0"/>
      </contour>
    </TTGlyph>
</ttFont>
